<svg width="40" height="40" viewBox="0 0 40 40" fill="none" xmlns="http://www.w3.org/2000/svg">
<path d="M19.9997 3.33337C10.8163 3.33337 3.33301 10.8167 3.33301 20C3.33301 29.1834 10.8163 36.6667 19.9997 36.6667C29.183 36.6667 36.6663 29.1834 36.6663 20C36.6663 10.8167 29.183 3.33337 19.9997 3.33337ZM26.6663 21.25H21.2497V26.6667C21.2497 27.35 20.683 27.9167 19.9997 27.9167C19.3163 27.9167 18.7497 27.35 18.7497 26.6667V21.25H13.333C12.6497 21.25 12.083 20.6834 12.083 20C12.083 19.3167 12.6497 18.75 13.333 18.75H18.7497V13.3334C18.7497 12.65 19.3163 12.0834 19.9997 12.0834C20.683 12.0834 21.2497 12.65 21.2497 13.3334V18.75H26.6663C27.3497 18.75 27.9163 19.3167 27.9163 20C27.9163 20.6834 27.3497 21.25 26.6663 21.25Z" fill="#55849D"/>
</svg>
