<svg width="34" height="34" viewBox="0 0 34 34" fill="none" xmlns="http://www.w3.org/2000/svg">
<path d="M17.0007 0.333344C7.81732 0.333344 0.333984 7.81668 0.333984 17C0.333984 26.1833 7.81732 33.6667 17.0007 33.6667C26.184 33.6667 33.6673 26.1833 33.6673 17C33.6673 7.81668 26.184 0.333344 17.0007 0.333344ZM23.6673 18.25H18.2507V23.6667C18.2507 24.35 17.684 24.9167 17.0007 24.9167C16.3173 24.9167 15.7507 24.35 15.7507 23.6667V18.25H10.334C9.65065 18.25 9.08398 17.6833 9.08398 17C9.08398 16.3167 9.65065 15.75 10.334 15.75H15.7507V10.3333C15.7507 9.65001 16.3173 9.08334 17.0007 9.08334C17.684 9.08334 18.2507 9.65001 18.2507 10.3333V15.75H23.6673C24.3507 15.75 24.9173 16.3167 24.9173 17C24.9173 17.6833 24.3507 18.25 23.6673 18.25Z" fill="#55849D"/>
</svg>
