<svg width="1164" height="455" viewBox="0 0 1164 455" fill="none" xmlns="http://www.w3.org/2000/svg">
<rect x="8" y="8" width="1148" height="192" rx="16" fill="#D9D9D9"/>
<rect x="8" y="58" width="1148" height="142" rx="16" fill="#5EECF4"/>
<mask id="mask0_617_3996" style="mask-type:alpha" maskUnits="userSpaceOnUse" x="8" y="58" width="1148" height="142">
<rect x="8" y="58" width="1148" height="142" rx="16" fill="#ABF1BA"/>
</mask>
<g mask="url(#mask0_617_3996)">
<ellipse rx="29.9092" ry="33.9749" transform="matrix(-0.873072 -0.487592 0.5087 -0.860944 965.218 133.431)" fill="#077178"/>
<ellipse rx="16.8692" ry="19.1623" transform="matrix(0.770844 -0.637024 0.61807 0.786123 48.438 157.882)" fill="#077178"/>
<ellipse rx="7.80241" ry="8.9745" transform="matrix(-0.873072 -0.487592 0.5087 -0.860944 939.043 75.5052)" fill="#077178"/>
<ellipse rx="4.40067" ry="5.06174" transform="matrix(0.770844 -0.637024 0.61807 0.786123 84.2375 155.963)" fill="#077178"/>
<path fill-rule="evenodd" clip-rule="evenodd" d="M982.594 95.4242C1002.85 106.847 1009.82 132.056 998.141 151.817C986.502 171.516 960.723 178.386 940.398 167.278C937.891 170.164 935.614 173.309 933.61 176.701C915.6 207.181 926.416 246.084 957.768 263.594C982.794 277.57 1013.34 273.69 1033.81 256.052C1034.75 256.644 1035.72 257.217 1036.71 257.768C1068.06 275.278 1108.08 264.762 1126.09 234.282C1144.1 203.802 1133.28 164.898 1101.93 147.389L1101.88 147.364C1118.1 117.242 1107.06 79.788 1076.47 62.7034C1045.11 45.1942 1005.1 55.7094 987.089 86.1897C985.313 89.1955 983.818 92.2832 982.594 95.4242Z" fill="#077178"/>
<path fill-rule="evenodd" clip-rule="evenodd" d="M64.8651 174.785C54.7198 183.1 40.0446 181.608 32.043 171.431C24.067 161.286 25.7249 146.331 35.7184 137.917C34.7135 136.009 33.5257 134.169 32.1523 132.422C19.8106 116.725 -2.85055 114.459 -18.4629 127.361C-30.9253 137.66 -35.1291 154.511 -30.0406 168.875C-30.5457 169.251 -31.0443 169.643 -31.536 170.049C-47.1483 182.951 -49.7997 206.135 -37.458 221.833C-25.1164 237.53 -2.45521 239.796 13.1571 226.894L13.1793 226.876C25.7001 241.556 47.6448 243.408 62.8785 230.819C78.4908 217.917 81.1422 194.732 68.8005 179.035C67.5835 177.487 66.2662 176.07 64.8651 174.785Z" fill="#077178"/>
<path d="M175.261 129L168.602 105.727H173.977L177.83 121.898H178.023L182.273 105.727H186.875L191.114 121.932H191.318L195.17 105.727H200.545L193.886 129H189.091L184.659 113.784H184.477L180.057 129H175.261ZM209.168 129.341C207.372 129.341 205.827 128.977 204.531 128.25C203.243 127.515 202.251 126.477 201.554 125.136C200.857 123.788 200.509 122.193 200.509 120.352C200.509 118.557 200.857 116.981 201.554 115.625C202.251 114.269 203.232 113.212 204.497 112.455C205.77 111.697 207.262 111.318 208.974 111.318C210.126 111.318 211.198 111.504 212.19 111.875C213.19 112.239 214.062 112.788 214.804 113.523C215.554 114.258 216.137 115.182 216.554 116.295C216.971 117.402 217.179 118.697 217.179 120.182V121.511H202.44V118.511H212.622C212.622 117.814 212.471 117.197 212.168 116.659C211.865 116.121 211.444 115.701 210.906 115.398C210.376 115.087 209.759 114.932 209.054 114.932C208.319 114.932 207.668 115.102 207.099 115.443C206.539 115.777 206.099 116.227 205.781 116.795C205.463 117.356 205.3 117.981 205.293 118.67V121.523C205.293 122.386 205.452 123.133 205.77 123.761C206.096 124.39 206.554 124.875 207.145 125.216C207.736 125.557 208.437 125.727 209.247 125.727C209.785 125.727 210.277 125.652 210.724 125.5C211.171 125.348 211.554 125.121 211.872 124.818C212.19 124.515 212.433 124.144 212.599 123.705L217.077 124C216.849 125.076 216.384 126.015 215.679 126.818C214.982 127.614 214.08 128.235 212.974 128.682C211.876 129.121 210.607 129.341 209.168 129.341ZM225.179 105.727V129H220.338V105.727H225.179ZM233.898 105.727V129H229.057V105.727H233.898ZM253.523 129H245.273V105.727H253.591C255.932 105.727 257.947 106.193 259.636 107.125C261.326 108.049 262.625 109.379 263.534 111.114C264.451 112.848 264.909 114.924 264.909 117.341C264.909 119.765 264.451 121.848 263.534 123.591C262.625 125.333 261.318 126.67 259.614 127.602C257.917 128.534 255.886 129 253.523 129ZM250.193 124.784H253.318C254.773 124.784 255.996 124.527 256.989 124.011C257.989 123.489 258.739 122.682 259.239 121.591C259.746 120.492 260 119.076 260 117.341C260 115.621 259.746 114.216 259.239 113.125C258.739 112.034 257.992 111.231 257 110.716C256.008 110.201 254.784 109.943 253.33 109.943H250.193V124.784ZM276.349 129.341C274.584 129.341 273.058 128.966 271.77 128.216C270.49 127.458 269.501 126.405 268.804 125.057C268.107 123.701 267.759 122.129 267.759 120.341C267.759 118.538 268.107 116.962 268.804 115.614C269.501 114.258 270.49 113.205 271.77 112.455C273.058 111.697 274.584 111.318 276.349 111.318C278.115 111.318 279.637 111.697 280.918 112.455C282.205 113.205 283.198 114.258 283.895 115.614C284.592 116.962 284.94 118.538 284.94 120.341C284.94 122.129 284.592 123.701 283.895 125.057C283.198 126.405 282.205 127.458 280.918 128.216C279.637 128.966 278.115 129.341 276.349 129.341ZM276.372 125.591C277.175 125.591 277.846 125.364 278.384 124.909C278.921 124.447 279.327 123.818 279.599 123.023C279.88 122.227 280.02 121.322 280.02 120.307C280.02 119.292 279.88 118.386 279.599 117.591C279.327 116.795 278.921 116.167 278.384 115.705C277.846 115.242 277.175 115.011 276.372 115.011C275.562 115.011 274.88 115.242 274.327 115.705C273.781 116.167 273.368 116.795 273.088 117.591C272.815 118.386 272.679 119.292 272.679 120.307C272.679 121.322 272.815 122.227 273.088 123.023C273.368 123.818 273.781 124.447 274.327 124.909C274.88 125.364 275.562 125.591 276.372 125.591ZM292.929 118.909V129H288.088V111.545H292.702V114.625H292.906C293.293 113.61 293.94 112.807 294.849 112.216C295.759 111.617 296.861 111.318 298.156 111.318C299.368 111.318 300.425 111.583 301.327 112.114C302.228 112.644 302.929 113.402 303.429 114.386C303.929 115.364 304.179 116.53 304.179 117.886V129H299.338V118.75C299.346 117.682 299.073 116.848 298.52 116.25C297.967 115.644 297.205 115.341 296.236 115.341C295.584 115.341 295.009 115.481 294.509 115.761C294.016 116.042 293.63 116.451 293.349 116.989C293.077 117.519 292.937 118.159 292.929 118.909ZM315.949 129.341C314.153 129.341 312.608 128.977 311.312 128.25C310.025 127.515 309.032 126.477 308.335 125.136C307.638 123.788 307.29 122.193 307.29 120.352C307.29 118.557 307.638 116.981 308.335 115.625C309.032 114.269 310.013 113.212 311.278 112.455C312.551 111.697 314.044 111.318 315.756 111.318C316.907 111.318 317.979 111.504 318.972 111.875C319.972 112.239 320.843 112.788 321.585 113.523C322.335 114.258 322.919 115.182 323.335 116.295C323.752 117.402 323.96 118.697 323.96 120.182V121.511H309.222V118.511H319.403C319.403 117.814 319.252 117.197 318.949 116.659C318.646 116.121 318.225 115.701 317.688 115.398C317.157 115.087 316.54 114.932 315.835 114.932C315.1 114.932 314.449 115.102 313.881 115.443C313.32 115.777 312.881 116.227 312.562 116.795C312.244 117.356 312.081 117.981 312.074 118.67V121.523C312.074 122.386 312.233 123.133 312.551 123.761C312.877 124.39 313.335 124.875 313.926 125.216C314.517 125.557 315.218 125.727 316.028 125.727C316.566 125.727 317.059 125.652 317.506 125.5C317.953 125.348 318.335 125.121 318.653 124.818C318.972 124.515 319.214 124.144 319.381 123.705L323.858 124C323.631 125.076 323.165 126.015 322.46 126.818C321.763 127.614 320.862 128.235 319.756 128.682C318.657 129.121 317.388 129.341 315.949 129.341ZM332.903 105.727L332.46 122.023H328.301L327.847 105.727H332.903ZM330.381 129.295C329.631 129.295 328.987 129.03 328.449 128.5C327.911 127.962 327.646 127.318 327.653 126.568C327.646 125.826 327.911 125.189 328.449 124.659C328.987 124.129 329.631 123.864 330.381 123.864C331.1 123.864 331.733 124.129 332.278 124.659C332.824 125.189 333.1 125.826 333.108 126.568C333.1 127.068 332.968 127.527 332.71 127.943C332.46 128.352 332.131 128.682 331.722 128.932C331.312 129.174 330.866 129.295 330.381 129.295Z" fill="#041722"/>
<path d="M170.358 156H168.511L173.852 141.455H175.67L181.011 156H179.165L174.818 143.756H174.705L170.358 156ZM171.04 150.318H178.483V151.881H171.04V150.318ZM190.351 149.438V156H188.675V145.091H190.294V146.795H190.436C190.692 146.241 191.08 145.796 191.601 145.46C192.122 145.119 192.794 144.949 193.618 144.949C194.357 144.949 195.003 145.1 195.557 145.403C196.111 145.702 196.542 146.156 196.849 146.767C197.157 147.373 197.311 148.14 197.311 149.068V156H195.635V149.182C195.635 148.325 195.412 147.657 194.967 147.179C194.522 146.696 193.911 146.455 193.135 146.455C192.6 146.455 192.122 146.571 191.7 146.803C191.284 147.035 190.955 147.373 190.713 147.818C190.472 148.263 190.351 148.803 190.351 149.438ZM204.948 156.227C203.897 156.227 202.99 155.995 202.228 155.531C201.47 155.062 200.885 154.409 200.473 153.571C200.066 152.728 199.863 151.748 199.863 150.631C199.863 149.513 200.066 148.528 200.473 147.676C200.885 146.819 201.458 146.152 202.192 145.673C202.931 145.19 203.792 144.949 204.777 144.949C205.346 144.949 205.907 145.044 206.461 145.233C207.015 145.422 207.519 145.73 207.973 146.156C208.428 146.578 208.79 147.136 209.06 147.832C209.33 148.528 209.465 149.385 209.465 150.403V151.114H201.056V149.665H207.76C207.76 149.049 207.637 148.5 207.391 148.017C207.15 147.534 206.804 147.153 206.354 146.874C205.909 146.594 205.383 146.455 204.777 146.455C204.11 146.455 203.532 146.62 203.044 146.952C202.561 147.278 202.19 147.705 201.929 148.23C201.669 148.756 201.539 149.319 201.539 149.92V150.886C201.539 151.71 201.681 152.409 201.965 152.982C202.254 153.55 202.654 153.983 203.165 154.281C203.676 154.575 204.271 154.722 204.948 154.722C205.388 154.722 205.786 154.66 206.141 154.537C206.501 154.409 206.811 154.22 207.071 153.969C207.332 153.713 207.533 153.396 207.675 153.017L209.294 153.472C209.124 154.021 208.837 154.504 208.435 154.92C208.033 155.332 207.535 155.654 206.944 155.886C206.352 156.114 205.686 156.227 204.948 156.227ZM214.486 156L211.162 145.091H212.924L215.282 153.443H215.395L217.725 145.091H219.515L221.816 153.415H221.929L224.287 145.091H226.049L222.725 156H221.077L218.691 147.619H218.52L216.134 156H214.486ZM238.009 156.227C237.1 156.227 236.297 155.998 235.601 155.538C234.905 155.074 234.361 154.421 233.968 153.578C233.575 152.731 233.378 151.729 233.378 150.574C233.378 149.428 233.575 148.434 233.968 147.591C234.361 146.748 234.908 146.097 235.608 145.638C236.309 145.179 237.119 144.949 238.037 144.949C238.748 144.949 239.309 145.067 239.721 145.304C240.137 145.536 240.454 145.801 240.672 146.099C240.895 146.393 241.068 146.634 241.191 146.824H241.333V141.455H243.009V156H241.39V154.324H241.191C241.068 154.523 240.892 154.774 240.665 155.077C240.438 155.375 240.114 155.643 239.692 155.879C239.271 156.111 238.71 156.227 238.009 156.227ZM238.236 154.722C238.908 154.722 239.477 154.546 239.941 154.196C240.405 153.841 240.757 153.351 240.999 152.726C241.24 152.096 241.361 151.369 241.361 150.545C241.361 149.731 241.243 149.018 241.006 148.408C240.769 147.792 240.419 147.314 239.955 146.973C239.491 146.627 238.918 146.455 238.236 146.455C237.526 146.455 236.934 146.637 236.461 147.001C235.992 147.361 235.639 147.851 235.402 148.472C235.17 149.087 235.054 149.778 235.054 150.545C235.054 151.322 235.173 152.027 235.409 152.662C235.651 153.292 236.006 153.794 236.475 154.168C236.948 154.537 237.535 154.722 238.236 154.722ZM250.885 156.227C249.834 156.227 248.927 155.995 248.165 155.531C247.408 155.062 246.823 154.409 246.411 153.571C246.004 152.728 245.8 151.748 245.8 150.631C245.8 149.513 246.004 148.528 246.411 147.676C246.823 146.819 247.396 146.152 248.13 145.673C248.868 145.19 249.73 144.949 250.715 144.949C251.283 144.949 251.844 145.044 252.398 145.233C252.952 145.422 253.456 145.73 253.911 146.156C254.365 146.578 254.728 147.136 254.998 147.832C255.267 148.528 255.402 149.385 255.402 150.403V151.114H246.993V149.665H253.698C253.698 149.049 253.575 148.5 253.328 148.017C253.087 147.534 252.741 147.153 252.292 146.874C251.846 146.594 251.321 146.455 250.715 146.455C250.047 146.455 249.47 146.62 248.982 146.952C248.499 147.278 248.127 147.705 247.867 148.23C247.606 148.756 247.476 149.319 247.476 149.92V150.886C247.476 151.71 247.618 152.409 247.902 152.982C248.191 153.55 248.591 153.983 249.103 154.281C249.614 154.575 250.208 154.722 250.885 154.722C251.326 154.722 251.723 154.66 252.078 154.537C252.438 154.409 252.748 154.22 253.009 153.969C253.269 153.713 253.471 153.396 253.613 153.017L255.232 153.472C255.061 154.021 254.775 154.504 254.373 154.92C253.97 155.332 253.473 155.654 252.881 155.886C252.289 156.114 251.624 156.227 250.885 156.227ZM258.179 156V141.455H259.855V146.824H259.998C260.121 146.634 260.291 146.393 260.509 146.099C260.731 145.801 261.049 145.536 261.461 145.304C261.877 145.067 262.441 144.949 263.151 144.949C264.069 144.949 264.879 145.179 265.58 145.638C266.281 146.097 266.828 146.748 267.221 147.591C267.614 148.434 267.81 149.428 267.81 150.574C267.81 151.729 267.614 152.731 267.221 153.578C266.828 154.421 266.283 155.074 265.587 155.538C264.891 155.998 264.088 156.227 263.179 156.227C262.479 156.227 261.917 156.111 261.496 155.879C261.075 155.643 260.75 155.375 260.523 155.077C260.296 154.774 260.121 154.523 259.998 154.324H259.799V156H258.179ZM259.827 150.545C259.827 151.369 259.948 152.096 260.189 152.726C260.431 153.351 260.783 153.841 261.248 154.196C261.712 154.546 262.28 154.722 262.952 154.722C263.653 154.722 264.238 154.537 264.706 154.168C265.18 153.794 265.535 153.292 265.772 152.662C266.013 152.027 266.134 151.322 266.134 150.545C266.134 149.778 266.016 149.087 265.779 148.472C265.547 147.851 265.194 147.361 264.721 147.001C264.252 146.637 263.662 146.455 262.952 146.455C262.27 146.455 261.697 146.627 261.233 146.973C260.769 147.314 260.419 147.792 260.182 148.408C259.945 149.018 259.827 149.731 259.827 150.545ZM275.118 145.091V146.511H269.465V145.091H275.118ZM271.113 142.477H272.789V152.875C272.789 153.348 272.857 153.704 272.995 153.94C273.137 154.172 273.317 154.329 273.534 154.409C273.757 154.485 273.991 154.523 274.238 154.523C274.422 154.523 274.574 154.513 274.692 154.494C274.81 154.471 274.905 154.452 274.976 154.438L275.317 155.943C275.203 155.986 275.045 156.028 274.841 156.071C274.638 156.118 274.38 156.142 274.067 156.142C273.594 156.142 273.13 156.04 272.675 155.837C272.225 155.633 271.851 155.323 271.553 154.906C271.259 154.49 271.113 153.964 271.113 153.33V142.477ZM281.954 156.227C280.969 156.227 280.105 155.993 279.362 155.524C278.623 155.055 278.046 154.4 277.629 153.557C277.217 152.714 277.011 151.729 277.011 150.602C277.011 149.466 277.217 148.474 277.629 147.626C278.046 146.779 278.623 146.121 279.362 145.652C280.105 145.183 280.969 144.949 281.954 144.949C282.939 144.949 283.801 145.183 284.539 145.652C285.283 146.121 285.86 146.779 286.272 147.626C286.689 148.474 286.897 149.466 286.897 150.602C286.897 151.729 286.689 152.714 286.272 153.557C285.86 154.4 285.283 155.055 284.539 155.524C283.801 155.993 282.939 156.227 281.954 156.227ZM281.954 154.722C282.702 154.722 283.318 154.53 283.801 154.146C284.284 153.763 284.641 153.259 284.873 152.634C285.105 152.009 285.221 151.331 285.221 150.602C285.221 149.873 285.105 149.194 284.873 148.564C284.641 147.934 284.284 147.425 283.801 147.037C283.318 146.649 282.702 146.455 281.954 146.455C281.206 146.455 280.591 146.649 280.108 147.037C279.625 147.425 279.267 147.934 279.035 148.564C278.803 149.194 278.687 149.873 278.687 150.602C278.687 151.331 278.803 152.009 279.035 152.634C279.267 153.259 279.625 153.763 280.108 154.146C280.591 154.53 281.206 154.722 281.954 154.722ZM289.456 156V145.091H291.075V146.739H291.189C291.388 146.199 291.748 145.761 292.268 145.425C292.789 145.089 293.376 144.92 294.03 144.92C294.153 144.92 294.307 144.923 294.491 144.928C294.676 144.932 294.816 144.939 294.911 144.949V146.653C294.854 146.639 294.723 146.618 294.52 146.589C294.321 146.556 294.11 146.54 293.888 146.54C293.357 146.54 292.884 146.651 292.467 146.874C292.055 147.091 291.729 147.394 291.487 147.783C291.25 148.166 291.132 148.604 291.132 149.097V156H289.456ZM304.199 149.438V156H302.522V141.455H304.199V146.795H304.341C304.596 146.232 304.98 145.785 305.491 145.453C306.007 145.117 306.694 144.949 307.551 144.949C308.294 144.949 308.945 145.098 309.504 145.396C310.063 145.69 310.496 146.142 310.804 146.753C311.116 147.359 311.272 148.131 311.272 149.068V156H309.596V149.182C309.596 148.315 309.371 147.645 308.922 147.172C308.476 146.694 307.859 146.455 307.068 146.455C306.519 146.455 306.026 146.571 305.591 146.803C305.16 147.035 304.819 147.373 304.568 147.818C304.322 148.263 304.199 148.803 304.199 149.438ZM317.549 156.256C316.858 156.256 316.23 156.125 315.667 155.865C315.103 155.6 314.656 155.219 314.325 154.722C313.993 154.22 313.827 153.614 313.827 152.903C313.827 152.278 313.951 151.772 314.197 151.384C314.443 150.991 314.772 150.683 315.184 150.46C315.596 150.238 316.05 150.072 316.548 149.963C317.049 149.849 317.554 149.759 318.06 149.693C318.723 149.608 319.261 149.544 319.673 149.501C320.089 149.454 320.392 149.376 320.582 149.267C320.776 149.158 320.873 148.969 320.873 148.699V148.642C320.873 147.941 320.681 147.397 320.298 147.009C319.919 146.62 319.344 146.426 318.572 146.426C317.772 146.426 317.144 146.601 316.69 146.952C316.235 147.302 315.915 147.676 315.731 148.074L314.14 147.506C314.424 146.843 314.803 146.327 315.276 145.957C315.754 145.583 316.275 145.323 316.839 145.176C317.407 145.025 317.966 144.949 318.515 144.949C318.865 144.949 319.268 144.991 319.722 145.077C320.182 145.157 320.624 145.325 321.05 145.581C321.481 145.837 321.839 146.223 322.123 146.739C322.407 147.255 322.549 147.946 322.549 148.812V156H320.873V154.523H320.788C320.674 154.759 320.485 155.013 320.219 155.283C319.954 155.553 319.602 155.782 319.161 155.972C318.721 156.161 318.183 156.256 317.549 156.256ZM317.805 154.75C318.468 154.75 319.026 154.62 319.481 154.359C319.94 154.099 320.286 153.763 320.518 153.351C320.754 152.939 320.873 152.506 320.873 152.051V150.517C320.802 150.602 320.646 150.68 320.404 150.751C320.167 150.818 319.893 150.877 319.58 150.929C319.272 150.976 318.972 151.019 318.678 151.057C318.389 151.09 318.155 151.118 317.975 151.142C317.54 151.199 317.132 151.291 316.754 151.419C316.379 151.542 316.076 151.729 315.844 151.98C315.617 152.226 315.504 152.562 315.504 152.989C315.504 153.571 315.719 154.011 316.15 154.31C316.585 154.603 317.137 154.75 317.805 154.75ZM333.336 147.534L331.83 147.96C331.735 147.709 331.596 147.465 331.411 147.229C331.231 146.987 330.985 146.788 330.672 146.632C330.36 146.476 329.96 146.398 329.472 146.398C328.804 146.398 328.248 146.552 327.803 146.859C327.363 147.162 327.142 147.548 327.142 148.017C327.142 148.434 327.294 148.763 327.597 149.004C327.9 149.246 328.373 149.447 329.017 149.608L330.637 150.006C331.612 150.242 332.339 150.605 332.817 151.092C333.295 151.575 333.534 152.198 333.534 152.96C333.534 153.585 333.355 154.144 332.995 154.636C332.64 155.129 332.142 155.517 331.503 155.801C330.864 156.085 330.121 156.227 329.273 156.227C328.16 156.227 327.239 155.986 326.51 155.503C325.781 155.02 325.319 154.314 325.125 153.386L326.716 152.989C326.868 153.576 327.154 154.016 327.576 154.31C328.002 154.603 328.558 154.75 329.245 154.75C330.026 154.75 330.646 154.584 331.105 154.253C331.569 153.917 331.801 153.514 331.801 153.045C331.801 152.667 331.669 152.349 331.404 152.094C331.139 151.833 330.731 151.639 330.182 151.511L328.364 151.085C327.365 150.848 326.631 150.482 326.162 149.984C325.698 149.482 325.466 148.855 325.466 148.102C325.466 147.487 325.639 146.942 325.985 146.469C326.335 145.995 326.811 145.624 327.412 145.354C328.018 145.084 328.705 144.949 329.472 144.949C330.551 144.949 331.399 145.186 332.015 145.659C332.635 146.133 333.075 146.758 333.336 147.534ZM341.91 156V141.455H343.586V146.824H343.728C343.851 146.634 344.022 146.393 344.239 146.099C344.462 145.801 344.779 145.536 345.191 145.304C345.608 145.067 346.171 144.949 346.881 144.949C347.8 144.949 348.61 145.179 349.31 145.638C350.011 146.097 350.558 146.748 350.951 147.591C351.344 148.434 351.54 149.428 351.54 150.574C351.54 151.729 351.344 152.731 350.951 153.578C350.558 154.421 350.013 155.074 349.317 155.538C348.621 155.998 347.819 156.227 346.91 156.227C346.209 156.227 345.648 156.111 345.227 155.879C344.805 155.643 344.481 155.375 344.254 155.077C344.026 154.774 343.851 154.523 343.728 154.324H343.529V156H341.91ZM343.558 150.545C343.558 151.369 343.678 152.096 343.92 152.726C344.161 153.351 344.514 153.841 344.978 154.196C345.442 154.546 346.01 154.722 346.683 154.722C347.383 154.722 347.968 154.537 348.437 154.168C348.91 153.794 349.265 153.292 349.502 152.662C349.744 152.027 349.864 151.322 349.864 150.545C349.864 149.778 349.746 149.087 349.509 148.472C349.277 147.851 348.924 147.361 348.451 147.001C347.982 146.637 347.393 146.455 346.683 146.455C346.001 146.455 345.428 146.627 344.964 146.973C344.5 147.314 344.149 147.792 343.913 148.408C343.676 149.018 343.558 149.731 343.558 150.545ZM358.678 156.227C357.627 156.227 356.72 155.995 355.958 155.531C355.201 155.062 354.616 154.409 354.204 153.571C353.797 152.728 353.593 151.748 353.593 150.631C353.593 149.513 353.797 148.528 354.204 147.676C354.616 146.819 355.189 146.152 355.923 145.673C356.661 145.19 357.523 144.949 358.508 144.949C359.076 144.949 359.637 145.044 360.191 145.233C360.745 145.422 361.249 145.73 361.704 146.156C362.158 146.578 362.521 147.136 362.79 147.832C363.06 148.528 363.195 149.385 363.195 150.403V151.114H354.786V149.665H361.491C361.491 149.049 361.368 148.5 361.121 148.017C360.88 147.534 360.534 147.153 360.085 146.874C359.639 146.594 359.114 146.455 358.508 146.455C357.84 146.455 357.263 146.62 356.775 146.952C356.292 147.278 355.92 147.705 355.66 148.23C355.399 148.756 355.269 149.319 355.269 149.92V150.886C355.269 151.71 355.411 152.409 355.695 152.982C355.984 153.55 356.384 153.983 356.896 154.281C357.407 154.575 358.001 154.722 358.678 154.722C359.119 154.722 359.516 154.66 359.871 154.537C360.231 154.409 360.541 154.22 360.802 153.969C361.062 153.713 361.263 153.396 361.406 153.017L363.025 153.472C362.854 154.021 362.568 154.504 362.165 154.92C361.763 155.332 361.266 155.654 360.674 155.886C360.082 156.114 359.417 156.227 358.678 156.227ZM370.319 156.227C369.268 156.227 368.361 155.995 367.599 155.531C366.841 155.062 366.256 154.409 365.844 153.571C365.437 152.728 365.234 151.748 365.234 150.631C365.234 149.513 365.437 148.528 365.844 147.676C366.256 146.819 366.829 146.152 367.563 145.673C368.302 145.19 369.164 144.949 370.148 144.949C370.717 144.949 371.278 145.044 371.832 145.233C372.386 145.422 372.89 145.73 373.344 146.156C373.799 146.578 374.161 147.136 374.431 147.832C374.701 148.528 374.836 149.385 374.836 150.403V151.114H366.427V149.665H373.131C373.131 149.049 373.008 148.5 372.762 148.017C372.521 147.534 372.175 147.153 371.725 146.874C371.28 146.594 370.754 146.455 370.148 146.455C369.481 146.455 368.903 146.62 368.415 146.952C367.933 147.278 367.561 147.705 367.3 148.23C367.04 148.756 366.91 149.319 366.91 149.92V150.886C366.91 151.71 367.052 152.409 367.336 152.982C367.625 153.55 368.025 153.983 368.536 154.281C369.048 154.575 369.642 154.722 370.319 154.722C370.759 154.722 371.157 154.66 371.512 154.537C371.872 154.409 372.182 154.22 372.442 153.969C372.703 153.713 372.904 153.396 373.046 153.017L374.665 153.472C374.495 154.021 374.209 154.504 373.806 154.92C373.404 155.332 372.906 155.654 372.315 155.886C371.723 156.114 371.058 156.227 370.319 156.227ZM379.062 149.438V156H377.386V145.091H379.005V146.795H379.147C379.403 146.241 379.791 145.796 380.312 145.46C380.833 145.119 381.505 144.949 382.329 144.949C383.067 144.949 383.714 145.1 384.268 145.403C384.822 145.702 385.253 146.156 385.56 146.767C385.868 147.373 386.022 148.14 386.022 149.068V156H384.346V149.182C384.346 148.325 384.123 147.657 383.678 147.179C383.233 146.696 382.622 146.455 381.846 146.455C381.311 146.455 380.833 146.571 380.411 146.803C379.995 147.035 379.665 147.373 379.424 147.818C379.183 148.263 379.062 148.803 379.062 149.438ZM397.92 156.256C397.229 156.256 396.601 156.125 396.038 155.865C395.475 155.6 395.027 155.219 394.696 154.722C394.364 154.22 394.199 153.614 394.199 152.903C394.199 152.278 394.322 151.772 394.568 151.384C394.814 150.991 395.143 150.683 395.555 150.46C395.967 150.238 396.422 150.072 396.919 149.963C397.421 149.849 397.925 149.759 398.431 149.693C399.094 149.608 399.632 149.544 400.044 149.501C400.46 149.454 400.763 149.376 400.953 149.267C401.147 149.158 401.244 148.969 401.244 148.699V148.642C401.244 147.941 401.052 147.397 400.669 147.009C400.29 146.62 399.715 146.426 398.943 146.426C398.143 146.426 397.515 146.601 397.061 146.952C396.606 147.302 396.287 147.676 396.102 148.074L394.511 147.506C394.795 146.843 395.174 146.327 395.647 145.957C396.126 145.583 396.646 145.323 397.21 145.176C397.778 145.025 398.337 144.949 398.886 144.949C399.236 144.949 399.639 144.991 400.093 145.077C400.553 145.157 400.995 145.325 401.422 145.581C401.852 145.837 402.21 146.223 402.494 146.739C402.778 147.255 402.92 147.946 402.92 148.812V156H401.244V154.523H401.159C401.045 154.759 400.856 155.013 400.591 155.283C400.325 155.553 399.973 155.782 399.532 155.972C399.092 156.161 398.555 156.256 397.92 156.256ZM398.176 154.75C398.839 154.75 399.397 154.62 399.852 154.359C400.311 154.099 400.657 153.763 400.889 153.351C401.126 152.939 401.244 152.506 401.244 152.051V150.517C401.173 150.602 401.017 150.68 400.775 150.751C400.538 150.818 400.264 150.877 399.951 150.929C399.644 150.976 399.343 151.019 399.049 151.057C398.761 151.09 398.526 151.118 398.346 151.142C397.911 151.199 397.503 151.291 397.125 151.419C396.751 151.542 396.448 151.729 396.216 151.98C395.988 152.226 395.875 152.562 395.875 152.989C395.875 153.571 396.09 154.011 396.521 154.31C396.957 154.603 397.508 154.75 398.176 154.75ZM410.099 156.227C409.19 156.227 408.387 155.998 407.691 155.538C406.995 155.074 406.451 154.421 406.058 153.578C405.665 152.731 405.468 151.729 405.468 150.574C405.468 149.428 405.665 148.434 406.058 147.591C406.451 146.748 406.997 146.097 407.698 145.638C408.399 145.179 409.209 144.949 410.127 144.949C410.837 144.949 411.398 145.067 411.81 145.304C412.227 145.536 412.544 145.801 412.762 146.099C412.985 146.393 413.157 146.634 413.281 146.824H413.423V141.455H415.099V156H413.479V154.324H413.281C413.157 154.523 412.982 154.774 412.755 155.077C412.528 155.375 412.203 155.643 411.782 155.879C411.361 156.111 410.799 156.227 410.099 156.227ZM410.326 154.722C410.998 154.722 411.567 154.546 412.031 154.196C412.495 153.841 412.847 153.351 413.089 152.726C413.33 152.096 413.451 151.369 413.451 150.545C413.451 149.731 413.333 149.018 413.096 148.408C412.859 147.792 412.509 147.314 412.045 146.973C411.581 146.627 411.008 146.455 410.326 146.455C409.616 146.455 409.024 146.637 408.55 147.001C408.082 147.361 407.729 147.851 407.492 148.472C407.26 149.087 407.144 149.778 407.144 150.545C407.144 151.322 407.263 152.027 407.499 152.662C407.741 153.292 408.096 153.794 408.565 154.168C409.038 154.537 409.625 154.722 410.326 154.722ZM422.521 156.227C421.612 156.227 420.809 155.998 420.113 155.538C419.417 155.074 418.872 154.421 418.479 153.578C418.086 152.731 417.89 151.729 417.89 150.574C417.89 149.428 418.086 148.434 418.479 147.591C418.872 146.748 419.419 146.097 420.12 145.638C420.821 145.179 421.63 144.949 422.549 144.949C423.259 144.949 423.82 145.067 424.232 145.304C424.649 145.536 424.966 145.801 425.184 146.099C425.406 146.393 425.579 146.634 425.702 146.824H425.844V141.455H427.521V156H425.901V154.324H425.702C425.579 154.523 425.404 154.774 425.177 155.077C424.95 155.375 424.625 155.643 424.204 155.879C423.782 156.111 423.221 156.227 422.521 156.227ZM422.748 154.722C423.42 154.722 423.988 154.546 424.452 154.196C424.916 153.841 425.269 153.351 425.511 152.726C425.752 152.096 425.873 151.369 425.873 150.545C425.873 149.731 425.754 149.018 425.518 148.408C425.281 147.792 424.931 147.314 424.467 146.973C424.003 146.627 423.43 146.455 422.748 146.455C422.038 146.455 421.446 146.637 420.972 147.001C420.504 147.361 420.151 147.851 419.914 148.472C419.682 149.087 419.566 149.778 419.566 150.545C419.566 151.322 419.684 152.027 419.921 152.662C420.163 153.292 420.518 153.794 420.987 154.168C421.46 154.537 422.047 154.722 422.748 154.722ZM435.397 156.227C434.346 156.227 433.439 155.995 432.677 155.531C431.919 155.062 431.335 154.409 430.923 153.571C430.515 152.728 430.312 151.748 430.312 150.631C430.312 149.513 430.515 148.528 430.923 147.676C431.335 146.819 431.907 146.152 432.641 145.673C433.38 145.19 434.242 144.949 435.227 144.949C435.795 144.949 436.356 145.044 436.91 145.233C437.464 145.422 437.968 145.73 438.423 146.156C438.877 146.578 439.239 147.136 439.509 147.832C439.779 148.528 439.914 149.385 439.914 150.403V151.114H431.505V149.665H438.21C438.21 149.049 438.086 148.5 437.84 148.017C437.599 147.534 437.253 147.153 436.803 146.874C436.358 146.594 435.833 146.455 435.227 146.455C434.559 146.455 433.981 146.62 433.494 146.952C433.011 147.278 432.639 147.705 432.379 148.23C432.118 148.756 431.988 149.319 431.988 149.92V150.886C431.988 151.71 432.13 152.409 432.414 152.982C432.703 153.55 433.103 153.983 433.614 154.281C434.126 154.575 434.72 154.722 435.397 154.722C435.837 154.722 436.235 154.66 436.59 154.537C436.95 154.409 437.26 154.22 437.521 153.969C437.781 153.713 437.982 153.396 438.124 153.017L439.744 153.472C439.573 154.021 439.287 154.504 438.884 154.92C438.482 155.332 437.985 155.654 437.393 155.886C436.801 156.114 436.136 156.227 435.397 156.227ZM446.583 156.227C445.674 156.227 444.871 155.998 444.175 155.538C443.479 155.074 442.935 154.421 442.542 153.578C442.149 152.731 441.952 151.729 441.952 150.574C441.952 149.428 442.149 148.434 442.542 147.591C442.935 146.748 443.482 146.097 444.183 145.638C444.883 145.179 445.693 144.949 446.612 144.949C447.322 144.949 447.883 145.067 448.295 145.304C448.711 145.536 449.029 145.801 449.246 146.099C449.469 146.393 449.642 146.634 449.765 146.824H449.907V141.455H451.583V156H449.964V154.324H449.765C449.642 154.523 449.467 154.774 449.239 155.077C449.012 155.375 448.688 155.643 448.266 155.879C447.845 156.111 447.284 156.227 446.583 156.227ZM446.81 154.722C447.483 154.722 448.051 154.546 448.515 154.196C448.979 153.841 449.332 153.351 449.573 152.726C449.815 152.096 449.935 151.369 449.935 150.545C449.935 149.731 449.817 149.018 449.58 148.408C449.344 147.792 448.993 147.314 448.529 146.973C448.065 146.627 447.492 146.455 446.81 146.455C446.1 146.455 445.508 146.637 445.035 147.001C444.566 147.361 444.213 147.851 443.977 148.472C443.745 149.087 443.629 149.778 443.629 150.545C443.629 151.322 443.747 152.027 443.984 152.662C444.225 153.292 444.58 153.794 445.049 154.168C445.522 154.537 446.11 154.722 446.81 154.722Z" fill="#041722"/>
</g>
<circle cx="84" cy="58" r="50" fill="#0EE2EF"/>
<path d="M83.5 22.0625C63.9303 22.0625 48.0625 37.9303 48.0625 57.5C48.0625 77.0697 63.9303 92.9375 83.5 92.9375C103.07 92.9375 118.938 77.0697 118.938 57.5C118.938 37.9303 103.07 22.0625 83.5 22.0625ZM98.8062 45.9274L82.1474 69.0251C81.9145 69.3501 81.6076 69.6149 81.252 69.7975C80.8964 69.9802 80.5024 70.0755 80.1026 70.0755C79.7028 70.0755 79.3088 69.9802 78.9532 69.7975C78.5976 69.6149 78.2906 69.3501 78.0578 69.0251L68.1938 55.3563C67.8933 54.9371 68.1938 54.3518 68.708 54.3518H72.4179C73.2247 54.3518 73.992 54.7394 74.4666 55.4038L80.0986 63.219L92.5334 45.9749C93.008 45.3184 93.7674 44.9229 94.5821 44.9229H98.292C98.8062 44.9229 99.1067 45.5082 98.8062 45.9274V45.9274Z" fill="#D9D9D9"/>
<rect x="8" y="248" width="1148" height="192" rx="16" fill="#D9D9D9"/>
<rect x="8" y="298" width="1148" height="142" rx="16" fill="#DE8C8C"/>
<mask id="mask1_617_3996" style="mask-type:alpha" maskUnits="userSpaceOnUse" x="8" y="298" width="1148" height="142">
<rect x="8" y="298" width="1148" height="142" rx="16" fill="#ABF1BA"/>
</mask>
<g mask="url(#mask1_617_3996)">
<ellipse rx="29.9092" ry="33.9749" transform="matrix(-0.873072 -0.487592 0.5087 -0.860944 965.218 373.431)" fill="#885252"/>
<ellipse rx="16.8692" ry="19.1623" transform="matrix(0.770844 -0.637024 0.61807 0.786123 48.438 397.882)" fill="#885252"/>
<ellipse rx="7.80241" ry="8.9745" transform="matrix(-0.873072 -0.487592 0.5087 -0.860944 939.043 315.505)" fill="#885252"/>
<ellipse rx="4.40067" ry="5.06174" transform="matrix(0.770844 -0.637024 0.61807 0.786123 84.2375 395.963)" fill="#885252"/>
<path fill-rule="evenodd" clip-rule="evenodd" d="M982.594 335.424C1002.85 346.847 1009.82 372.056 998.141 391.817C986.502 411.516 960.723 418.386 940.398 407.278C937.891 410.164 935.614 413.309 933.61 416.701C915.6 447.181 926.416 486.084 957.768 503.594C982.794 517.57 1013.34 513.69 1033.81 496.052C1034.75 496.644 1035.72 497.217 1036.71 497.768C1068.06 515.278 1108.08 504.762 1126.09 474.282C1144.1 443.802 1133.28 404.898 1101.93 387.389L1101.88 387.364C1118.1 357.242 1107.06 319.788 1076.47 302.703C1045.11 285.194 1005.1 295.709 987.089 326.19C985.313 329.195 983.818 332.283 982.594 335.424Z" fill="#885252"/>
<path fill-rule="evenodd" clip-rule="evenodd" d="M64.8651 414.785C54.7198 423.1 40.0446 421.608 32.043 411.431C24.067 401.286 25.7249 386.331 35.7184 377.917C34.7135 376.009 33.5257 374.169 32.1523 372.422C19.8106 356.725 -2.85055 354.459 -18.4629 367.361C-30.9253 377.66 -35.1291 394.511 -30.0406 408.875C-30.5457 409.251 -31.0443 409.643 -31.536 410.049C-47.1483 422.951 -49.7997 446.135 -37.458 461.833C-25.1164 477.53 -2.45521 479.796 13.1571 466.894L13.1793 466.876C25.7001 481.556 47.6448 483.408 62.8785 470.819C78.4908 457.917 81.1422 434.732 68.8005 419.035C67.5835 417.487 66.2662 416.07 64.8651 414.785Z" fill="#885252"/>
<path d="M182.648 352.42C182.557 351.504 182.167 350.792 181.477 350.284C180.788 349.777 179.852 349.523 178.67 349.523C177.867 349.523 177.189 349.636 176.636 349.864C176.083 350.083 175.659 350.39 175.364 350.784C175.076 351.178 174.932 351.625 174.932 352.125C174.917 352.542 175.004 352.905 175.193 353.216C175.39 353.527 175.659 353.795 176 354.023C176.341 354.242 176.735 354.436 177.182 354.602C177.629 354.761 178.106 354.898 178.614 355.011L180.705 355.511C181.72 355.739 182.652 356.042 183.5 356.42C184.348 356.799 185.083 357.265 185.705 357.818C186.326 358.371 186.807 359.023 187.148 359.773C187.496 360.523 187.674 361.383 187.682 362.352C187.674 363.777 187.311 365.011 186.591 366.057C185.879 367.095 184.848 367.902 183.5 368.477C182.159 369.045 180.542 369.33 178.648 369.33C176.769 369.33 175.133 369.042 173.739 368.466C172.352 367.89 171.269 367.038 170.489 365.909C169.716 364.773 169.311 363.367 169.273 361.693H174.034C174.087 362.473 174.311 363.125 174.705 363.648C175.106 364.163 175.64 364.553 176.307 364.818C176.981 365.076 177.742 365.205 178.591 365.205C179.424 365.205 180.148 365.083 180.761 364.841C181.383 364.598 181.864 364.261 182.205 363.83C182.545 363.398 182.716 362.902 182.716 362.341C182.716 361.818 182.561 361.379 182.25 361.023C181.947 360.667 181.5 360.364 180.909 360.114C180.326 359.864 179.61 359.636 178.761 359.432L176.227 358.795C174.265 358.318 172.716 357.572 171.58 356.557C170.443 355.542 169.879 354.174 169.886 352.455C169.879 351.045 170.254 349.814 171.011 348.761C171.777 347.708 172.826 346.886 174.159 346.295C175.492 345.705 177.008 345.409 178.705 345.409C180.432 345.409 181.939 345.705 183.227 346.295C184.523 346.886 185.53 347.708 186.25 348.761C186.97 349.814 187.341 351.034 187.364 352.42H182.648ZM198.787 369.341C197.022 369.341 195.495 368.966 194.207 368.216C192.927 367.458 191.938 366.405 191.241 365.057C190.545 363.701 190.196 362.129 190.196 360.341C190.196 358.538 190.545 356.962 191.241 355.614C191.938 354.258 192.927 353.205 194.207 352.455C195.495 351.697 197.022 351.318 198.787 351.318C200.552 351.318 202.075 351.697 203.355 352.455C204.643 353.205 205.635 354.258 206.332 355.614C207.029 356.962 207.378 358.538 207.378 360.341C207.378 362.129 207.029 363.701 206.332 365.057C205.635 366.405 204.643 367.458 203.355 368.216C202.075 368.966 200.552 369.341 198.787 369.341ZM198.81 365.591C199.613 365.591 200.283 365.364 200.821 364.909C201.359 364.447 201.764 363.818 202.037 363.023C202.317 362.227 202.457 361.322 202.457 360.307C202.457 359.292 202.317 358.386 202.037 357.591C201.764 356.795 201.359 356.167 200.821 355.705C200.283 355.242 199.613 355.011 198.81 355.011C197.999 355.011 197.317 355.242 196.764 355.705C196.219 356.167 195.806 356.795 195.526 357.591C195.253 358.386 195.116 359.292 195.116 360.307C195.116 361.322 195.253 362.227 195.526 363.023C195.806 363.818 196.219 364.447 196.764 364.909C197.317 365.364 197.999 365.591 198.81 365.591ZM210.526 369V351.545H215.219V354.591H215.401C215.719 353.508 216.253 352.689 217.003 352.136C217.753 351.576 218.616 351.295 219.594 351.295C219.836 351.295 220.098 351.311 220.378 351.341C220.658 351.371 220.904 351.413 221.116 351.466V355.761C220.889 355.693 220.575 355.633 220.173 355.58C219.772 355.527 219.404 355.5 219.071 355.5C218.359 355.5 217.723 355.655 217.162 355.966C216.609 356.269 216.17 356.693 215.844 357.239C215.526 357.784 215.366 358.413 215.366 359.125V369H210.526ZM223.619 369V351.545H228.312V354.591H228.494C228.813 353.508 229.347 352.689 230.097 352.136C230.847 351.576 231.71 351.295 232.688 351.295C232.93 351.295 233.191 351.311 233.472 351.341C233.752 351.371 233.998 351.413 234.21 351.466V355.761C233.983 355.693 233.669 355.633 233.267 355.58C232.866 355.527 232.498 355.5 232.165 355.5C231.453 355.5 230.816 355.655 230.256 355.966C229.703 356.269 229.263 356.693 228.938 357.239C228.619 357.784 228.46 358.413 228.46 359.125V369H223.619ZM240.233 375.545C239.619 375.545 239.044 375.496 238.506 375.398C237.975 375.307 237.536 375.189 237.188 375.045L238.278 371.432C238.847 371.606 239.358 371.701 239.812 371.716C240.275 371.731 240.672 371.625 241.006 371.398C241.347 371.17 241.623 370.784 241.835 370.239L242.119 369.5L235.858 351.545H240.949L244.562 364.364H244.744L248.392 351.545H253.517L246.733 370.886C246.407 371.826 245.964 372.644 245.403 373.341C244.85 374.045 244.15 374.587 243.301 374.966C242.453 375.352 241.43 375.545 240.233 375.545ZM261.778 345.727L261.335 362.023H257.176L256.722 345.727H261.778ZM259.256 369.295C258.506 369.295 257.862 369.03 257.324 368.5C256.786 367.962 256.521 367.318 256.528 366.568C256.521 365.826 256.786 365.189 257.324 364.659C257.862 364.129 258.506 363.864 259.256 363.864C259.975 363.864 260.608 364.129 261.153 364.659C261.699 365.189 261.975 365.826 261.983 366.568C261.975 367.068 261.843 367.527 261.585 367.943C261.335 368.352 261.006 368.682 260.597 368.932C260.188 369.174 259.741 369.295 259.256 369.295Z" fill="#2A272F"/>
<path d="M168.966 383.017V381.455H179.875V383.017H175.301V396H173.54V383.017H168.966ZM184.042 389.438V396H182.366V381.455H184.042V386.795H184.184C184.44 386.232 184.824 385.785 185.335 385.453C185.851 385.117 186.538 384.949 187.395 384.949C188.138 384.949 188.789 385.098 189.348 385.396C189.906 385.69 190.34 386.142 190.647 386.753C190.96 387.359 191.116 388.131 191.116 389.068V396H189.44V389.182C189.44 388.315 189.215 387.645 188.765 387.172C188.32 386.694 187.702 386.455 186.912 386.455C186.362 386.455 185.87 386.571 185.434 386.803C185.003 387.035 184.663 387.373 184.412 387.818C184.165 388.263 184.042 388.803 184.042 389.438ZM198.756 396.227C197.705 396.227 196.799 395.995 196.036 395.531C195.279 395.062 194.694 394.409 194.282 393.571C193.875 392.728 193.671 391.748 193.671 390.631C193.671 389.513 193.875 388.528 194.282 387.676C194.694 386.819 195.267 386.152 196.001 385.673C196.739 385.19 197.601 384.949 198.586 384.949C199.154 384.949 199.715 385.044 200.269 385.233C200.823 385.422 201.327 385.73 201.782 386.156C202.237 386.578 202.599 387.136 202.869 387.832C203.138 388.528 203.273 389.385 203.273 390.403V391.114H194.864V389.665H201.569C201.569 389.049 201.446 388.5 201.2 388.017C200.958 387.534 200.612 387.153 200.163 386.874C199.718 386.594 199.192 386.455 198.586 386.455C197.918 386.455 197.341 386.62 196.853 386.952C196.37 387.278 195.998 387.705 195.738 388.23C195.478 388.756 195.347 389.319 195.347 389.92V390.886C195.347 391.71 195.489 392.409 195.773 392.982C196.062 393.55 196.462 393.983 196.974 394.281C197.485 394.575 198.079 394.722 198.756 394.722C199.197 394.722 199.594 394.66 199.95 394.537C200.309 394.409 200.62 394.22 200.88 393.969C201.14 393.713 201.342 393.396 201.484 393.017L203.103 393.472C202.933 394.021 202.646 394.504 202.244 394.92C201.841 395.332 201.344 395.654 200.752 395.886C200.16 396.114 199.495 396.227 198.756 396.227ZM215.567 396.227C214.658 396.227 213.856 395.998 213.16 395.538C212.464 395.074 211.919 394.421 211.526 393.578C211.133 392.731 210.937 391.729 210.937 390.574C210.937 389.428 211.133 388.434 211.526 387.591C211.919 386.748 212.466 386.097 213.167 385.638C213.868 385.179 214.677 384.949 215.596 384.949C216.306 384.949 216.867 385.067 217.279 385.304C217.696 385.536 218.013 385.801 218.231 386.099C218.453 386.393 218.626 386.634 218.749 386.824H218.891V381.455H220.567V396H218.948V394.324H218.749C218.626 394.523 218.451 394.774 218.224 395.077C217.996 395.375 217.672 395.643 217.251 395.879C216.829 396.111 216.268 396.227 215.567 396.227ZM215.795 394.722C216.467 394.722 217.035 394.546 217.499 394.196C217.963 393.841 218.316 393.351 218.558 392.726C218.799 392.096 218.92 391.369 218.92 390.545C218.92 389.731 218.801 389.018 218.565 388.408C218.328 387.792 217.978 387.314 217.513 386.973C217.049 386.627 216.477 386.455 215.795 386.455C215.085 386.455 214.493 386.637 214.019 387.001C213.55 387.361 213.198 387.851 212.961 388.472C212.729 389.087 212.613 389.778 212.613 390.545C212.613 391.322 212.731 392.027 212.968 392.662C213.21 393.292 213.565 393.794 214.033 394.168C214.507 394.537 215.094 394.722 215.795 394.722ZM228.444 396.227C227.393 396.227 226.486 395.995 225.724 395.531C224.966 395.062 224.381 394.409 223.969 393.571C223.562 392.728 223.359 391.748 223.359 390.631C223.359 389.513 223.562 388.528 223.969 387.676C224.381 386.819 224.954 386.152 225.688 385.673C226.427 385.19 227.289 384.949 228.273 384.949C228.842 384.949 229.403 385.044 229.957 385.233C230.511 385.422 231.015 385.73 231.469 386.156C231.924 386.578 232.286 387.136 232.556 387.832C232.826 388.528 232.961 389.385 232.961 390.403V391.114H224.552V389.665H231.256C231.256 389.049 231.133 388.5 230.887 388.017C230.646 387.534 230.3 387.153 229.85 386.874C229.405 386.594 228.879 386.455 228.273 386.455C227.606 386.455 227.028 386.62 226.54 386.952C226.058 387.278 225.686 387.705 225.425 388.23C225.165 388.756 225.035 389.319 225.035 389.92V390.886C225.035 391.71 225.177 392.409 225.461 392.982C225.75 393.55 226.15 393.983 226.661 394.281C227.173 394.575 227.767 394.722 228.444 394.722C228.884 394.722 229.282 394.66 229.637 394.537C229.997 394.409 230.307 394.22 230.567 393.969C230.828 393.713 231.029 393.396 231.171 393.017L232.79 393.472C232.62 394.021 232.334 394.504 231.931 394.92C231.529 395.332 231.031 395.654 230.44 395.886C229.848 396.114 229.183 396.227 228.444 396.227ZM240.255 385.091V386.511H234.602V385.091H240.255ZM236.249 382.477H237.925V392.875C237.925 393.348 237.994 393.704 238.131 393.94C238.273 394.172 238.453 394.329 238.671 394.409C238.894 394.485 239.128 394.523 239.374 394.523C239.559 394.523 239.71 394.513 239.829 394.494C239.947 394.471 240.042 394.452 240.113 394.438L240.454 395.943C240.34 395.986 240.182 396.028 239.978 396.071C239.774 396.118 239.516 396.142 239.204 396.142C238.73 396.142 238.266 396.04 237.812 395.837C237.362 395.633 236.988 395.323 236.69 394.906C236.396 394.49 236.249 393.964 236.249 393.33V382.477ZM245.987 396.256C245.295 396.256 244.668 396.125 244.104 395.865C243.541 395.6 243.094 395.219 242.762 394.722C242.431 394.22 242.265 393.614 242.265 392.903C242.265 392.278 242.388 391.772 242.634 391.384C242.88 390.991 243.21 390.683 243.621 390.46C244.033 390.238 244.488 390.072 244.985 389.963C245.487 389.849 245.991 389.759 246.498 389.693C247.161 389.608 247.698 389.544 248.11 389.501C248.527 389.454 248.83 389.376 249.019 389.267C249.213 389.158 249.31 388.969 249.31 388.699V388.642C249.31 387.941 249.119 387.397 248.735 387.009C248.356 386.62 247.781 386.426 247.009 386.426C246.209 386.426 245.582 386.601 245.127 386.952C244.673 387.302 244.353 387.676 244.168 388.074L242.577 387.506C242.862 386.843 243.24 386.327 243.714 385.957C244.192 385.583 244.713 385.323 245.276 385.176C245.844 385.025 246.403 384.949 246.952 384.949C247.303 384.949 247.705 384.991 248.16 385.077C248.619 385.157 249.062 385.325 249.488 385.581C249.919 385.837 250.276 386.223 250.56 386.739C250.844 387.255 250.987 387.946 250.987 388.812V396H249.31V394.523H249.225C249.112 394.759 248.922 395.013 248.657 395.283C248.392 395.553 248.039 395.782 247.599 395.972C247.158 396.161 246.621 396.256 245.987 396.256ZM246.242 394.75C246.905 394.75 247.464 394.62 247.918 394.359C248.378 394.099 248.723 393.763 248.955 393.351C249.192 392.939 249.31 392.506 249.31 392.051V390.517C249.239 390.602 249.083 390.68 248.842 390.751C248.605 390.818 248.33 390.877 248.018 390.929C247.71 390.976 247.409 391.019 247.116 391.057C246.827 391.09 246.593 391.118 246.413 391.142C245.977 391.199 245.57 391.291 245.191 391.419C244.817 391.542 244.514 391.729 244.282 391.98C244.055 392.226 243.941 392.562 243.941 392.989C243.941 393.571 244.156 394.011 244.587 394.31C245.023 394.603 245.575 394.75 246.242 394.75ZM254.046 396V385.091H255.722V396H254.046ZM254.898 383.273C254.571 383.273 254.29 383.161 254.053 382.939C253.821 382.716 253.705 382.449 253.705 382.136C253.705 381.824 253.821 381.556 254.053 381.334C254.29 381.111 254.571 381 254.898 381C255.225 381 255.504 381.111 255.736 381.334C255.973 381.556 256.091 381.824 256.091 382.136C256.091 382.449 255.973 382.716 255.736 382.939C255.504 383.161 255.225 383.273 254.898 383.273ZM260.468 381.455V396H258.792V381.455H260.468ZM271.265 387.534L269.76 387.96C269.665 387.709 269.525 387.465 269.341 387.229C269.161 386.987 268.914 386.788 268.602 386.632C268.289 386.476 267.889 386.398 267.402 386.398C266.734 386.398 266.178 386.552 265.733 386.859C265.292 387.162 265.072 387.548 265.072 388.017C265.072 388.434 265.224 388.763 265.527 389.004C265.83 389.246 266.303 389.447 266.947 389.608L268.566 390.006C269.542 390.242 270.269 390.605 270.747 391.092C271.225 391.575 271.464 392.198 271.464 392.96C271.464 393.585 271.284 394.144 270.924 394.636C270.569 395.129 270.072 395.517 269.433 395.801C268.794 396.085 268.05 396.227 267.203 396.227C266.09 396.227 265.169 395.986 264.44 395.503C263.711 395.02 263.249 394.314 263.055 393.386L264.646 392.989C264.797 393.576 265.084 394.016 265.505 394.31C265.931 394.603 266.488 394.75 267.174 394.75C267.956 394.75 268.576 394.584 269.035 394.253C269.499 393.917 269.731 393.514 269.731 393.045C269.731 392.667 269.599 392.349 269.333 392.094C269.068 391.833 268.661 391.639 268.112 391.511L266.294 391.085C265.295 390.848 264.561 390.482 264.092 389.984C263.628 389.482 263.396 388.855 263.396 388.102C263.396 387.487 263.569 386.942 263.914 386.469C264.265 385.995 264.741 385.624 265.342 385.354C265.948 385.084 266.635 384.949 267.402 384.949C268.481 384.949 269.329 385.186 269.944 385.659C270.565 386.133 271.005 386.758 271.265 387.534ZM280.692 400.091C280.408 400.091 280.154 400.067 279.932 400.02C279.709 399.977 279.555 399.935 279.47 399.892L279.896 398.415C280.304 398.519 280.663 398.557 280.976 398.528C281.288 398.5 281.565 398.36 281.807 398.109C282.053 397.863 282.278 397.463 282.482 396.909L282.794 396.057L278.76 385.091H280.578L283.589 393.784H283.703L286.714 385.091H288.533L283.902 397.591C283.694 398.154 283.436 398.621 283.128 398.99C282.82 399.364 282.463 399.641 282.055 399.821C281.653 400.001 281.198 400.091 280.692 400.091ZM294.786 396.227C293.801 396.227 292.937 395.993 292.194 395.524C291.455 395.055 290.878 394.4 290.461 393.557C290.049 392.714 289.843 391.729 289.843 390.602C289.843 389.466 290.049 388.474 290.461 387.626C290.878 386.779 291.455 386.121 292.194 385.652C292.937 385.183 293.801 384.949 294.786 384.949C295.771 384.949 296.633 385.183 297.371 385.652C298.115 386.121 298.692 386.779 299.104 387.626C299.521 388.474 299.729 389.466 299.729 390.602C299.729 391.729 299.521 392.714 299.104 393.557C298.692 394.4 298.115 395.055 297.371 395.524C296.633 395.993 295.771 396.227 294.786 396.227ZM294.786 394.722C295.534 394.722 296.15 394.53 296.633 394.146C297.116 393.763 297.473 393.259 297.705 392.634C297.937 392.009 298.053 391.331 298.053 390.602C298.053 389.873 297.937 389.194 297.705 388.564C297.473 387.934 297.116 387.425 296.633 387.037C296.15 386.649 295.534 386.455 294.786 386.455C294.038 386.455 293.423 386.649 292.94 387.037C292.457 387.425 292.099 387.934 291.867 388.564C291.635 389.194 291.519 389.873 291.519 390.602C291.519 391.331 291.635 392.009 291.867 392.634C292.099 393.259 292.457 393.763 292.94 394.146C293.423 394.53 294.038 394.722 294.786 394.722ZM309.163 391.54V385.091H310.839V396H309.163V394.153H309.049C308.794 394.707 308.396 395.179 307.856 395.567C307.316 395.95 306.635 396.142 305.811 396.142C305.129 396.142 304.523 395.993 303.993 395.695C303.462 395.392 303.046 394.937 302.743 394.331C302.44 393.72 302.288 392.951 302.288 392.023V385.091H303.964V391.909C303.964 392.705 304.187 393.339 304.632 393.812C305.082 394.286 305.654 394.523 306.35 394.523C306.767 394.523 307.191 394.416 307.622 394.203C308.057 393.99 308.422 393.663 308.716 393.223C309.014 392.783 309.163 392.222 309.163 391.54ZM324.108 396.227C323.057 396.227 322.15 395.995 321.388 395.531C320.63 395.062 320.045 394.409 319.634 393.571C319.226 392.728 319.023 391.748 319.023 390.631C319.023 389.513 319.226 388.528 319.634 387.676C320.045 386.819 320.618 386.152 321.352 385.673C322.091 385.19 322.953 384.949 323.938 384.949C324.506 384.949 325.067 385.044 325.621 385.233C326.175 385.422 326.679 385.73 327.134 386.156C327.588 386.578 327.95 387.136 328.22 387.832C328.49 388.528 328.625 389.385 328.625 390.403V391.114H320.216V389.665H326.92C326.92 389.049 326.797 388.5 326.551 388.017C326.31 387.534 325.964 387.153 325.514 386.874C325.069 386.594 324.544 386.455 323.938 386.455C323.27 386.455 322.692 386.62 322.205 386.952C321.722 387.278 321.35 387.705 321.089 388.23C320.829 388.756 320.699 389.319 320.699 389.92V390.886C320.699 391.71 320.841 392.409 321.125 392.982C321.414 393.55 321.814 393.983 322.325 394.281C322.837 394.575 323.431 394.722 324.108 394.722C324.548 394.722 324.946 394.66 325.301 394.537C325.661 394.409 325.971 394.22 326.232 393.969C326.492 393.713 326.693 393.396 326.835 393.017L328.455 393.472C328.284 394.021 327.998 394.504 327.595 394.92C327.193 395.332 326.696 395.654 326.104 395.886C325.512 396.114 324.847 396.227 324.108 396.227ZM332.851 389.438V396H331.175V385.091H332.794V386.795H332.936C333.192 386.241 333.58 385.796 334.101 385.46C334.622 385.119 335.294 384.949 336.118 384.949C336.857 384.949 337.503 385.1 338.057 385.403C338.611 385.702 339.042 386.156 339.349 386.767C339.657 387.373 339.811 388.14 339.811 389.068V396H338.135V389.182C338.135 388.325 337.912 387.657 337.467 387.179C337.022 386.696 336.411 386.455 335.635 386.455C335.1 386.455 334.622 386.571 334.2 386.803C333.784 387.035 333.455 387.373 333.213 387.818C332.972 388.263 332.851 388.803 332.851 389.438ZM347.618 385.091V386.511H341.965V385.091H347.618ZM343.613 382.477H345.289V392.875C345.289 393.348 345.357 393.704 345.495 393.94C345.637 394.172 345.817 394.329 346.034 394.409C346.257 394.485 346.491 394.523 346.738 394.523C346.922 394.523 347.074 394.513 347.192 394.494C347.31 394.471 347.405 394.452 347.476 394.438L347.817 395.943C347.703 395.986 347.545 396.028 347.341 396.071C347.138 396.118 346.88 396.142 346.567 396.142C346.094 396.142 345.63 396.04 345.175 395.837C344.725 395.633 344.351 395.323 344.053 394.906C343.759 394.49 343.613 393.964 343.613 393.33V382.477ZM354.596 396.227C353.545 396.227 352.638 395.995 351.876 395.531C351.118 395.062 350.534 394.409 350.122 393.571C349.715 392.728 349.511 391.748 349.511 390.631C349.511 389.513 349.715 388.528 350.122 387.676C350.534 386.819 351.107 386.152 351.841 385.673C352.579 385.19 353.441 384.949 354.426 384.949C354.994 384.949 355.555 385.044 356.109 385.233C356.663 385.422 357.167 385.73 357.622 386.156C358.076 386.578 358.439 387.136 358.708 387.832C358.978 388.528 359.113 389.385 359.113 390.403V391.114H350.704V389.665H357.409C357.409 389.049 357.286 388.5 357.039 388.017C356.798 387.534 356.452 387.153 356.002 386.874C355.557 386.594 355.032 386.455 354.426 386.455C353.758 386.455 353.181 386.62 352.693 386.952C352.21 387.278 351.838 387.705 351.578 388.23C351.317 388.756 351.187 389.319 351.187 389.92V390.886C351.187 391.71 351.329 392.409 351.613 392.982C351.902 393.55 352.302 393.983 352.814 394.281C353.325 394.575 353.919 394.722 354.596 394.722C355.037 394.722 355.434 394.66 355.789 394.537C356.149 394.409 356.459 394.22 356.72 393.969C356.98 393.713 357.181 393.396 357.324 393.017L358.943 393.472C358.772 394.021 358.486 394.504 358.083 394.92C357.681 395.332 357.184 395.654 356.592 395.886C356 396.114 355.335 396.227 354.596 396.227ZM361.663 396V385.091H363.282V386.739H363.396C363.595 386.199 363.955 385.761 364.475 385.425C364.996 385.089 365.583 384.92 366.237 384.92C366.36 384.92 366.514 384.923 366.699 384.928C366.883 384.932 367.023 384.939 367.118 384.949V386.653C367.061 386.639 366.931 386.618 366.727 386.589C366.528 386.556 366.317 386.54 366.095 386.54C365.565 386.54 365.091 386.651 364.674 386.874C364.262 387.091 363.936 387.394 363.694 387.783C363.458 388.166 363.339 388.604 363.339 389.097V396H361.663ZM373.346 396.227C372.295 396.227 371.388 395.995 370.626 395.531C369.868 395.062 369.284 394.409 368.872 393.571C368.465 392.728 368.261 391.748 368.261 390.631C368.261 389.513 368.465 388.528 368.872 387.676C369.284 386.819 369.857 386.152 370.591 385.673C371.329 385.19 372.191 384.949 373.176 384.949C373.744 384.949 374.305 385.044 374.859 385.233C375.413 385.422 375.917 385.73 376.372 386.156C376.826 386.578 377.189 387.136 377.458 387.832C377.728 388.528 377.863 389.385 377.863 390.403V391.114H369.454V389.665H376.159C376.159 389.049 376.036 388.5 375.789 388.017C375.548 387.534 375.202 387.153 374.752 386.874C374.307 386.594 373.782 386.455 373.176 386.455C372.508 386.455 371.931 386.62 371.443 386.952C370.96 387.278 370.588 387.705 370.328 388.23C370.067 388.756 369.937 389.319 369.937 389.92V390.886C369.937 391.71 370.079 392.409 370.363 392.982C370.652 393.55 371.052 393.983 371.564 394.281C372.075 394.575 372.669 394.722 373.346 394.722C373.787 394.722 374.184 394.66 374.539 394.537C374.899 394.409 375.209 394.22 375.47 393.969C375.73 393.713 375.931 393.396 376.074 393.017L377.693 393.472C377.522 394.021 377.236 394.504 376.833 394.92C376.431 395.332 375.934 395.654 375.342 395.886C374.75 396.114 374.085 396.227 373.346 396.227ZM384.532 396.227C383.623 396.227 382.821 395.998 382.125 395.538C381.429 395.074 380.884 394.421 380.491 393.578C380.098 392.731 379.902 391.729 379.902 390.574C379.902 389.428 380.098 388.434 380.491 387.591C380.884 386.748 381.431 386.097 382.132 385.638C382.833 385.179 383.642 384.949 384.561 384.949C385.271 384.949 385.832 385.067 386.244 385.304C386.661 385.536 386.978 385.801 387.196 386.099C387.418 386.393 387.591 386.634 387.714 386.824H387.856V381.455H389.532V396H387.913V394.324H387.714C387.591 394.523 387.416 394.774 387.189 395.077C386.961 395.375 386.637 395.643 386.216 395.879C385.794 396.111 385.233 396.227 384.532 396.227ZM384.76 394.722C385.432 394.722 386 394.546 386.464 394.196C386.928 393.841 387.281 393.351 387.522 392.726C387.764 392.096 387.885 391.369 387.885 390.545C387.885 389.731 387.766 389.018 387.529 388.408C387.293 387.792 386.942 387.314 386.478 386.973C386.014 386.627 385.441 386.455 384.76 386.455C384.049 386.455 383.458 386.637 382.984 387.001C382.515 387.361 382.163 387.851 381.926 388.472C381.694 389.087 381.578 389.778 381.578 390.545C381.578 391.322 381.696 392.027 381.933 392.662C382.174 393.292 382.529 393.794 382.998 394.168C383.472 394.537 384.059 394.722 384.76 394.722ZM401.67 396.256C400.979 396.256 400.351 396.125 399.788 395.865C399.225 395.6 398.777 395.219 398.446 394.722C398.114 394.22 397.949 393.614 397.949 392.903C397.949 392.278 398.072 391.772 398.318 391.384C398.564 390.991 398.893 390.683 399.305 390.46C399.717 390.238 400.172 390.072 400.669 389.963C401.171 389.849 401.675 389.759 402.181 389.693C402.844 389.608 403.382 389.544 403.794 389.501C404.21 389.454 404.513 389.376 404.703 389.267C404.897 389.158 404.994 388.969 404.994 388.699V388.642C404.994 387.941 404.802 387.397 404.419 387.009C404.04 386.62 403.465 386.426 402.693 386.426C401.893 386.426 401.265 386.601 400.811 386.952C400.356 387.302 400.037 387.676 399.852 388.074L398.261 387.506C398.545 386.843 398.924 386.327 399.397 385.957C399.876 385.583 400.396 385.323 400.96 385.176C401.528 385.025 402.087 384.949 402.636 384.949C402.986 384.949 403.389 384.991 403.843 385.077C404.303 385.157 404.745 385.325 405.172 385.581C405.602 385.837 405.96 386.223 406.244 386.739C406.528 387.255 406.67 387.946 406.67 388.812V396H404.994V394.523H404.909C404.795 394.759 404.606 395.013 404.341 395.283C404.075 395.553 403.723 395.782 403.282 395.972C402.842 396.161 402.305 396.256 401.67 396.256ZM401.926 394.75C402.589 394.75 403.147 394.62 403.602 394.359C404.061 394.099 404.407 393.763 404.639 393.351C404.876 392.939 404.994 392.506 404.994 392.051V390.517C404.923 390.602 404.767 390.68 404.525 390.751C404.288 390.818 404.014 390.877 403.701 390.929C403.394 390.976 403.093 391.019 402.799 391.057C402.511 391.09 402.276 391.118 402.096 391.142C401.661 391.199 401.253 391.291 400.875 391.419C400.501 391.542 400.198 391.729 399.966 391.98C399.738 392.226 399.625 392.562 399.625 392.989C399.625 393.571 399.84 394.011 400.271 394.31C400.707 394.603 401.258 394.75 401.926 394.75ZM411.406 381.455V396H409.729V381.455H411.406ZM414.475 396V385.091H416.095V386.739H416.208C416.407 386.199 416.767 385.761 417.288 385.425C417.809 385.089 418.396 384.92 419.049 384.92C419.172 384.92 419.326 384.923 419.511 384.928C419.696 384.932 419.835 384.939 419.93 384.949V386.653C419.873 386.639 419.743 386.618 419.539 386.589C419.341 386.556 419.13 386.54 418.907 386.54C418.377 386.54 417.904 386.651 417.487 386.874C417.075 387.091 416.748 387.394 416.507 387.783C416.27 388.166 416.152 388.604 416.152 389.097V396H414.475ZM426.159 396.227C425.108 396.227 424.201 395.995 423.439 395.531C422.681 395.062 422.096 394.409 421.684 393.571C421.277 392.728 421.074 391.748 421.074 390.631C421.074 389.513 421.277 388.528 421.684 387.676C422.096 386.819 422.669 386.152 423.403 385.673C424.142 385.19 425.003 384.949 425.988 384.949C426.556 384.949 427.118 385.044 427.672 385.233C428.225 385.422 428.73 385.73 429.184 386.156C429.639 386.578 430.001 387.136 430.271 387.832C430.541 388.528 430.676 389.385 430.676 390.403V391.114H422.267V389.665H428.971C428.971 389.049 428.848 388.5 428.602 388.017C428.36 387.534 428.015 387.153 427.565 386.874C427.12 386.594 426.594 386.455 425.988 386.455C425.321 386.455 424.743 386.62 424.255 386.952C423.772 387.278 423.401 387.705 423.14 388.23C422.88 388.756 422.75 389.319 422.75 389.92V390.886C422.75 391.71 422.892 392.409 423.176 392.982C423.465 393.55 423.865 393.983 424.376 394.281C424.887 394.575 425.482 394.722 426.159 394.722C426.599 394.722 426.997 394.66 427.352 394.537C427.712 394.409 428.022 394.22 428.282 393.969C428.543 393.713 428.744 393.396 428.886 393.017L430.505 393.472C430.335 394.021 430.048 394.504 429.646 394.92C429.243 395.332 428.746 395.654 428.154 395.886C427.563 396.114 426.897 396.227 426.159 396.227ZM436.436 396.256C435.744 396.256 435.117 396.125 434.554 395.865C433.99 395.6 433.543 395.219 433.211 394.722C432.88 394.22 432.714 393.614 432.714 392.903C432.714 392.278 432.837 391.772 433.083 391.384C433.33 390.991 433.659 390.683 434.071 390.46C434.483 390.238 434.937 390.072 435.434 389.963C435.936 389.849 436.44 389.759 436.947 389.693C437.61 389.608 438.147 389.544 438.559 389.501C438.976 389.454 439.279 389.376 439.468 389.267C439.663 389.158 439.76 388.969 439.76 388.699V388.642C439.76 387.941 439.568 387.397 439.184 387.009C438.806 386.62 438.23 386.426 437.458 386.426C436.658 386.426 436.031 386.601 435.576 386.952C435.122 387.302 434.802 387.676 434.618 388.074L433.027 387.506C433.311 386.843 433.69 386.327 434.163 385.957C434.641 385.583 435.162 385.323 435.725 385.176C436.294 385.025 436.852 384.949 437.402 384.949C437.752 384.949 438.154 384.991 438.609 385.077C439.068 385.157 439.511 385.325 439.937 385.581C440.368 385.837 440.725 386.223 441.01 386.739C441.294 387.255 441.436 387.946 441.436 388.812V396H439.76V394.523H439.674C439.561 394.759 439.371 395.013 439.106 395.283C438.841 395.553 438.488 395.782 438.048 395.972C437.608 396.161 437.07 396.256 436.436 396.256ZM436.691 394.75C437.354 394.75 437.913 394.62 438.368 394.359C438.827 394.099 439.172 393.763 439.404 393.351C439.641 392.939 439.76 392.506 439.76 392.051V390.517C439.689 390.602 439.532 390.68 439.291 390.751C439.054 390.818 438.779 390.877 438.467 390.929C438.159 390.976 437.859 391.019 437.565 391.057C437.276 391.09 437.042 391.118 436.862 391.142C436.426 391.199 436.019 391.291 435.64 391.419C435.266 391.542 434.963 391.729 434.731 391.98C434.504 392.226 434.39 392.562 434.39 392.989C434.39 393.571 434.606 394.011 435.037 394.31C435.472 394.603 436.024 394.75 436.691 394.75ZM448.614 396.227C447.705 396.227 446.903 395.998 446.207 395.538C445.511 395.074 444.966 394.421 444.573 393.578C444.18 392.731 443.984 391.729 443.984 390.574C443.984 389.428 444.18 388.434 444.573 387.591C444.966 386.748 445.513 386.097 446.214 385.638C446.915 385.179 447.724 384.949 448.643 384.949C449.353 384.949 449.914 385.067 450.326 385.304C450.743 385.536 451.06 385.801 451.278 386.099C451.5 386.393 451.673 386.634 451.796 386.824H451.938V381.455H453.614V396H451.995V394.324H451.796C451.673 394.523 451.498 394.774 451.271 395.077C451.043 395.375 450.719 395.643 450.298 395.879C449.876 396.111 449.315 396.227 448.614 396.227ZM448.842 394.722C449.514 394.722 450.082 394.546 450.546 394.196C451.01 393.841 451.363 393.351 451.604 392.726C451.846 392.096 451.967 391.369 451.967 390.545C451.967 389.731 451.848 389.018 451.612 388.408C451.375 387.792 451.024 387.314 450.56 386.973C450.096 386.627 449.523 386.455 448.842 386.455C448.131 386.455 447.54 386.637 447.066 387.001C446.597 387.361 446.245 387.851 446.008 388.472C445.776 389.087 445.66 389.778 445.66 390.545C445.66 391.322 445.778 392.027 446.015 392.662C446.256 393.292 446.612 393.794 447.08 394.168C447.554 394.537 448.141 394.722 448.842 394.722ZM457.996 400.091C457.712 400.091 457.459 400.067 457.237 400.02C457.014 399.977 456.86 399.935 456.775 399.892L457.201 398.415C457.608 398.519 457.968 398.557 458.281 398.528C458.593 398.5 458.87 398.36 459.112 398.109C459.358 397.863 459.583 397.463 459.786 396.909L460.099 396.057L456.065 385.091H457.883L460.894 393.784H461.008L464.019 385.091H465.837L461.207 397.591C460.998 398.154 460.74 398.621 460.433 398.99C460.125 399.364 459.767 399.641 459.36 399.821C458.958 400.001 458.503 400.091 457.996 400.091ZM478.249 396.227C477.197 396.227 476.291 395.995 475.528 395.531C474.771 395.062 474.186 394.409 473.774 393.571C473.367 392.728 473.163 391.748 473.163 390.631C473.163 389.513 473.367 388.528 473.774 387.676C474.186 386.819 474.759 386.152 475.493 385.673C476.232 385.19 477.093 384.949 478.078 384.949C478.646 384.949 479.207 385.044 479.761 385.233C480.315 385.422 480.82 385.73 481.274 386.156C481.729 386.578 482.091 387.136 482.361 387.832C482.631 388.528 482.766 389.385 482.766 390.403V391.114H474.357V389.665H481.061C481.061 389.049 480.938 388.5 480.692 388.017C480.45 387.534 480.105 387.153 479.655 386.874C479.21 386.594 478.684 386.455 478.078 386.455C477.411 386.455 476.833 386.62 476.345 386.952C475.862 387.278 475.491 387.705 475.23 388.23C474.97 388.756 474.839 389.319 474.839 389.92V390.886C474.839 391.71 474.982 392.409 475.266 392.982C475.554 393.55 475.955 393.983 476.466 394.281C476.977 394.575 477.571 394.722 478.249 394.722C478.689 394.722 479.087 394.66 479.442 394.537C479.802 394.409 480.112 394.22 480.372 393.969C480.633 393.713 480.834 393.396 480.976 393.017L482.595 393.472C482.425 394.021 482.138 394.504 481.736 394.92C481.333 395.332 480.836 395.654 480.244 395.886C479.652 396.114 478.987 396.227 478.249 396.227ZM486.272 385.091L488.886 389.551L491.5 385.091H493.431L489.909 390.545L493.431 396H491.5L488.886 391.767L486.272 396H484.341L487.806 390.545L484.341 385.091H486.272ZM495.823 396V385.091H497.499V396H495.823ZM496.675 383.273C496.349 383.273 496.067 383.161 495.83 382.939C495.598 382.716 495.482 382.449 495.482 382.136C495.482 381.824 495.598 381.556 495.83 381.334C496.067 381.111 496.349 381 496.675 381C497.002 381 497.281 381.111 497.513 381.334C497.75 381.556 497.869 381.824 497.869 382.136C497.869 382.449 497.75 382.716 497.513 382.939C497.281 383.161 497.002 383.273 496.675 383.273ZM508.297 387.534L506.791 387.96C506.696 387.709 506.556 387.465 506.372 387.229C506.192 386.987 505.946 386.788 505.633 386.632C505.321 386.476 504.921 386.398 504.433 386.398C503.765 386.398 503.209 386.552 502.764 386.859C502.324 387.162 502.103 387.548 502.103 388.017C502.103 388.434 502.255 388.763 502.558 389.004C502.861 389.246 503.334 389.447 503.978 389.608L505.598 390.006C506.573 390.242 507.3 390.605 507.778 391.092C508.256 391.575 508.495 392.198 508.495 392.96C508.495 393.585 508.315 394.144 507.956 394.636C507.6 395.129 507.103 395.517 506.464 395.801C505.825 396.085 505.082 396.227 504.234 396.227C503.121 396.227 502.2 395.986 501.471 395.503C500.742 395.02 500.28 394.314 500.086 393.386L501.677 392.989C501.829 393.576 502.115 394.016 502.537 394.31C502.963 394.603 503.519 394.75 504.206 394.75C504.987 394.75 505.607 394.584 506.066 394.253C506.53 393.917 506.762 393.514 506.762 393.045C506.762 392.667 506.63 392.349 506.365 392.094C506.1 391.833 505.692 391.639 505.143 391.511L503.325 391.085C502.326 390.848 501.592 390.482 501.123 389.984C500.659 389.482 500.427 388.855 500.427 388.102C500.427 387.487 500.6 386.942 500.946 386.469C501.296 385.995 501.772 385.624 502.373 385.354C502.979 385.084 503.666 384.949 504.433 384.949C505.512 384.949 506.36 385.186 506.975 385.659C507.596 386.133 508.036 386.758 508.297 387.534ZM515.763 385.091V386.511H510.109V385.091H515.763ZM511.757 382.477H513.433V392.875C513.433 393.348 513.502 393.704 513.639 393.94C513.781 394.172 513.961 394.329 514.179 394.409C514.402 394.485 514.636 394.523 514.882 394.523C515.067 394.523 515.218 394.513 515.337 394.494C515.455 394.471 515.55 394.452 515.621 394.438L515.962 395.943C515.848 395.986 515.689 396.028 515.486 396.071C515.282 396.118 515.024 396.142 514.712 396.142C514.238 396.142 513.774 396.04 513.32 395.837C512.87 395.633 512.496 395.323 512.197 394.906C511.904 394.49 511.757 393.964 511.757 393.33V382.477ZM525.816 387.534L524.31 387.96C524.216 387.709 524.076 387.465 523.891 387.229C523.711 386.987 523.465 386.788 523.153 386.632C522.84 386.476 522.44 386.398 521.952 386.398C521.285 386.398 520.728 386.552 520.283 386.859C519.843 387.162 519.623 387.548 519.623 388.017C519.623 388.434 519.774 388.763 520.077 389.004C520.38 389.246 520.854 389.447 521.498 389.608L523.117 390.006C524.093 390.242 524.819 390.605 525.298 391.092C525.776 391.575 526.015 392.198 526.015 392.96C526.015 393.585 525.835 394.144 525.475 394.636C525.12 395.129 524.623 395.517 523.984 395.801C523.344 396.085 522.601 396.227 521.754 396.227C520.641 396.227 519.72 395.986 518.991 395.503C518.262 395.02 517.8 394.314 517.606 393.386L519.197 392.989C519.348 393.576 519.635 394.016 520.056 394.31C520.482 394.603 521.039 394.75 521.725 394.75C522.506 394.75 523.127 394.584 523.586 394.253C524.05 393.917 524.282 393.514 524.282 393.045C524.282 392.667 524.149 392.349 523.884 392.094C523.619 391.833 523.212 391.639 522.663 391.511L520.844 391.085C519.845 390.848 519.112 390.482 518.643 389.984C518.179 389.482 517.947 388.855 517.947 388.102C517.947 387.487 518.12 386.942 518.465 386.469C518.816 385.995 519.291 385.624 519.893 385.354C520.499 385.084 521.185 384.949 521.952 384.949C523.032 384.949 523.879 385.186 524.495 385.659C525.115 386.133 525.556 386.758 525.816 387.534Z" fill="#2A272F"/>
</g>
<circle cx="84" cy="298" r="50" fill="#885252"/>
<path d="M83.5 262.062C63.9303 262.062 48.0625 277.93 48.0625 297.5C48.0625 317.07 63.9303 332.938 83.5 332.938C103.07 332.938 118.938 317.07 118.938 297.5C118.938 277.93 103.07 262.062 83.5 262.062ZM98.8062 285.927L82.1474 309.025C81.9145 309.35 81.6076 309.615 81.252 309.798C80.8964 309.98 80.5024 310.076 80.1026 310.076C79.7028 310.076 79.3088 309.98 78.9532 309.798C78.5976 309.615 78.2906 309.35 78.0578 309.025L68.1938 295.356C67.8933 294.937 68.1938 294.352 68.708 294.352H72.4179C73.2247 294.352 73.992 294.739 74.4666 295.404L80.0986 303.219L92.5334 285.975C93.008 285.318 93.7674 284.923 94.5821 284.923H98.292C98.8062 284.923 99.1067 285.508 98.8062 285.927V285.927Z" fill="#D9D9D9"/>
<rect x="0.5" y="0.5" width="1163" height="454" rx="4.5" stroke="#9747FF" stroke-dasharray="10 5"/>
</svg>
