<svg width="71" height="71" viewBox="0 0 71 71" fill="none" xmlns="http://www.w3.org/2000/svg">
<path d="M35.5 0.0625C15.9303 0.0625 0.0625 15.9303 0.0625 35.5C0.0625 55.0697 15.9303 70.9375 35.5 70.9375C55.0697 70.9375 70.9375 55.0697 70.9375 35.5C70.9375 15.9303 55.0697 0.0625 35.5 0.0625ZM50.8062 23.9274L34.1474 47.0251C33.9145 47.3501 33.6076 47.6149 33.252 47.7975C32.8964 47.9802 32.5024 48.0755 32.1026 48.0755C31.7028 48.0755 31.3088 47.9802 30.9532 47.7975C30.5976 47.6149 30.2906 47.3501 30.0578 47.0251L20.1938 33.3563C19.8933 32.9371 20.1938 32.3518 20.708 32.3518H24.4179C25.2247 32.3518 25.992 32.7394 26.4666 33.4038L32.0986 41.219L44.5334 23.9749C45.008 23.3184 45.7674 22.9229 46.5821 22.9229H50.292C50.8062 22.9229 51.1067 23.5082 50.8062 23.9274Z" fill="#FFFEFE"/>
</svg>
