<svg width="34" height="34" viewBox="0 0 34 34" fill="none" xmlns="http://www.w3.org/2000/svg">
<path d="M16.9999 0.333008C7.81658 0.333008 0.333252 7.81634 0.333252 16.9997C0.333252 26.183 7.81658 33.6663 16.9999 33.6663C26.1833 33.6663 33.6666 26.183 33.6666 16.9997C33.6666 7.81634 26.1833 0.333008 16.9999 0.333008ZM24.9666 13.1663L15.5166 22.6163C15.2833 22.8497 14.9666 22.983 14.6333 22.983C14.2999 22.983 13.9833 22.8497 13.7499 22.6163L9.03325 17.8997C8.54992 17.4163 8.54992 16.6163 9.03325 16.133C9.51658 15.6497 10.3166 15.6497 10.7999 16.133L14.6333 19.9663L23.1999 11.3997C23.6833 10.9163 24.4833 10.9163 24.9666 11.3997C25.4499 11.883 25.4499 12.6663 24.9666 13.1663Z" fill="#77AED0"/>
</svg>
