<svg width="34" height="34" viewBox="0 0 34 34" fill="none" xmlns="http://www.w3.org/2000/svg">
<path d="M23.983 0.333252H10.0163C3.94967 0.333252 0.333008 3.94992 0.333008 10.0166V23.9833C0.333008 30.0499 3.94967 33.6666 10.0163 33.6666H23.983C30.0497 33.6666 33.6663 30.0499 33.6663 23.9833V10.0166C33.6663 3.94992 30.0497 0.333252 23.983 0.333252ZM13.6163 21.8333L9.86634 25.5833C9.61634 25.8333 9.29967 25.9499 8.98301 25.9499C8.66634 25.9499 8.33301 25.8333 8.09967 25.5833L6.84967 24.3333C6.34967 23.8499 6.34967 23.0499 6.84967 22.5666C7.33301 22.0833 8.11634 22.0833 8.61634 22.5666L8.98301 22.9333L11.8497 20.0666C12.333 19.5833 13.1163 19.5833 13.6163 20.0666C14.0997 20.5499 14.0997 21.3499 13.6163 21.8333ZM13.6163 10.1666L9.86634 13.9166C9.61634 14.1666 9.29967 14.2833 8.98301 14.2833C8.66634 14.2833 8.33301 14.1666 8.09967 13.9166L6.84967 12.6666C6.34967 12.1833 6.34967 11.3833 6.84967 10.8999C7.33301 10.4166 8.11634 10.4166 8.61634 10.8999L8.98301 11.2666L11.8497 8.39992C12.333 7.91659 13.1163 7.91659 13.6163 8.39992C14.0997 8.88325 14.0997 9.68325 13.6163 10.1666ZM26.2663 24.6999H17.5163C16.833 24.6999 16.2663 24.1333 16.2663 23.4499C16.2663 22.7666 16.833 22.1999 17.5163 22.1999H26.2663C26.9663 22.1999 27.5163 22.7666 27.5163 23.4499C27.5163 24.1333 26.9663 24.6999 26.2663 24.6999ZM26.2663 13.0333H17.5163C16.833 13.0333 16.2663 12.4666 16.2663 11.7833C16.2663 11.0999 16.833 10.5333 17.5163 10.5333H26.2663C26.9663 10.5333 27.5163 11.0999 27.5163 11.7833C27.5163 12.4666 26.9663 13.0333 26.2663 13.0333Z" fill="#77AED0"/>
</svg>
