<svg width="40" height="40" viewBox="0 0 40 40" fill="none" xmlns="http://www.w3.org/2000/svg">
<path d="M18.334 6.66666H6.66732C5.78326 6.66666 4.93542 7.01785 4.31029 7.64297C3.68517 8.26809 3.33398 9.11593 3.33398 9.99999V33.3333C3.33398 34.2174 3.68517 35.0652 4.31029 35.6903C4.93542 36.3155 5.78326 36.6667 6.66732 36.6667H30.0006C30.8847 36.6667 31.7325 36.3155 32.3577 35.6903C32.9828 35.0652 33.334 34.2174 33.334 33.3333V21.6667" stroke="black" stroke-width="2" stroke-linecap="round" stroke-linejoin="round"/>
<path d="M30.834 4.16667C31.497 3.50363 32.3963 3.13113 33.334 3.13113C34.2717 3.13113 35.1709 3.50363 35.834 4.16667C36.497 4.82971 36.8695 5.72899 36.8695 6.66667C36.8695 7.60435 36.497 8.50363 35.834 9.16667L20.0007 25L13.334 26.6667L15.0007 20L30.834 4.16667Z" stroke="black" stroke-width="2" stroke-linecap="round" stroke-linejoin="round"/>
</svg>
