<svg width="32" height="32" viewBox="0 0 32 32" fill="none" xmlns="http://www.w3.org/2000/svg">
<rect width="32" height="32" rx="16" />
<path d="M16 6C10.49 6 6 10.49 6 16C6 21.51 10.49 26 16 26C21.51 26 26 21.51 26 16C26 10.49 21.51 6 16 6ZM20.35 19.57C20.21 19.81 19.96 19.94 19.7 19.94C19.57 19.94 19.44 19.91 19.32 19.83L16.22 17.98C15.45 17.52 14.88 16.51 14.88 15.62V11.52C14.88 11.11 15.22 10.77 15.63 10.77C16.04 10.77 16.38 11.11 16.38 11.52V15.62C16.38 15.98 16.68 16.51 16.99 16.69L20.09 18.54C20.45 18.75 20.57 19.21 20.35 19.57Z" fill="#77AED0"/>
</svg>
