<svg width="28" height="28" viewBox="0 0 28 28" fill="none" xmlns="http://www.w3.org/2000/svg">
<rect x="0.0150146" width="27.97" height="27.97" rx="13.985" />
<path d="M18.1604 5.66406H9.83962C7.54307 5.66406 5.6792 7.51961 5.6792 9.80784V14.7837V15.6158C5.6792 17.904 7.54307 19.7596 9.83962 19.7596H11.0877C11.3124 19.7596 11.612 19.9093 11.7534 20.0924L13.0015 21.7482C13.5507 22.4805 14.4494 22.4805 14.9985 21.7482L16.2467 20.0924C16.4048 19.8844 16.6544 19.7596 16.9123 19.7596H18.1604C20.457 19.7596 22.3209 17.904 22.3209 15.6158V9.80784C22.3209 7.51961 20.457 5.66406 18.1604 5.66406ZM14.8321 15.441H9.83962C9.49846 15.441 9.21555 15.1581 9.21555 14.817C9.21555 14.4758 9.49846 14.1929 9.83962 14.1929H14.8321C15.1733 14.1929 15.4562 14.4758 15.4562 14.817C15.4562 15.1581 15.1733 15.441 14.8321 15.441ZM18.1604 11.2806H9.83962C9.49846 11.2806 9.21555 10.9977 9.21555 10.6566C9.21555 10.3154 9.49846 10.0325 9.83962 10.0325H18.1604C18.5016 10.0325 18.7845 10.3154 18.7845 10.6566C18.7845 10.9977 18.5016 11.2806 18.1604 11.2806Z" fill="#77AED0"/>
</svg>
