<svg width="32" height="33" viewBox="0 0 32 33" fill="none" xmlns="http://www.w3.org/2000/svg">
<rect y="0.619141" width="32" height="32" rx="16" />
<path d="M16 26.6191C21.51 26.6191 26 22.1291 26 16.6191C26 11.1091 21.51 6.61914 16 6.61914C10.49 6.61914 6 11.1091 6 16.6191C6 22.1291 10.49 26.6191 16 26.6191ZM16.75 20.6191C16.75 21.0291 16.41 21.3691 16 21.3691C15.59 21.3691 15.25 21.0291 15.25 20.6191V15.6191C15.25 15.2091 15.59 14.8691 16 14.8691C16.41 14.8691 16.75 15.2091 16.75 15.6191V20.6191ZM15.08 12.2391C15.13 12.1091 15.2 12.0091 15.29 11.9091C15.39 11.8191 15.5 11.7491 15.62 11.6991C15.74 11.6491 15.87 11.6191 16 11.6191C16.13 11.6191 16.26 11.6491 16.38 11.6991C16.5 11.7491 16.61 11.8191 16.71 11.9091C16.8 12.0091 16.87 12.1091 16.92 12.2391C16.97 12.3591 17 12.4891 17 12.6191C17 12.7491 16.97 12.8791 16.92 12.9991C16.87 13.1191 16.8 13.2291 16.71 13.3291C16.61 13.4191 16.5 13.4891 16.38 13.5391C16.14 13.6391 15.86 13.6391 15.62 13.5391C15.5 13.4891 15.39 13.4191 15.29 13.3291C15.2 13.2291 15.13 13.1191 15.08 12.9991C15.03 12.8791 15 12.7491 15 12.6191C15 12.4891 15.03 12.3591 15.08 12.2391Z" fill="#77AED0"/>
</svg>
