<svg width="246" height="246" viewBox="0 0 246 246" fill="none" xmlns="http://www.w3.org/2000/svg">
<rect width="244.463" height="245.154" transform="translate(0.553223 0.608398)" fill="#FFFEFE"/>
<path d="M122.439 86.9307C122.439 87.5028 122.903 87.9665 123.475 87.9665C124.047 87.9665 124.511 87.5028 124.511 86.9307H122.439ZM124.208 68.2433C123.803 67.8387 123.147 67.8387 122.743 68.2433L116.151 74.8354C115.746 75.24 115.746 75.8958 116.151 76.3004C116.555 76.7049 117.211 76.7049 117.616 76.3004L123.475 70.4407L129.335 76.3004C129.74 76.7049 130.395 76.7049 130.8 76.3004C131.205 75.8958 131.205 75.24 130.8 74.8354L124.208 68.2433ZM124.511 86.9307V68.9757H122.439V86.9307H124.511Z" fill="#2A272F"/>
<path d="M106.902 77.9531V94.5269C106.902 95.6711 107.829 96.5986 108.973 96.5986H137.287C138.431 96.5986 139.359 95.6711 139.359 94.5269V77.9531" stroke="#2A272F" stroke-width="2.07172" stroke-linecap="round"/>
<path d="M17.2612 182.622C16.694 182.622 16.2005 182.519 15.7806 182.312C15.3608 182.106 15.0367 181.819 14.8083 181.451C14.58 181.082 14.4658 180.655 14.4658 180.169H15.4381C15.4381 180.471 15.5081 180.751 15.648 181.009C15.788 181.259 15.9906 181.462 16.2557 181.616C16.5283 181.764 16.8635 181.837 17.2612 181.837C17.7842 181.837 18.1894 181.712 18.4766 181.462C18.7639 181.211 18.9076 180.898 18.9076 180.523C18.9076 180.213 18.8413 179.966 18.7087 179.782C18.5761 179.591 18.3956 179.436 18.1673 179.318C17.9463 179.2 17.6885 179.097 17.3938 179.009C17.1065 178.92 16.8045 178.821 16.4878 178.71C15.8911 178.504 15.4492 178.25 15.1619 177.948C14.8746 177.639 14.731 177.237 14.731 176.744C14.7236 176.331 14.8194 175.967 15.0182 175.65C15.2171 175.326 15.497 175.075 15.858 174.898C16.2263 174.714 16.6609 174.622 17.1618 174.622C17.6553 174.622 18.0825 174.714 18.4435 174.898C18.8118 175.083 19.0954 175.337 19.2943 175.661C19.5005 175.985 19.6073 176.353 19.6147 176.766H18.6424C18.6424 176.552 18.5871 176.342 18.4766 176.136C18.3661 175.922 18.1967 175.749 17.9684 175.617C17.7474 175.484 17.4675 175.418 17.1286 175.418C16.7088 175.41 16.3626 175.517 16.09 175.738C15.8248 175.959 15.6922 176.265 15.6922 176.655C15.6922 176.987 15.7843 177.241 15.9685 177.418C16.16 177.594 16.4252 177.742 16.764 177.86C17.1029 177.97 17.4933 178.099 17.9352 178.246C18.3035 178.379 18.635 178.534 18.9297 178.71C19.2243 178.887 19.4526 179.116 19.6147 179.395C19.7841 179.675 19.8688 180.033 19.8688 180.467C19.8688 180.836 19.7731 181.185 19.5816 181.517C19.39 181.841 19.0991 182.106 18.7087 182.312C18.3256 182.519 17.8431 182.622 17.2612 182.622ZM23.2678 182.622C22.6196 182.622 22.104 182.427 21.721 182.036C21.3379 181.638 21.1464 181.031 21.1464 180.213V177.009H22.0745V180.114C22.0745 181.255 22.5423 181.826 23.4778 181.826C23.9566 181.826 24.3507 181.657 24.66 181.318C24.9768 180.972 25.1352 180.482 25.1352 179.849V177.009H26.0633V182.489H25.2235L25.1573 181.506C24.9878 181.852 24.7337 182.125 24.3949 182.324C24.0634 182.522 23.6877 182.622 23.2678 182.622ZM27.7291 184.92V177.009H28.5689L28.6573 177.915C28.834 177.65 29.0845 177.41 29.4086 177.197C29.7401 176.983 30.1599 176.876 30.6682 176.876C31.2133 176.876 31.6884 177.001 32.0936 177.252C32.4987 177.502 32.8118 177.845 33.0327 178.28C33.2611 178.714 33.3753 179.208 33.3753 179.76C33.3753 180.313 33.2611 180.806 33.0327 181.241C32.8118 181.668 32.495 182.007 32.0825 182.257C31.6774 182.5 31.2023 182.622 30.6572 182.622C30.2078 182.622 29.8064 182.53 29.4528 182.346C29.1066 182.161 28.8414 181.904 28.6573 181.572V184.92H27.7291ZM30.5577 181.815C30.926 181.815 31.2501 181.731 31.53 181.561C31.81 181.384 32.0309 181.141 32.193 180.832C32.3551 180.523 32.4361 180.162 32.4361 179.749C32.4361 179.337 32.3551 178.976 32.193 178.666C32.0309 178.357 31.81 178.117 31.53 177.948C31.2501 177.771 30.926 177.683 30.5577 177.683C30.1894 177.683 29.8653 177.771 29.5854 177.948C29.3055 178.117 29.0845 178.357 28.9224 178.666C28.7604 178.976 28.6794 179.337 28.6794 179.749C28.6794 180.162 28.7604 180.523 28.9224 180.832C29.0845 181.141 29.3055 181.384 29.5854 181.561C29.8653 181.731 30.1894 181.815 30.5577 181.815ZM34.8054 184.92V177.009H35.6451L35.7335 177.915C35.9103 177.65 36.1607 177.41 36.4848 177.197C36.8163 176.983 37.2362 176.876 37.7444 176.876C38.2895 176.876 38.7646 177.001 39.1698 177.252C39.5749 177.502 39.888 177.845 40.109 178.28C40.3373 178.714 40.4515 179.208 40.4515 179.76C40.4515 180.313 40.3373 180.806 40.109 181.241C39.888 181.668 39.5712 182.007 39.1587 182.257C38.7536 182.5 38.2785 182.622 37.7334 182.622C37.2841 182.622 36.8826 182.53 36.529 182.346C36.1828 182.161 35.9176 181.904 35.7335 181.572V184.92H34.8054ZM37.6339 181.815C38.0023 181.815 38.3264 181.731 38.6063 181.561C38.8862 181.384 39.1072 181.141 39.2692 180.832C39.4313 180.523 39.5123 180.162 39.5123 179.749C39.5123 179.337 39.4313 178.976 39.2692 178.666C39.1072 178.357 38.8862 178.117 38.6063 177.948C38.3264 177.771 38.0023 177.683 37.6339 177.683C37.2656 177.683 36.9415 177.771 36.6616 177.948C36.3817 178.117 36.1607 178.357 35.9987 178.666C35.8366 178.976 35.7556 179.337 35.7556 179.749C35.7556 180.162 35.8366 180.523 35.9987 180.832C36.1607 181.141 36.3817 181.384 36.6616 181.561C36.9415 181.731 37.2656 181.815 37.6339 181.815ZM44.3787 182.622C43.8631 182.622 43.399 182.504 42.9865 182.268C42.574 182.033 42.2462 181.701 42.0031 181.274C41.7674 180.839 41.6496 180.331 41.6496 179.749C41.6496 179.167 41.7711 178.663 42.0142 178.235C42.2573 177.801 42.585 177.466 42.9976 177.23C43.4174 176.994 43.8852 176.876 44.4008 176.876C44.9164 176.876 45.3805 176.994 45.793 177.23C46.2055 177.466 46.5296 177.801 46.7653 178.235C47.0084 178.663 47.13 179.167 47.13 179.749C47.13 180.331 47.0084 180.839 46.7653 181.274C46.5222 181.701 46.1908 182.033 45.7709 182.268C45.3584 182.504 44.8943 182.622 44.3787 182.622ZM44.3787 181.826C44.6954 181.826 44.9901 181.749 45.2626 181.594C45.5352 181.44 45.7562 181.208 45.9256 180.898C46.095 180.589 46.1797 180.206 46.1797 179.749C46.1797 179.292 46.095 178.909 45.9256 178.6C45.7635 178.291 45.5462 178.059 45.2737 177.904C45.0011 177.749 44.7102 177.672 44.4008 177.672C44.0841 177.672 43.7894 177.749 43.5169 177.904C43.2443 178.059 43.0233 178.291 42.8539 178.6C42.6845 178.909 42.5998 179.292 42.5998 179.749C42.5998 180.206 42.6845 180.589 42.8539 180.898C43.0233 181.208 43.2406 181.44 43.5058 181.594C43.7784 181.749 44.0693 181.826 44.3787 181.826ZM48.5586 182.489V177.009H49.3983L49.4757 178.059C49.6451 177.698 49.9029 177.41 50.2491 177.197C50.5953 176.983 51.0225 176.876 51.5308 176.876V177.849H51.2767C50.9526 177.849 50.6542 177.908 50.3817 178.025C50.1091 178.136 49.8918 178.327 49.7298 178.6C49.5677 178.872 49.4867 179.248 49.4867 179.727V182.489H48.5586ZM54.8763 182.489C54.3754 182.489 53.9813 182.368 53.694 182.125C53.4068 181.882 53.2631 181.443 53.2631 180.81V177.793H52.3129V177.009H53.2631L53.3847 175.694H54.1912V177.009H55.8044V177.793H54.1912V180.81C54.1912 181.156 54.2612 181.392 54.4012 181.517C54.5411 181.635 54.7879 181.694 55.1415 181.694H55.716V182.489H54.8763ZM59.4346 182.622C58.9116 182.622 58.4475 182.504 58.0424 182.268C57.6373 182.025 57.3168 181.69 57.0811 181.263C56.8528 180.836 56.7386 180.331 56.7386 179.749C56.7386 179.175 56.8528 178.674 57.0811 178.246C57.3095 177.812 57.6262 177.477 58.0314 177.241C58.4439 176.998 58.919 176.876 59.4567 176.876C59.9871 176.876 60.4438 176.998 60.8268 177.241C61.2172 177.477 61.5155 177.79 61.7218 178.18C61.928 178.57 62.0312 178.99 62.0312 179.44C62.0312 179.521 62.0275 179.602 62.0201 179.683C62.0201 179.764 62.0201 179.856 62.0201 179.959H57.6557C57.6778 180.379 57.7735 180.729 57.943 181.009C58.1198 181.281 58.3371 181.487 58.5949 181.627C58.8601 181.767 59.14 181.837 59.4346 181.837C59.8176 181.837 60.1381 181.749 60.3959 181.572C60.6537 181.395 60.8415 181.156 60.9594 180.854H61.8765C61.7292 181.362 61.4456 181.786 61.0257 182.125C60.6132 182.456 60.0828 182.622 59.4346 182.622ZM59.4346 177.661C58.9926 177.661 58.5986 177.797 58.2523 178.07C57.9135 178.335 57.7183 178.725 57.6667 179.241H61.1141C61.092 178.747 60.9226 178.361 60.6058 178.081C60.2891 177.801 59.8987 177.661 59.4346 177.661ZM65.8855 182.622C65.3404 182.622 64.8616 182.497 64.4491 182.246C64.044 181.996 63.7272 181.653 63.4989 181.219C63.2779 180.784 63.1674 180.29 63.1674 179.738C63.1674 179.186 63.2816 178.696 63.5099 178.268C63.7383 177.834 64.055 177.495 64.4602 177.252C64.8653 177.001 65.3441 176.876 65.8966 176.876C66.3459 176.876 66.7437 176.968 67.0899 177.152C67.4361 177.337 67.705 177.594 67.8965 177.926V174.534H68.8246V182.489H67.9849L67.8965 181.583C67.7197 181.848 67.4656 182.088 67.1341 182.301C66.8026 182.515 66.3864 182.622 65.8855 182.622ZM65.985 181.815C66.3533 181.815 66.6774 181.731 66.9573 181.561C67.2446 181.384 67.4656 181.141 67.6202 180.832C67.7823 180.523 67.8633 180.162 67.8633 179.749C67.8633 179.337 67.7823 178.976 67.6202 178.666C67.4656 178.357 67.2446 178.117 66.9573 177.948C66.6774 177.771 66.3533 177.683 65.985 177.683C65.624 177.683 65.2999 177.771 65.0126 177.948C64.7327 178.117 64.5117 178.357 64.3497 178.666C64.195 178.976 64.1176 179.337 64.1176 179.749C64.1176 180.162 64.195 180.523 64.3497 180.832C64.5117 181.141 64.7327 181.384 65.0126 181.561C65.2999 181.731 65.624 181.815 65.985 181.815ZM73.8363 182.489V177.793H73.0076V177.009H73.8363V176.059C73.8363 175.528 73.9689 175.142 74.234 174.898C74.4992 174.655 74.886 174.534 75.3942 174.534H75.9467V175.329H75.5379C75.2579 175.329 75.0591 175.388 74.9412 175.506C74.8233 175.617 74.7644 175.808 74.7644 176.081V177.009H76.1124V177.793H74.7644V182.489H73.8363ZM79.6368 182.622C79.1212 182.622 78.6572 182.504 78.2446 182.268C77.8321 182.033 77.5044 181.701 77.2613 181.274C77.0256 180.839 76.9077 180.331 76.9077 179.749C76.9077 179.167 77.0292 178.663 77.2723 178.235C77.5154 177.801 77.8432 177.466 78.2557 177.23C78.6756 176.994 79.1433 176.876 79.6589 176.876C80.1746 176.876 80.6386 176.994 81.0511 177.23C81.4636 177.466 81.7878 177.801 82.0235 178.235C82.2666 178.663 82.3881 179.167 82.3881 179.749C82.3881 180.331 82.2666 180.839 82.0235 181.274C81.7804 181.701 81.4489 182.033 81.029 182.268C80.6165 182.504 80.1525 182.622 79.6368 182.622ZM79.6368 181.826C79.9536 181.826 80.2482 181.749 80.5208 181.594C80.7933 181.44 81.0143 181.208 81.1837 180.898C81.3532 180.589 81.4379 180.206 81.4379 179.749C81.4379 179.292 81.3532 178.909 81.1837 178.6C81.0217 178.291 80.8044 178.059 80.5318 177.904C80.2593 177.749 79.9683 177.672 79.6589 177.672C79.3422 177.672 79.0476 177.749 78.775 177.904C78.5025 178.059 78.2815 178.291 78.1121 178.6C77.9426 178.909 77.8579 179.292 77.8579 179.749C77.8579 180.206 77.9426 180.589 78.1121 180.898C78.2815 181.208 78.4988 181.44 78.764 181.594C79.0365 181.749 79.3275 181.826 79.6368 181.826ZM83.8167 182.489V177.009H84.6565L84.7338 178.059C84.9032 177.698 85.161 177.41 85.5072 177.197C85.8535 176.983 86.2807 176.876 86.7889 176.876V177.849H86.5348C86.2107 177.849 85.9124 177.908 85.6398 178.025C85.3673 178.136 85.15 178.327 84.9879 178.6C84.8259 178.872 84.7448 179.248 84.7448 179.727V182.489H83.8167ZM87.9688 182.489V177.009H88.8085L88.8748 177.804C89.0516 177.51 89.2873 177.281 89.582 177.119C89.8766 176.957 90.2081 176.876 90.5764 176.876C91.011 176.876 91.383 176.965 91.6924 177.141C92.0091 177.318 92.2522 177.587 92.4216 177.948C92.6131 177.617 92.8746 177.355 93.2061 177.164C93.545 176.972 93.9096 176.876 94.3 176.876C94.9556 176.876 95.4786 177.075 95.869 177.473C96.2594 177.863 96.4546 178.467 96.4546 179.285V182.489H95.5375V179.384C95.5375 178.817 95.4233 178.39 95.195 178.103C94.9666 177.815 94.6388 177.672 94.2116 177.672C93.7696 177.672 93.4013 177.845 93.1067 178.191C92.8194 178.53 92.6758 179.016 92.6758 179.65V182.489H91.7476V179.384C91.7476 178.817 91.6334 178.39 91.4051 178.103C91.1767 177.815 90.849 177.672 90.4217 177.672C89.9871 177.672 89.6225 177.845 89.3279 178.191C89.0406 178.53 88.8969 179.016 88.8969 179.65V182.489H87.9688ZM99.8139 182.622C99.3572 182.622 98.9778 182.545 98.6758 182.39C98.3738 182.235 98.1491 182.029 98.0018 181.771C97.8545 181.513 97.7808 181.233 97.7808 180.931C97.7808 180.371 97.9944 179.941 98.4217 179.639C98.8489 179.337 99.4308 179.186 100.167 179.186H101.648V179.119C101.648 178.64 101.523 178.28 101.272 178.036C101.022 177.786 100.687 177.661 100.267 177.661C99.906 177.661 99.5929 177.753 99.3277 177.937C99.0699 178.114 98.9078 178.375 98.8415 178.721H97.8913C97.9281 178.324 98.0607 177.989 98.2891 177.716C98.5248 177.443 98.8158 177.237 99.162 177.097C99.5082 176.95 99.8765 176.876 100.267 176.876C101.033 176.876 101.608 177.083 101.991 177.495C102.381 177.9 102.576 178.442 102.576 179.119V182.489H101.747L101.692 181.506C101.538 181.815 101.309 182.08 101.007 182.301C100.713 182.515 100.315 182.622 99.8139 182.622ZM99.9575 181.837C100.311 181.837 100.613 181.745 100.864 181.561C101.121 181.377 101.317 181.138 101.449 180.843C101.582 180.548 101.648 180.239 101.648 179.915V179.904H100.245C99.6997 179.904 99.313 180 99.0846 180.191C98.8636 180.375 98.7532 180.607 98.7532 180.887C98.7532 181.174 98.8563 181.406 99.0625 181.583C99.2761 181.753 99.5745 181.837 99.9575 181.837ZM106.121 182.489C105.62 182.489 105.226 182.368 104.939 182.125C104.652 181.882 104.508 181.443 104.508 180.81V177.793H103.558V177.009H104.508L104.63 175.694H105.436V177.009H107.049V177.793H105.436V180.81C105.436 181.156 105.506 181.392 105.646 181.517C105.786 181.635 106.033 181.694 106.386 181.694H106.961V182.489H106.121ZM110.466 182.622C109.81 182.622 109.265 182.456 108.831 182.125C108.396 181.793 108.142 181.344 108.068 180.777H109.019C109.077 181.064 109.228 181.314 109.472 181.528C109.722 181.734 110.057 181.837 110.477 181.837C110.867 181.837 111.155 181.756 111.339 181.594C111.523 181.425 111.615 181.226 111.615 180.998C111.615 180.666 111.494 180.445 111.25 180.335C111.015 180.224 110.68 180.125 110.245 180.036C109.95 179.977 109.656 179.893 109.361 179.782C109.066 179.672 108.82 179.517 108.621 179.318C108.422 179.112 108.322 178.843 108.322 178.512C108.322 178.033 108.499 177.642 108.853 177.34C109.214 177.031 109.7 176.876 110.311 176.876C110.893 176.876 111.368 177.024 111.737 177.318C112.112 177.606 112.33 178.018 112.389 178.556H111.471C111.435 178.276 111.313 178.059 111.107 177.904C110.908 177.742 110.639 177.661 110.3 177.661C109.969 177.661 109.711 177.731 109.527 177.871C109.35 178.011 109.262 178.195 109.262 178.423C109.262 178.644 109.376 178.817 109.604 178.942C109.84 179.068 110.157 179.175 110.554 179.263C110.893 179.337 111.214 179.429 111.516 179.539C111.825 179.642 112.075 179.801 112.267 180.014C112.466 180.22 112.565 180.523 112.565 180.92C112.573 181.414 112.385 181.823 112.002 182.147C111.626 182.463 111.114 182.622 110.466 182.622ZM114.35 182.545C114.166 182.545 114.011 182.486 113.886 182.368C113.768 182.242 113.709 182.091 113.709 181.915C113.709 181.738 113.768 181.591 113.886 181.473C114.011 181.348 114.166 181.285 114.35 181.285C114.527 181.285 114.674 181.348 114.792 181.473C114.917 181.591 114.98 181.738 114.98 181.915C114.98 182.091 114.917 182.242 114.792 182.368C114.674 182.486 114.527 182.545 114.35 182.545ZM114.35 178.136C114.166 178.136 114.011 178.077 113.886 177.959C113.768 177.834 113.709 177.683 113.709 177.506C113.709 177.329 113.768 177.182 113.886 177.064C114.011 176.939 114.166 176.876 114.35 176.876C114.527 176.876 114.674 176.939 114.792 177.064C114.917 177.182 114.98 177.329 114.98 177.506C114.98 177.683 114.917 177.834 114.792 177.959C114.674 178.077 114.527 178.136 114.35 178.136ZM121.21 182.622C120.51 182.622 119.961 182.427 119.564 182.036C119.166 181.646 118.967 181.104 118.967 180.412H119.906C119.906 180.802 120.002 181.13 120.193 181.395C120.385 181.661 120.72 181.793 121.199 181.793C121.663 181.793 121.983 181.664 122.16 181.406C122.344 181.149 122.436 180.828 122.436 180.445V174.755H123.364V180.445C123.364 181.13 123.173 181.664 122.79 182.047C122.414 182.43 121.888 182.622 121.21 182.622ZM125.138 182.489V174.755H127.679C128.283 174.755 128.781 174.854 129.171 175.053C129.561 175.252 129.849 175.521 130.033 175.86C130.224 176.199 130.32 176.582 130.32 177.009C130.32 177.429 130.228 177.808 130.044 178.147C129.86 178.486 129.573 178.758 129.182 178.965C128.792 179.163 128.291 179.263 127.679 179.263H126.066V182.489H125.138ZM126.066 178.478H127.657C128.276 178.478 128.714 178.349 128.972 178.092C129.237 177.826 129.37 177.466 129.37 177.009C129.37 176.545 129.237 176.184 128.972 175.926C128.714 175.661 128.276 175.528 127.657 175.528H126.066V178.478ZM131.675 182.489V174.755H136.459V175.517H132.603V178.213H136.128V178.965H132.603V181.727H136.459V182.489H131.675ZM141.375 182.622C140.654 182.622 140.02 182.456 139.475 182.125C138.93 181.786 138.506 181.318 138.204 180.721C137.902 180.117 137.751 179.421 137.751 178.633C137.751 177.845 137.902 177.149 138.204 176.545C138.514 175.941 138.948 175.469 139.508 175.13C140.075 174.792 140.742 174.622 141.508 174.622C142.377 174.622 143.099 174.832 143.674 175.252C144.256 175.672 144.631 176.25 144.801 176.987H143.729C143.626 176.523 143.379 176.154 142.989 175.882C142.606 175.609 142.112 175.473 141.508 175.473C140.941 175.473 140.447 175.602 140.027 175.86C139.608 176.11 139.28 176.471 139.044 176.943C138.816 177.414 138.702 177.978 138.702 178.633C138.702 179.289 138.816 179.852 139.044 180.324C139.272 180.795 139.589 181.16 139.994 181.417C140.399 181.668 140.871 181.793 141.409 181.793C142.234 181.793 142.856 181.554 143.276 181.075C143.696 180.589 143.935 179.926 143.994 179.086H141.762V178.357H144.944V182.489H144.094L144.016 181.219C143.736 181.668 143.394 182.014 142.989 182.257C142.584 182.5 142.046 182.622 141.375 182.622ZM145.755 183.804L146.396 181.362H147.357L146.396 183.804H145.755ZM151.714 182.489V174.755H154.256C154.86 174.755 155.357 174.854 155.747 175.053C156.138 175.252 156.425 175.521 156.609 175.86C156.801 176.199 156.897 176.582 156.897 177.009C156.897 177.429 156.804 177.808 156.62 178.147C156.436 178.486 156.149 178.758 155.758 178.965C155.368 179.163 154.867 179.263 154.256 179.263H152.643V182.489H151.714ZM152.643 178.478H154.234C154.852 178.478 155.291 178.349 155.548 178.092C155.814 177.826 155.946 177.466 155.946 177.009C155.946 176.545 155.814 176.184 155.548 175.926C155.291 175.661 154.852 175.528 154.234 175.528H152.643V178.478ZM158.251 182.489V174.755H159.179L163.301 180.953V174.755H164.229V182.489H163.301L159.179 176.291V182.489H158.251ZM169.333 182.622C168.611 182.622 167.978 182.456 167.433 182.125C166.887 181.786 166.464 181.318 166.162 180.721C165.86 180.117 165.709 179.421 165.709 178.633C165.709 177.845 165.86 177.149 166.162 176.545C166.471 175.941 166.906 175.469 167.466 175.13C168.033 174.792 168.699 174.622 169.466 174.622C170.335 174.622 171.057 174.832 171.631 175.252C172.213 175.672 172.589 176.25 172.758 176.987H171.686C171.583 176.523 171.337 176.154 170.946 175.882C170.563 175.609 170.07 175.473 169.466 175.473C168.898 175.473 168.405 175.602 167.985 175.86C167.565 176.11 167.237 176.471 167.002 176.943C166.773 177.414 166.659 177.978 166.659 178.633C166.659 179.289 166.773 179.852 167.002 180.324C167.23 180.795 167.547 181.16 167.952 181.417C168.357 181.668 168.828 181.793 169.366 181.793C170.191 181.793 170.814 181.554 171.233 181.075C171.653 180.589 171.893 179.926 171.952 179.086H169.72V178.357H172.902V182.489H172.051L171.974 181.219C171.694 181.668 171.351 182.014 170.946 182.257C170.541 182.5 170.003 182.622 169.333 182.622ZM173.712 183.804L174.353 181.362H175.314L174.353 183.804H173.712ZM179.672 182.489V174.755H182.213C182.817 174.755 183.314 174.854 183.705 175.053C184.095 175.252 184.383 175.521 184.567 175.86C184.758 176.199 184.854 176.582 184.854 177.009C184.854 177.429 184.762 177.808 184.578 178.147C184.394 178.486 184.106 178.758 183.716 178.965C183.326 179.163 182.825 179.263 182.213 179.263H180.6V182.489H179.672ZM180.6 178.478H182.191C182.81 178.478 183.248 178.349 183.506 178.092C183.771 177.826 183.904 177.466 183.904 177.009C183.904 176.545 183.771 176.184 183.506 175.926C183.248 175.661 182.81 175.528 182.191 175.528H180.6V178.478ZM186.209 182.489V174.755H188.584C189.947 174.755 190.949 175.101 191.59 175.793C192.238 176.486 192.562 177.436 192.562 178.644C192.562 179.83 192.238 180.769 191.59 181.462C190.949 182.147 189.947 182.489 188.584 182.489H186.209ZM187.137 181.716H188.562C189.313 181.716 189.91 181.594 190.352 181.351C190.801 181.101 191.122 180.747 191.313 180.29C191.505 179.826 191.601 179.278 191.601 178.644C191.601 177.996 191.505 177.44 191.313 176.976C191.122 176.512 190.801 176.154 190.352 175.904C189.91 175.653 189.313 175.528 188.562 175.528H187.137V181.716ZM194.04 182.489V174.755H198.747V175.517H194.968V178.235H198.184V178.987H194.968V182.489H194.04ZM198.627 183.804L199.268 181.362H200.229L199.268 183.804H198.627ZM206.178 182.5L204.056 174.755H205.051L206.719 181.395L208.62 174.755H209.647L211.492 181.395L213.183 174.755H214.177L212.012 182.489H210.951L209.106 176.103L207.216 182.489L206.178 182.5ZM217.288 182.622C216.772 182.622 216.308 182.504 215.896 182.268C215.483 182.033 215.155 181.701 214.912 181.274C214.676 180.839 214.559 180.331 214.559 179.749C214.559 179.167 214.68 178.663 214.923 178.235C215.166 177.801 215.494 177.466 215.907 177.23C216.326 176.994 216.794 176.876 217.31 176.876C217.825 176.876 218.29 176.994 218.702 177.23C219.115 177.466 219.439 177.801 219.674 178.235C219.917 178.663 220.039 179.167 220.039 179.749C220.039 180.331 219.917 180.839 219.674 181.274C219.431 181.701 219.1 182.033 218.68 182.268C218.267 182.504 217.803 182.622 217.288 182.622ZM217.288 181.826C217.604 181.826 217.899 181.749 218.172 181.594C218.444 181.44 218.665 181.208 218.835 180.898C219.004 180.589 219.089 180.206 219.089 179.749C219.089 179.292 219.004 178.909 218.835 178.6C218.673 178.291 218.455 178.059 218.183 177.904C217.91 177.749 217.619 177.672 217.31 177.672C216.993 177.672 216.698 177.749 216.426 177.904C216.153 178.059 215.932 178.291 215.763 178.6C215.594 178.909 215.509 179.292 215.509 179.749C215.509 180.206 215.594 180.589 215.763 180.898C215.932 181.208 216.15 181.44 216.415 181.594C216.687 181.749 216.978 181.826 217.288 181.826ZM221.468 182.489V177.009H222.307L222.385 178.059C222.554 177.698 222.812 177.41 223.158 177.197C223.504 176.983 223.932 176.876 224.44 176.876V177.849H224.186C223.862 177.849 223.563 177.908 223.291 178.025C223.018 178.136 222.801 178.327 222.639 178.6C222.477 178.872 222.396 179.248 222.396 179.727V182.489H221.468ZM227.901 182.622C227.356 182.622 226.877 182.497 226.464 182.246C226.059 181.996 225.742 181.653 225.514 181.219C225.293 180.784 225.183 180.29 225.183 179.738C225.183 179.186 225.297 178.696 225.525 178.268C225.754 177.834 226.07 177.495 226.475 177.252C226.881 177.001 227.359 176.876 227.912 176.876C228.361 176.876 228.759 176.968 229.105 177.152C229.451 177.337 229.72 177.594 229.912 177.926V174.534H230.84V182.489H230L229.912 181.583C229.735 181.848 229.481 182.088 229.149 182.301C228.818 182.515 228.402 182.622 227.901 182.622ZM228 181.815C228.369 181.815 228.693 181.731 228.973 181.561C229.26 181.384 229.481 181.141 229.635 180.832C229.798 180.523 229.879 180.162 229.879 179.749C229.879 179.337 229.798 178.976 229.635 178.666C229.481 178.357 229.26 178.117 228.973 177.948C228.693 177.771 228.369 177.683 228 177.683C227.639 177.683 227.315 177.771 227.028 177.948C226.748 178.117 226.527 178.357 226.365 178.666C226.21 178.976 226.133 179.337 226.133 179.749C226.133 180.162 226.21 180.523 226.365 180.832C226.527 181.141 226.748 181.384 227.028 181.561C227.315 181.731 227.639 181.815 228 181.815Z" fill="#1E1A1A"/>
<path d="M78.262 121.028V113.294H80.9801C81.5252 113.294 81.9745 113.382 82.3281 113.559C82.689 113.728 82.9579 113.964 83.1347 114.266C83.3115 114.561 83.3999 114.892 83.3999 115.261C83.3999 115.762 83.2636 116.156 82.991 116.443C82.7259 116.73 82.4054 116.929 82.0298 117.04C82.317 117.091 82.5785 117.205 82.8143 117.382C83.05 117.559 83.2341 117.78 83.3667 118.045C83.5067 118.31 83.5767 118.601 83.5767 118.918C83.5767 119.308 83.4809 119.666 83.2894 119.99C83.0979 120.306 82.8143 120.561 82.4386 120.752C82.0629 120.936 81.6062 121.028 81.0685 121.028H78.262ZM79.1901 116.675H80.9138C81.4073 116.675 81.7867 116.561 82.0519 116.332C82.317 116.097 82.4496 115.773 82.4496 115.36C82.4496 114.97 82.317 114.657 82.0519 114.421C81.794 114.185 81.4036 114.067 80.8806 114.067H79.1901V116.675ZM79.1901 120.255H80.969C81.4994 120.255 81.9082 120.133 82.1955 119.89C82.4828 119.64 82.6264 119.294 82.6264 118.852C82.6264 118.417 82.4754 118.071 82.1734 117.813C81.8714 117.548 81.4626 117.415 80.9469 117.415H79.1901V120.255ZM84.9916 121.028V115.548H85.8314L85.9087 116.598C86.0781 116.237 86.336 115.949 86.6822 115.736C87.0284 115.522 87.4556 115.415 87.9639 115.415V116.388H87.7097C87.3856 116.388 87.0873 116.447 86.8148 116.564C86.5422 116.675 86.3249 116.866 86.1629 117.139C86.0008 117.412 85.9198 117.787 85.9198 118.266V121.028H84.9916ZM91.4358 121.161C90.9202 121.161 90.4561 121.043 90.0436 120.807C89.6311 120.572 89.3033 120.24 89.0602 119.813C88.8245 119.378 88.7067 118.87 88.7067 118.288C88.7067 117.706 88.8282 117.202 89.0713 116.774C89.3144 116.34 89.6422 116.005 90.0547 115.769C90.4745 115.533 90.9423 115.415 91.4579 115.415C91.9735 115.415 92.4376 115.533 92.8501 115.769C93.2626 116.005 93.5867 116.34 93.8224 116.774C94.0655 117.202 94.1871 117.706 94.1871 118.288C94.1871 118.87 94.0655 119.378 93.8224 119.813C93.5794 120.24 93.2479 120.572 92.828 120.807C92.4155 121.043 91.9514 121.161 91.4358 121.161ZM91.4358 120.365C91.7526 120.365 92.0472 120.288 92.3198 120.133C92.5923 119.979 92.8133 119.747 92.9827 119.437C93.1521 119.128 93.2368 118.745 93.2368 118.288C93.2368 117.831 93.1521 117.448 92.9827 117.139C92.8207 116.83 92.6034 116.598 92.3308 116.443C92.0583 116.288 91.7673 116.211 91.4579 116.211C91.1412 116.211 90.8465 116.288 90.574 116.443C90.3014 116.598 90.0805 116.83 89.911 117.139C89.7416 117.448 89.6569 117.831 89.6569 118.288C89.6569 118.745 89.7416 119.128 89.911 119.437C90.0805 119.747 90.2978 119.979 90.5629 120.133C90.8355 120.288 91.1264 120.365 91.4358 120.365ZM96.5156 121.028L94.9135 115.548H95.8416L97.0018 119.846L98.2835 115.548H99.3331L100.626 119.846L101.775 115.548H102.714L101.112 121.028H100.162L98.8138 116.509L97.4658 121.028H96.5156ZM105.978 121.161C105.323 121.161 104.778 120.995 104.343 120.664C103.908 120.332 103.654 119.883 103.581 119.316H104.531C104.59 119.603 104.741 119.853 104.984 120.067C105.234 120.273 105.569 120.376 105.989 120.376C106.38 120.376 106.667 120.295 106.851 120.133C107.035 119.964 107.127 119.765 107.127 119.537C107.127 119.205 107.006 118.984 106.763 118.874C106.527 118.763 106.192 118.664 105.757 118.575C105.463 118.516 105.168 118.432 104.873 118.321C104.579 118.211 104.332 118.056 104.133 117.857C103.934 117.651 103.835 117.382 103.835 117.051C103.835 116.572 104.011 116.181 104.365 115.879C104.726 115.57 105.212 115.415 105.824 115.415C106.405 115.415 106.881 115.563 107.249 115.857C107.625 116.145 107.842 116.557 107.901 117.095H106.984C106.947 116.815 106.825 116.598 106.619 116.443C106.42 116.281 106.151 116.2 105.812 116.2C105.481 116.2 105.223 116.27 105.039 116.41C104.862 116.55 104.774 116.734 104.774 116.962C104.774 117.183 104.888 117.356 105.116 117.482C105.352 117.607 105.669 117.714 106.067 117.802C106.405 117.876 106.726 117.968 107.028 118.078C107.337 118.181 107.588 118.34 107.779 118.553C107.978 118.76 108.078 119.062 108.078 119.459C108.085 119.953 107.897 120.362 107.514 120.686C107.138 121.003 106.626 121.161 105.978 121.161ZM112.006 121.161C111.483 121.161 111.018 121.043 110.613 120.807C110.208 120.564 109.888 120.229 109.652 119.802C109.424 119.375 109.31 118.87 109.31 118.288C109.31 117.714 109.424 117.213 109.652 116.785C109.88 116.351 110.197 116.016 110.602 115.78C111.015 115.537 111.49 115.415 112.028 115.415C112.558 115.415 113.015 115.537 113.398 115.78C113.788 116.016 114.086 116.329 114.293 116.719C114.499 117.11 114.602 117.529 114.602 117.979C114.602 118.06 114.598 118.141 114.591 118.222C114.591 118.303 114.591 118.395 114.591 118.498H110.227C110.249 118.918 110.344 119.268 110.514 119.548C110.691 119.82 110.908 120.027 111.166 120.166C111.431 120.306 111.711 120.376 112.006 120.376C112.389 120.376 112.709 120.288 112.967 120.111C113.225 119.934 113.412 119.695 113.53 119.393H114.447C114.3 119.901 114.016 120.325 113.597 120.664C113.184 120.995 112.654 121.161 112.006 121.161ZM112.006 116.2C111.564 116.2 111.169 116.336 110.823 116.609C110.484 116.874 110.289 117.264 110.238 117.78H113.685C113.663 117.286 113.493 116.9 113.177 116.62C112.86 116.34 112.47 116.2 112.006 116.2ZM121.198 121.028C120.697 121.028 120.303 120.907 120.016 120.664C119.729 120.421 119.585 119.982 119.585 119.349V116.332H118.635V115.548H119.585L119.707 114.233H120.513V115.548H122.126V116.332H120.513V119.349C120.513 119.695 120.583 119.931 120.723 120.056C120.863 120.174 121.11 120.233 121.463 120.233H122.038V121.028H121.198ZM125.79 121.161C125.274 121.161 124.81 121.043 124.398 120.807C123.985 120.572 123.657 120.24 123.414 119.813C123.178 119.378 123.061 118.87 123.061 118.288C123.061 117.706 123.182 117.202 123.425 116.774C123.668 116.34 123.996 116.005 124.409 115.769C124.828 115.533 125.296 115.415 125.812 115.415C126.327 115.415 126.792 115.533 127.204 115.769C127.617 116.005 127.941 116.34 128.176 116.774C128.419 117.202 128.541 117.706 128.541 118.288C128.541 118.87 128.419 119.378 128.176 119.813C127.933 120.24 127.602 120.572 127.182 120.807C126.769 121.043 126.305 121.161 125.79 121.161ZM125.79 120.365C126.106 120.365 126.401 120.288 126.674 120.133C126.946 119.979 127.167 119.747 127.337 119.437C127.506 119.128 127.591 118.745 127.591 118.288C127.591 117.831 127.506 117.448 127.337 117.139C127.175 116.83 126.957 116.598 126.685 116.443C126.412 116.288 126.121 116.211 125.812 116.211C125.495 116.211 125.2 116.288 124.928 116.443C124.655 116.598 124.434 116.83 124.265 117.139C124.096 117.448 124.011 117.831 124.011 118.288C124.011 118.745 124.096 119.128 124.265 119.437C124.434 119.747 124.652 119.979 124.917 120.133C125.189 120.288 125.48 120.365 125.79 120.365ZM135.032 121.161C134.384 121.161 133.868 120.966 133.485 120.575C133.102 120.178 132.91 119.57 132.91 118.752V115.548H133.838V118.653C133.838 119.794 134.306 120.365 135.242 120.365C135.721 120.365 136.115 120.196 136.424 119.857C136.741 119.511 136.899 119.021 136.899 118.388V115.548H137.827V121.028H136.987L136.921 120.045C136.752 120.391 136.498 120.664 136.159 120.863C135.827 121.061 135.452 121.161 135.032 121.161ZM139.493 123.459V115.548H140.333L140.421 116.454C140.598 116.189 140.848 115.949 141.173 115.736C141.504 115.522 141.924 115.415 142.432 115.415C142.977 115.415 143.452 115.541 143.857 115.791C144.263 116.041 144.576 116.384 144.797 116.819C145.025 117.253 145.139 117.747 145.139 118.299C145.139 118.852 145.025 119.345 144.797 119.78C144.576 120.207 144.259 120.546 143.846 120.796C143.441 121.039 142.966 121.161 142.421 121.161C141.972 121.161 141.57 121.069 141.217 120.885C140.871 120.701 140.605 120.443 140.421 120.111V123.459H139.493ZM142.322 120.354C142.69 120.354 143.014 120.27 143.294 120.1C143.574 119.923 143.795 119.68 143.957 119.371C144.119 119.062 144.2 118.701 144.2 118.288C144.2 117.876 144.119 117.515 143.957 117.205C143.795 116.896 143.574 116.657 143.294 116.487C143.014 116.31 142.69 116.222 142.322 116.222C141.953 116.222 141.629 116.31 141.349 116.487C141.069 116.657 140.848 116.896 140.686 117.205C140.524 117.515 140.443 117.876 140.443 118.288C140.443 118.701 140.524 119.062 140.686 119.371C140.848 119.68 141.069 119.923 141.349 120.1C141.629 120.27 141.953 120.354 142.322 120.354ZM146.569 121.028V113.073H147.497V121.028H146.569ZM151.654 121.161C151.138 121.161 150.674 121.043 150.262 120.807C149.849 120.572 149.521 120.24 149.278 119.813C149.043 119.378 148.925 118.87 148.925 118.288C148.925 117.706 149.046 117.202 149.289 116.774C149.532 116.34 149.86 116.005 150.273 115.769C150.693 115.533 151.16 115.415 151.676 115.415C152.192 115.415 152.656 115.533 153.068 115.769C153.481 116.005 153.805 116.34 154.041 116.774C154.284 117.202 154.405 117.706 154.405 118.288C154.405 118.87 154.284 119.378 154.041 119.813C153.797 120.24 153.466 120.572 153.046 120.807C152.634 121.043 152.17 121.161 151.654 121.161ZM151.654 120.365C151.971 120.365 152.265 120.288 152.538 120.133C152.81 119.979 153.031 119.747 153.201 119.437C153.37 119.128 153.455 118.745 153.455 118.288C153.455 117.831 153.37 117.448 153.201 117.139C153.039 116.83 152.821 116.598 152.549 116.443C152.276 116.288 151.985 116.211 151.676 116.211C151.359 116.211 151.065 116.288 150.792 116.443C150.52 116.598 150.299 116.83 150.129 117.139C149.96 117.448 149.875 117.831 149.875 118.288C149.875 118.745 149.96 119.128 150.129 119.437C150.299 119.747 150.516 119.979 150.781 120.133C151.054 120.288 151.345 120.365 151.654 120.365ZM157.657 121.161C157.2 121.161 156.821 121.084 156.519 120.929C156.217 120.774 155.992 120.568 155.845 120.31C155.698 120.052 155.624 119.772 155.624 119.47C155.624 118.911 155.837 118.48 156.265 118.178C156.692 117.876 157.274 117.725 158.01 117.725H159.491V117.658C159.491 117.18 159.366 116.819 159.115 116.575C158.865 116.325 158.53 116.2 158.11 116.2C157.749 116.2 157.436 116.292 157.171 116.476C156.913 116.653 156.751 116.914 156.685 117.261H155.734C155.771 116.863 155.904 116.528 156.132 116.255C156.368 115.983 156.659 115.776 157.005 115.636C157.351 115.489 157.72 115.415 158.11 115.415C158.876 115.415 159.451 115.622 159.834 116.034C160.224 116.439 160.419 116.981 160.419 117.658V121.028H159.591L159.535 120.045C159.381 120.354 159.152 120.62 158.85 120.84C158.556 121.054 158.158 121.161 157.657 121.161ZM157.801 120.376C158.154 120.376 158.456 120.284 158.707 120.1C158.964 119.916 159.16 119.677 159.292 119.382C159.425 119.087 159.491 118.778 159.491 118.454V118.443H158.088C157.543 118.443 157.156 118.539 156.928 118.73C156.707 118.914 156.596 119.146 156.596 119.426C156.596 119.713 156.699 119.945 156.906 120.122C157.119 120.292 157.418 120.376 157.801 120.376ZM164.436 121.161C163.891 121.161 163.412 121.036 162.999 120.785C162.594 120.535 162.277 120.192 162.049 119.758C161.828 119.323 161.718 118.83 161.718 118.277C161.718 117.725 161.832 117.235 162.06 116.808C162.289 116.373 162.605 116.034 163.01 115.791C163.416 115.541 163.894 115.415 164.447 115.415C164.896 115.415 165.294 115.507 165.64 115.692C165.986 115.876 166.255 116.134 166.447 116.465V113.073H167.375V121.028H166.535L166.447 120.122C166.27 120.387 166.016 120.627 165.684 120.84C165.353 121.054 164.937 121.161 164.436 121.161ZM164.535 120.354C164.903 120.354 165.228 120.27 165.508 120.1C165.795 119.923 166.016 119.68 166.17 119.371C166.333 119.062 166.414 118.701 166.414 118.288C166.414 117.876 166.333 117.515 166.17 117.205C166.016 116.896 165.795 116.657 165.508 116.487C165.228 116.31 164.903 116.222 164.535 116.222C164.174 116.222 163.85 116.31 163.563 116.487C163.283 116.657 163.062 116.896 162.9 117.205C162.745 117.515 162.668 117.876 162.668 118.288C162.668 118.701 162.745 119.062 162.9 119.371C163.062 119.68 163.283 119.923 163.563 120.1C163.85 120.27 164.174 120.354 164.535 120.354Z" fill="#1E1A1A"/>
<rect x="14.7101" y="10.6215" width="216.84" height="149.855" rx="3.79816" stroke="#2A272F" stroke-width="0.690574" stroke-dasharray="4.14 4.14"/>
<rect x="63.0391" y="204.323" width="105.359" height="26.6796" rx="13.3398" fill="#777480"/>
<path d="M78.9601 220.777C78.5036 220.777 78.0884 220.688 77.7143 220.511C77.3466 220.327 77.0518 220.045 76.8299 219.665C76.608 219.284 76.4971 218.799 76.4971 218.21V214.006H77.2959V218.219C77.2959 218.866 77.4512 219.335 77.7619 219.627C78.0725 219.918 78.4783 220.064 78.9791 220.064C79.48 220.064 79.8825 219.918 80.1868 219.627C80.4912 219.335 80.6433 218.866 80.6433 218.219V214.006H81.4421V218.21C81.4421 218.799 81.3312 219.284 81.1093 219.665C80.8874 220.045 80.5894 220.327 80.2154 220.511C79.8413 220.688 79.4229 220.777 78.9601 220.777ZM82.7473 222.755V215.946H83.4701L83.5461 216.726C83.6983 216.498 83.9139 216.292 84.1928 216.108C84.4781 215.924 84.8395 215.832 85.2769 215.832C85.7461 215.832 86.155 215.94 86.5037 216.155C86.8524 216.371 87.1218 216.666 87.312 217.04C87.5085 217.414 87.6068 217.839 87.6068 218.314C87.6068 218.79 87.5085 219.214 87.312 219.588C87.1218 219.956 86.8492 220.248 86.4942 220.463C86.1455 220.673 85.7366 220.777 85.2674 220.777C84.8807 220.777 84.5352 220.698 84.2308 220.539C83.9329 220.381 83.7046 220.159 83.5461 219.874V222.755H82.7473ZM85.1818 220.083C85.4988 220.083 85.7778 220.01 86.0187 219.864C86.2596 219.712 86.4498 219.503 86.5893 219.237C86.7287 218.97 86.7985 218.66 86.7985 218.305C86.7985 217.95 86.7287 217.639 86.5893 217.373C86.4498 217.106 86.2596 216.9 86.0187 216.755C85.7778 216.602 85.4988 216.526 85.1818 216.526C84.8648 216.526 84.5859 216.602 84.345 216.755C84.1041 216.9 83.9139 217.106 83.7744 217.373C83.6349 217.639 83.5652 217.95 83.5652 218.305C83.5652 218.66 83.6349 218.97 83.7744 219.237C83.9139 219.503 84.1041 219.712 84.345 219.864C84.5859 220.01 84.8648 220.083 85.1818 220.083ZM88.7188 220.663V213.816H89.5176V220.663H88.7188ZM92.9761 220.777C92.5323 220.777 92.1329 220.676 91.7778 220.473C91.4228 220.27 91.1407 219.985 90.9315 219.617C90.7286 219.243 90.6272 218.806 90.6272 218.305C90.6272 217.804 90.7318 217.37 90.941 217.002C91.1502 216.628 91.4323 216.339 91.7873 216.136C92.1487 215.934 92.5513 215.832 92.9951 215.832C93.4389 215.832 93.8383 215.934 94.1933 216.136C94.5483 216.339 94.8273 216.628 95.0302 217.002C95.2394 217.37 95.344 217.804 95.344 218.305C95.344 218.806 95.2394 219.243 95.0302 219.617C94.8209 219.985 94.5357 220.27 94.1743 220.473C93.8193 220.676 93.4198 220.777 92.9761 220.777ZM92.9761 220.093C93.2487 220.093 93.5023 220.026 93.7368 219.893C93.9714 219.76 94.1616 219.56 94.3074 219.294C94.4532 219.027 94.5261 218.698 94.5261 218.305C94.5261 217.912 94.4532 217.582 94.3074 217.316C94.1679 217.049 93.9809 216.85 93.7463 216.717C93.5118 216.583 93.2614 216.517 92.9951 216.517C92.7225 216.517 92.4689 216.583 92.2343 216.717C91.9997 216.85 91.8095 217.049 91.6637 217.316C91.5179 217.582 91.445 217.912 91.445 218.305C91.445 218.698 91.5179 219.027 91.6637 219.294C91.8095 219.56 91.9966 219.76 92.2248 219.893C92.4594 220.026 92.7098 220.093 92.9761 220.093ZM98.0238 220.777C97.6307 220.777 97.3042 220.711 97.0443 220.577C96.7844 220.444 96.591 220.267 96.4642 220.045C96.3374 219.823 96.274 219.582 96.274 219.322C96.274 218.84 96.4579 218.47 96.8256 218.21C97.1933 217.95 97.6941 217.82 98.3281 217.82H99.6024V217.763C99.6024 217.351 99.4946 217.04 99.2791 216.831C99.0635 216.615 98.7751 216.507 98.4137 216.507C98.103 216.507 97.8336 216.587 97.6054 216.745C97.3835 216.897 97.244 217.122 97.1869 217.42H96.3691C96.4008 217.078 96.5149 216.789 96.7114 216.555C96.9143 216.32 97.1647 216.143 97.4627 216.022C97.7607 215.896 98.0777 215.832 98.4137 215.832C99.073 215.832 99.5675 216.01 99.8972 216.365C100.233 216.713 100.401 217.179 100.401 217.763V220.663H99.688L99.6404 219.817C99.5073 220.083 99.3108 220.311 99.0508 220.501C98.7972 220.685 98.4549 220.777 98.0238 220.777ZM98.1474 220.102C98.4517 220.102 98.7117 220.023 98.9272 219.864C99.1491 219.706 99.3171 219.5 99.4312 219.246C99.5453 218.993 99.6024 218.726 99.6024 218.447V218.438H98.3947C97.9255 218.438 97.5927 218.52 97.3961 218.685C97.206 218.844 97.1109 219.043 97.1109 219.284C97.1109 219.531 97.1996 219.731 97.3771 219.883C97.561 220.029 97.8177 220.102 98.1474 220.102ZM103.739 220.777C103.27 220.777 102.858 220.669 102.503 220.454C102.154 220.238 101.882 219.944 101.685 219.569C101.495 219.195 101.4 218.771 101.4 218.295C101.4 217.82 101.498 217.398 101.695 217.03C101.891 216.656 102.164 216.365 102.513 216.155C102.861 215.94 103.273 215.832 103.749 215.832C104.136 215.832 104.478 215.911 104.776 216.07C105.074 216.228 105.305 216.45 105.47 216.736V213.816H106.269V220.663H105.546L105.47 219.883C105.318 220.112 105.099 220.318 104.814 220.501C104.529 220.685 104.17 220.777 103.739 220.777ZM103.825 220.083C104.142 220.083 104.421 220.01 104.662 219.864C104.909 219.712 105.099 219.503 105.232 219.237C105.372 218.97 105.442 218.66 105.442 218.305C105.442 217.95 105.372 217.639 105.232 217.373C105.099 217.106 104.909 216.9 104.662 216.755C104.421 216.602 104.142 216.526 103.825 216.526C103.514 216.526 103.235 216.602 102.988 216.755C102.747 216.9 102.557 217.106 102.417 217.373C102.284 217.639 102.218 217.95 102.218 218.305C102.218 218.66 102.284 218.97 102.417 219.237C102.557 219.503 102.747 219.712 102.988 219.864C103.235 220.01 103.514 220.083 103.825 220.083ZM110.135 220.663V214.006H112.18C113.353 214.006 114.215 214.304 114.767 214.9C115.324 215.496 115.603 216.314 115.603 217.354C115.603 218.374 115.324 219.183 114.767 219.779C114.215 220.368 113.353 220.663 112.18 220.663H110.135ZM110.934 219.997H112.161C112.808 219.997 113.321 219.893 113.701 219.684C114.088 219.468 114.364 219.164 114.529 218.771C114.694 218.371 114.776 217.899 114.776 217.354C114.776 216.796 114.694 216.317 114.529 215.918C114.364 215.518 114.088 215.211 113.701 214.995C113.321 214.78 112.808 214.672 112.161 214.672H110.934V219.997ZM118.858 220.777C118.415 220.777 118.015 220.676 117.66 220.473C117.305 220.27 117.023 219.985 116.814 219.617C116.611 219.243 116.51 218.806 116.51 218.305C116.51 217.804 116.614 217.37 116.823 217.002C117.033 216.628 117.315 216.339 117.67 216.136C118.031 215.934 118.434 215.832 118.877 215.832C119.321 215.832 119.721 215.934 120.076 216.136C120.431 216.339 120.71 216.628 120.913 217.002C121.122 217.37 121.226 217.804 121.226 218.305C121.226 218.806 121.122 219.243 120.913 219.617C120.703 219.985 120.418 220.27 120.057 220.473C119.702 220.676 119.302 220.777 118.858 220.777ZM118.858 220.093C119.131 220.093 119.385 220.026 119.619 219.893C119.854 219.76 120.044 219.56 120.19 219.294C120.336 219.027 120.409 218.698 120.409 218.305C120.409 217.912 120.336 217.582 120.19 217.316C120.05 217.049 119.863 216.85 119.629 216.717C119.394 216.583 119.144 216.517 118.877 216.517C118.605 216.517 118.351 216.583 118.117 216.717C117.882 216.85 117.692 217.049 117.546 217.316C117.4 217.582 117.327 217.912 117.327 218.305C117.327 218.698 117.4 219.027 117.546 219.294C117.692 219.56 117.879 219.76 118.107 219.893C118.342 220.026 118.592 220.093 118.858 220.093ZM124.505 220.777C124.055 220.777 123.649 220.676 123.288 220.473C122.933 220.264 122.651 219.975 122.442 219.608C122.239 219.233 122.137 218.799 122.137 218.305C122.137 217.81 122.239 217.379 122.442 217.011C122.651 216.637 122.933 216.349 123.288 216.146C123.649 215.937 124.055 215.832 124.505 215.832C125.063 215.832 125.532 215.978 125.913 216.27C126.299 216.561 126.544 216.951 126.645 217.439H125.827C125.764 217.148 125.608 216.923 125.361 216.764C125.114 216.599 124.825 216.517 124.496 216.517C124.229 216.517 123.979 216.583 123.744 216.717C123.51 216.85 123.32 217.049 123.174 217.316C123.028 217.582 122.955 217.912 122.955 218.305C122.955 218.698 123.028 219.027 123.174 219.294C123.32 219.56 123.51 219.763 123.744 219.902C123.979 220.035 124.229 220.102 124.496 220.102C124.825 220.102 125.114 220.023 125.361 219.864C125.608 219.699 125.764 219.468 125.827 219.17H126.645C126.55 219.646 126.309 220.032 125.922 220.33C125.535 220.628 125.063 220.777 124.505 220.777ZM129.482 220.777C128.924 220.777 128.48 220.609 128.15 220.273C127.821 219.931 127.656 219.408 127.656 218.704V215.946H128.455V218.618C128.455 219.601 128.857 220.093 129.663 220.093C130.075 220.093 130.414 219.947 130.68 219.655C130.953 219.357 131.089 218.935 131.089 218.39V215.946H131.888V220.663H131.165L131.108 219.817C130.962 220.115 130.743 220.349 130.452 220.52C130.167 220.692 129.843 220.777 129.482 220.777ZM133.203 220.663V215.946H133.925L133.982 216.631C134.135 216.377 134.337 216.181 134.591 216.041C134.845 215.902 135.13 215.832 135.447 215.832C135.821 215.832 136.141 215.908 136.407 216.06C136.68 216.213 136.889 216.444 137.035 216.755C137.2 216.469 137.425 216.244 137.71 216.079C138.002 215.915 138.316 215.832 138.652 215.832C139.216 215.832 139.666 216.003 140.002 216.346C140.338 216.682 140.506 217.202 140.506 217.905V220.663H139.717V217.991C139.717 217.503 139.619 217.135 139.422 216.888C139.225 216.64 138.943 216.517 138.576 216.517C138.195 216.517 137.878 216.666 137.625 216.964C137.377 217.255 137.254 217.674 137.254 218.219V220.663H136.455V217.991C136.455 217.503 136.357 217.135 136.16 216.888C135.964 216.64 135.682 216.517 135.314 216.517C134.94 216.517 134.626 216.666 134.372 216.964C134.125 217.255 134.001 217.674 134.001 218.219V220.663H133.203ZM143.83 220.777C143.38 220.777 142.981 220.676 142.632 220.473C142.283 220.264 142.007 219.975 141.804 219.608C141.608 219.24 141.51 218.806 141.51 218.305C141.51 217.81 141.608 217.379 141.804 217.011C142.001 216.637 142.274 216.349 142.622 216.146C142.977 215.937 143.386 215.832 143.849 215.832C144.306 215.832 144.699 215.937 145.028 216.146C145.364 216.349 145.621 216.618 145.799 216.954C145.976 217.29 146.065 217.652 146.065 218.038C146.065 218.108 146.062 218.178 146.055 218.248C146.055 218.317 146.055 218.397 146.055 218.485H142.299C142.318 218.847 142.4 219.148 142.546 219.389C142.698 219.623 142.885 219.801 143.107 219.921C143.336 220.042 143.576 220.102 143.83 220.102C144.16 220.102 144.435 220.026 144.657 219.874C144.879 219.722 145.041 219.516 145.142 219.256H145.932C145.805 219.693 145.561 220.058 145.199 220.349C144.844 220.635 144.388 220.777 143.83 220.777ZM143.83 216.507C143.45 216.507 143.11 216.625 142.812 216.859C142.521 217.087 142.353 217.423 142.308 217.867H145.276C145.256 217.442 145.111 217.11 144.838 216.869C144.565 216.628 144.229 216.507 143.83 216.507ZM147.124 220.663V215.946H147.846L147.894 216.793C148.046 216.495 148.265 216.26 148.55 216.089C148.835 215.918 149.159 215.832 149.52 215.832C150.078 215.832 150.522 216.003 150.851 216.346C151.187 216.682 151.355 217.202 151.355 217.905V220.663H150.557V217.991C150.557 217.008 150.151 216.517 149.339 216.517C148.934 216.517 148.594 216.666 148.322 216.964C148.056 217.255 147.922 217.674 147.922 218.219V220.663H147.124ZM154.43 220.663C153.998 220.663 153.659 220.558 153.412 220.349C153.165 220.14 153.041 219.763 153.041 219.218V216.621H152.223V215.946H153.041L153.146 214.815H153.84V215.946H155.228V216.621H153.84V219.218C153.84 219.516 153.9 219.718 154.021 219.826C154.141 219.928 154.353 219.978 154.658 219.978H155.152V220.663H154.43Z" fill="#FFFEFE"/>
</svg>
