<svg width="28" height="29" viewBox="0 0 28 29" fill="none" xmlns="http://www.w3.org/2000/svg">
<rect x="0.0126953" y="0.969727" width="27.9746" height="27.9746" rx="13.9873" fill="#FFFEFE"/>
<path d="M16.9879 15.2897V18.6771C16.9879 18.9767 16.9546 19.2597 16.8797 19.5177C16.5717 20.7411 15.5564 21.5068 14.1581 21.5068H11.8943L9.38087 23.1797C9.00635 23.4377 8.50698 23.163 8.50698 22.7136V21.5068C7.65806 21.5068 6.95063 21.2238 6.45958 20.7328C5.96022 20.2334 5.67725 19.526 5.67725 18.6771V15.2897C5.67725 13.7084 6.65933 12.6181 8.17407 12.4766C8.28227 12.4683 8.39046 12.46 8.50698 12.46H14.1581C15.856 12.46 16.9879 13.5919 16.9879 15.2897Z" fill="#77AED0"/>
<path d="M18.7856 17.9527C19.8426 17.9527 20.7331 17.6032 21.349 16.979C21.9732 16.3631 22.3228 15.4726 22.3228 14.4156V10.171C22.3228 8.21511 20.7414 6.63379 18.7856 6.63379H11.7112C9.7554 6.63379 8.17407 8.21511 8.17407 10.171V10.7952C8.17407 11.0282 8.35717 11.2113 8.59021 11.2113H14.1581C16.4136 11.2113 18.2363 13.034 18.2363 15.2895V17.5366C18.2363 17.7696 18.4194 17.9527 18.6524 17.9527H18.7856Z" fill="#77AED0"/>
</svg>
