<svg width="28" height="28" viewBox="0 0 28 28" fill="none" xmlns="http://www.w3.org/2000/svg">
<rect width="28" height="28" rx="14" />
<path d="M10.9083 9.24199C10.5583 9.24199 10.2833 8.95866 10.2833 8.61699V6.29199C10.2833 5.95033 10.5583 5.66699 10.9083 5.66699C11.2583 5.66699 11.5333 5.95033 11.5333 6.29199V8.60866C11.5333 8.95866 11.2583 9.24199 10.9083 9.24199Z" fill="#77AED0"/>
<path d="M17.0917 9.24199C16.7417 9.24199 16.4667 8.95866 16.4667 8.61699V6.29199C16.4667 5.94199 16.75 5.66699 17.0917 5.66699C17.4417 5.66699 17.7167 5.95033 17.7167 6.29199V8.60866C17.7167 8.95866 17.4417 9.24199 17.0917 9.24199Z" fill="#77AED0"/>
<path d="M20.3083 7.75033C19.7583 7.34199 18.9666 7.73366 18.9666 8.42533V8.50866C18.9666 9.48366 18.2666 10.3837 17.2916 10.4837C16.1666 10.6003 15.2166 9.71699 15.2166 8.61699V7.75033C15.2166 7.29199 14.8416 6.91699 14.3833 6.91699H13.6166C13.1583 6.91699 12.7833 7.29199 12.7833 7.75033V8.61699C12.7833 9.27533 12.4416 9.85866 11.925 10.1837C11.85 10.2337 11.7666 10.2753 11.6833 10.317C11.6083 10.3587 11.525 10.392 11.4333 10.417C11.3333 10.4503 11.225 10.4753 11.1083 10.4837C10.975 10.5003 10.8416 10.5003 10.7083 10.4837C10.5916 10.4753 10.4833 10.4503 10.3833 10.417C10.3 10.392 10.2166 10.3587 10.1333 10.317C10.05 10.2753 9.96665 10.2337 9.89165 10.1837C9.36665 9.81699 9.03331 9.18366 9.03331 8.50866V8.42533C9.03331 7.78366 8.34998 7.40033 7.80831 7.67533C7.79998 7.68366 7.79165 7.68366 7.78331 7.69199C7.74998 7.70866 7.72498 7.72533 7.69165 7.75033C7.66665 7.77533 7.63331 7.79199 7.60831 7.81699C7.37498 8.00033 7.16665 8.20866 6.99165 8.43366C6.89998 8.53366 6.82498 8.64199 6.75831 8.75033C6.74998 8.75866 6.74165 8.76699 6.73331 8.78366C6.65831 8.89199 6.59165 9.01699 6.53331 9.13366C6.51665 9.15033 6.50831 9.15866 6.50831 9.17533C6.45831 9.27533 6.40831 9.37533 6.37498 9.48366C6.34998 9.52533 6.34165 9.55866 6.32498 9.60033C6.27498 9.72533 6.24165 9.85033 6.20831 9.97533C6.17498 10.092 6.14998 10.217 6.13331 10.342C6.11665 10.4337 6.10831 10.5253 6.09998 10.6253C6.09165 10.742 6.08331 10.8587 6.08331 10.9753V18.2753C6.08331 20.517 7.89998 22.3337 10.1416 22.3337H17.8583C20.1 22.3337 21.9166 20.517 21.9166 18.2753V10.9753C21.9166 9.65033 21.2833 8.49199 20.3083 7.75033ZM14 18.517H10.1333C9.79165 18.517 9.50831 18.2337 9.50831 17.892C9.50831 17.542 9.79165 17.2587 10.1333 17.2587H14C14.35 17.2587 14.625 17.542 14.625 17.892C14.625 18.2337 14.35 18.517 14 18.517ZM16.3166 15.4253H10.1333C9.79165 15.4253 9.50831 15.142 9.50831 14.8003C9.50831 14.4503 9.79165 14.167 10.1333 14.167H16.3166C16.6666 14.167 16.95 14.4503 16.95 14.8003C16.95 15.142 16.6666 15.4253 16.3166 15.4253Z" fill="#77AED0"/>
</svg>
