<svg width="29" height="28" viewBox="0 0 29 28" fill="none" xmlns="http://www.w3.org/2000/svg">
<rect x="0.5" width="28" height="28" rx="14" fill="#FFFEFE"/>
<path d="M11.4083 9.24199C11.0583 9.24199 10.7833 8.95866 10.7833 8.61699V6.29199C10.7833 5.95033 11.0583 5.66699 11.4083 5.66699C11.7583 5.66699 12.0333 5.95033 12.0333 6.29199V8.60866C12.0333 8.95866 11.7583 9.24199 11.4083 9.24199Z" fill="#77AED0"/>
<path d="M17.5917 9.24199C17.2417 9.24199 16.9667 8.95866 16.9667 8.61699V6.29199C16.9667 5.94199 17.25 5.66699 17.5917 5.66699C17.9417 5.66699 18.2167 5.95033 18.2167 6.29199V8.60866C18.2167 8.95866 17.9417 9.24199 17.5917 9.24199Z" fill="#77AED0"/>
<path d="M20.8083 7.75033C20.2583 7.34199 19.4666 7.73366 19.4666 8.42533V8.50866C19.4666 9.48366 18.7666 10.3837 17.7916 10.4837C16.6666 10.6003 15.7166 9.71699 15.7166 8.61699V7.75033C15.7166 7.29199 15.3416 6.91699 14.8833 6.91699H14.1166C13.6583 6.91699 13.2833 7.29199 13.2833 7.75033V8.61699C13.2833 9.27533 12.9416 9.85866 12.425 10.1837C12.35 10.2337 12.2666 10.2753 12.1833 10.317C12.1083 10.3587 12.025 10.392 11.9333 10.417C11.8333 10.4503 11.725 10.4753 11.6083 10.4837C11.475 10.5003 11.3416 10.5003 11.2083 10.4837C11.0916 10.4753 10.9833 10.4503 10.8833 10.417C10.8 10.392 10.7166 10.3587 10.6333 10.317C10.55 10.2753 10.4666 10.2337 10.3916 10.1837C9.86665 9.81699 9.53331 9.18366 9.53331 8.50866V8.42533C9.53331 7.78366 8.84998 7.40033 8.30831 7.67533C8.29998 7.68366 8.29165 7.68366 8.28331 7.69199C8.24998 7.70866 8.22498 7.72533 8.19165 7.75033C8.16665 7.77533 8.13331 7.79199 8.10831 7.81699C7.87498 8.00033 7.66665 8.20866 7.49165 8.43366C7.39998 8.53366 7.32498 8.64199 7.25831 8.75033C7.24998 8.75866 7.24165 8.76699 7.23331 8.78366C7.15831 8.89199 7.09165 9.01699 7.03331 9.13366C7.01665 9.15033 7.00831 9.15866 7.00831 9.17533C6.95831 9.27533 6.90831 9.37533 6.87498 9.48366C6.84998 9.52533 6.84165 9.55866 6.82498 9.60033C6.77498 9.72533 6.74165 9.85033 6.70831 9.97533C6.67498 10.092 6.64998 10.217 6.63331 10.342C6.61665 10.4337 6.60831 10.5253 6.59998 10.6253C6.59165 10.742 6.58331 10.8587 6.58331 10.9753V18.2753C6.58331 20.517 8.39998 22.3337 10.6416 22.3337H18.3583C20.6 22.3337 22.4166 20.517 22.4166 18.2753V10.9753C22.4166 9.65033 21.7833 8.49199 20.8083 7.75033ZM14.5 18.517H10.6333C10.2916 18.517 10.0083 18.2337 10.0083 17.892C10.0083 17.542 10.2916 17.2587 10.6333 17.2587H14.5C14.85 17.2587 15.125 17.542 15.125 17.892C15.125 18.2337 14.85 18.517 14.5 18.517ZM16.8166 15.4253H10.6333C10.2916 15.4253 10.0083 15.142 10.0083 14.8003C10.0083 14.4503 10.2916 14.167 10.6333 14.167H16.8166C17.1666 14.167 17.45 14.4503 17.45 14.8003C17.45 15.142 17.1666 15.4253 16.8166 15.4253Z" fill="#77AED0"/>
</svg>
