<svg width="29" height="28" viewBox="0 0 29 28" fill="none" xmlns="http://www.w3.org/2000/svg">
<rect x="0.5" width="28" height="28" rx="14" fill="#EBF5FF"/>
<path d="M19.5162 14.2753L18.4995 13.2587C18.2579 13.0503 18.1162 12.742 18.1079 12.4003C18.0912 12.0253 18.2412 11.6503 18.5162 11.3753L19.5162 10.3753C20.3829 9.50866 20.7079 8.67533 20.4329 8.01699C20.1662 7.36699 19.3412 7.00866 18.1245 7.00866H9.4162V6.29199C9.4162 5.95033 9.13287 5.66699 8.7912 5.66699C8.44953 5.66699 8.1662 5.95033 8.1662 6.29199V21.7087C8.1662 22.0503 8.44953 22.3337 8.7912 22.3337C9.13287 22.3337 9.4162 22.0503 9.4162 21.7087V17.642H18.1245C19.3245 17.642 20.1329 17.2753 20.4079 16.617C20.6829 15.9587 20.3662 15.1337 19.5162 14.2753Z" fill="#77AED0"/>
</svg>
