<svg width="28" height="28" viewBox="0 0 28 28" fill="none" xmlns="http://www.w3.org/2000/svg">
<rect width="28" height="28" rx="14" />
<path d="M19.0163 14.2753L17.9996 13.2587C17.7579 13.0503 17.6163 12.742 17.6079 12.4003C17.5913 12.0253 17.7413 11.6503 18.0163 11.3753L19.0163 10.3753C19.8829 9.50866 20.2079 8.67533 19.9329 8.01699C19.6663 7.36699 18.8413 7.00866 17.6246 7.00866H8.91626V6.29199C8.91626 5.95033 8.63293 5.66699 8.29126 5.66699C7.94959 5.66699 7.66626 5.95033 7.66626 6.29199V21.7087C7.66626 22.0503 7.94959 22.3337 8.29126 22.3337C8.63293 22.3337 8.91626 22.0503 8.91626 21.7087V17.642H17.6246C18.8246 17.642 19.6329 17.2753 19.9079 16.617C20.1829 15.9587 19.8663 15.1337 19.0163 14.2753Z" fill="#77AED0"/>
</svg>
