<svg width="28" height="28" viewBox="0 0 28 28" fill="none" xmlns="http://www.w3.org/2000/svg">
<rect width="28" height="28" rx="14"/>
<path d="M22.3333 11.1003V7.31699C22.3333 6.14199 21.8 5.66699 20.475 5.66699H17.1083C15.7833 5.66699 15.25 6.14199 15.25 7.31699V11.092C15.25 12.2753 15.7833 12.742 17.1083 12.742H20.475C21.8 12.7503 22.3333 12.2753 22.3333 11.1003Z" fill="#77AED0"/>
<path d="M22.3333 20.475V17.1083C22.3333 15.7833 21.8 15.25 20.475 15.25H17.1083C15.7833 15.25 15.25 15.7833 15.25 17.1083V20.475C15.25 21.8 15.7833 22.3333 17.1083 22.3333H20.475C21.8 22.3333 22.3333 21.8 22.3333 20.475Z" fill="#77AED0"/>
<path d="M12.75 11.1003V7.31699C12.75 6.14199 12.2167 5.66699 10.8917 5.66699H7.52502C6.20002 5.66699 5.66669 6.14199 5.66669 7.31699V11.092C5.66669 12.2753 6.20002 12.742 7.52502 12.742H10.8917C12.2167 12.7503 12.75 12.2753 12.75 11.1003Z" fill="#77AED0"/>
<path d="M12.75 20.475V17.1083C12.75 15.7833 12.2167 15.25 10.8917 15.25H7.52502C6.20002 15.25 5.66669 15.7833 5.66669 17.1083V20.475C5.66669 21.8 6.20002 22.3333 7.52502 22.3333H10.8917C12.2167 22.3333 12.75 21.8 12.75 20.475Z" fill="#77AED0"/>
</svg>
