<svg width="29" height="28" viewBox="0 0 29 28" fill="none" xmlns="http://www.w3.org/2000/svg">
<rect x="0.5" width="28" height="28" rx="14" fill="#FFFEFE"/>
<path d="M14.5 5.66699C9.90835 5.66699 6.16669 9.40866 6.16669 14.0003C6.16669 18.592 9.90835 22.3337 14.5 22.3337C19.0917 22.3337 22.8334 18.592 22.8334 14.0003C22.8334 9.40866 19.0917 5.66699 14.5 5.66699ZM17.8334 14.6253H15.125V17.3337C15.125 17.6753 14.8417 17.9587 14.5 17.9587C14.1584 17.9587 13.875 17.6753 13.875 17.3337V14.6253H11.1667C10.825 14.6253 10.5417 14.342 10.5417 14.0003C10.5417 13.6587 10.825 13.3753 11.1667 13.3753H13.875V10.667C13.875 10.3253 14.1584 10.042 14.5 10.042C14.8417 10.042 15.125 10.3253 15.125 10.667V13.3753H17.8334C18.175 13.3753 18.4584 13.6587 18.4584 14.0003C18.4584 14.342 18.175 14.6253 17.8334 14.6253Z" fill="#77AED0"/>
</svg>
