<svg width="198" height="171" viewBox="0 0 198 171" fill="none" xmlns="http://www.w3.org/2000/svg">
<path d="M198 83.138C198 66.8606 192.239 50.9493 181.446 37.4198C170.653 23.8902 155.315 13.351 137.373 7.13729C119.431 0.923555 99.6939 -0.685178 80.661 2.51487C61.6281 5.71491 44.1561 13.5798 30.458 25.1131L78.2263 65.0052C82.507 61.4011 87.967 58.9433 93.9148 57.9433C99.8626 56.9433 106.031 57.446 111.637 59.3878C117.244 61.3296 122.037 64.6231 125.41 68.8511C128.783 73.0791 130.583 78.0513 130.583 83.138H198Z" fill="#2FB917"/>
<path d="M28.58 26.6885C13.4327 39.442 3.69438 56.0109 0.859239 73.8527C-1.9759 91.6945 2.2488 109.824 12.8851 125.458L71.4437 97.446C68.1198 92.5603 66.7996 86.895 67.6856 81.3194C68.5716 75.7438 71.6148 70.5661 76.3483 66.5806L28.58 26.6885Z" fill="#868DA2"/>
<path d="M12.8848 128.606C23.6027 144.36 40.2317 156.701 60.183 163.707C80.1343 170.713 102.288 171.991 123.196 167.342C144.103 162.693 162.591 152.378 175.781 138.003C188.97 123.628 196.122 105.999 196.122 87.8613H128.705C128.705 93.5293 126.47 99.0383 122.348 103.531C118.227 108.023 112.449 111.246 105.916 112.699C99.382 114.152 92.4588 113.753 86.2241 111.563C79.9893 109.374 74.7927 105.517 71.4434 100.594L12.8848 128.606Z" fill="#F6605E"/>
</svg>
