<svg width="35" height="35" viewBox="0 0 35 35" fill="none" xmlns="http://www.w3.org/2000/svg">
<circle cx="17.4567" cy="17.109" r="17.109" fill="#EBF5FF"/>
<path d="M23.6989 17.4515L22.4339 16.1865C22.1332 15.9273 21.9569 15.5436 21.9465 15.1185C21.9258 14.6519 22.1124 14.1853 22.4546 13.8431L23.6989 12.5988C24.7773 11.5204 25.1817 10.4835 24.8395 9.66432C24.5077 8.85553 23.4811 8.40966 21.9672 8.40966H11.1315V7.51792C11.1315 7.09278 10.779 6.74023 10.3539 6.74023C9.92872 6.74023 9.57617 7.09278 9.57617 7.51792V26.7008C9.57617 27.1259 9.92872 27.4784 10.3539 27.4784C10.779 27.4784 11.1315 27.1259 11.1315 26.7008V21.6406H21.9672C23.4604 21.6406 24.4662 21.1844 24.8084 20.3652C25.1506 19.5461 24.7565 18.5195 23.6989 17.4515Z" fill="#B0131D"/>
</svg>
