<svg width="40" height="40" viewBox="0 0 40 40" fill="none" xmlns="http://www.w3.org/2000/svg">
<path d="M36.6668 10.4163V18.9163C36.6668 21.033 35.9668 22.8163 34.7168 24.0497C33.4835 25.2997 31.7002 25.9996 29.5835 25.9996V29.0163C29.5835 30.1496 28.3168 30.833 27.3835 30.1997L25.7668 29.133C25.9168 28.6163 25.9835 28.0496 25.9835 27.4496V20.6664C25.9835 17.2664 23.7168 14.9997 20.3168 14.9997H9.00015C8.76682 14.9997 8.55016 15.0164 8.3335 15.033V10.4163C8.3335 6.16634 11.1668 3.33301 15.4168 3.33301H29.5835C33.8335 3.33301 36.6668 6.16634 36.6668 10.4163Z" stroke="#CDCDCF" stroke-width="2" stroke-miterlimit="10" stroke-linecap="round" stroke-linejoin="round"/>
<path d="M25.9835 20.6667V27.45C25.9835 28.05 25.9168 28.6166 25.7668 29.1333C25.1502 31.5833 23.1168 33.1167 20.3168 33.1167H15.7835L10.7502 36.4667C10.0002 36.9833 9.00015 36.4333 9.00015 35.5333V33.1167C7.30015 33.1167 5.8835 32.55 4.90017 31.5667C3.90017 30.5667 3.3335 29.15 3.3335 27.45V20.6667C3.3335 17.5 5.30016 15.3167 8.3335 15.0334C8.55016 15.0167 8.76682 15 9.00015 15H20.3168C23.7168 15 25.9835 17.2667 25.9835 20.6667Z" stroke="#CDCDCF" stroke-width="2" stroke-miterlimit="10" stroke-linecap="round" stroke-linejoin="round"/>
</svg>
