<svg width="33" height="33" viewBox="0 0 33 33" fill="none" xmlns="http://www.w3.org/2000/svg">
<g clip-path="url(#clip0_873_5517)">
<path d="M16.5266 8.68565C16.2433 8.68565 15.9631 8.7001 15.687 8.72838C15.411 8.75665 15.1387 8.79855 14.8711 8.85356C14.6035 8.90857 14.3407 8.97668 14.0831 9.05707L13.327 9.33468L12.6072 9.68226L11.9279 10.0956L11.2933 10.5703L10.7076 11.1023L10.1751 11.6875L9.69983 12.3214L9.28599 13.0001L8.93821 13.7191C8.83366 13.965 8.74068 14.2171 8.66018 14.4745C8.57969 14.7319 8.51157 14.9946 8.45646 15.2619C8.40135 15.5292 8.35945 15.8012 8.33107 16.077C8.30269 16.3529 8.28845 16.6328 8.28845 16.9157C8.28845 17.1987 8.3029 17.4786 8.33107 17.7544C8.35909 18.0281 8.40094 18.3002 8.45646 18.5696C8.51157 18.838 8.57969 19.0997 8.66018 19.3571C8.74068 19.6144 8.83356 19.8665 8.93821 20.1125L9.28599 20.8315L9.69983 21.51L10.1751 22.1441L10.7076 22.7293L11.2933 23.2613L11.9279 23.736L12.6072 24.1493L13.327 24.4969L14.0831 24.7745L14.8711 24.978C15.1408 25.0335 15.4131 25.0753 15.687 25.1033C15.966 25.1317 16.2462 25.146 16.5266 25.1459C16.8099 25.1459 17.0901 25.1315 17.366 25.1033C17.6399 25.0753 17.9122 25.0335 18.1819 24.978L18.9701 24.7745L19.7261 24.4969L20.4458 24.1493L21.1252 23.736L21.7599 23.2613L22.3457 22.7293L22.8782 22.1441L23.3534 21.51L23.7673 20.8315L24.1151 20.1125L24.3931 19.3571C24.4736 19.0997 24.5417 18.8369 24.5968 18.5696L24.7222 17.7543C24.7505 17.4785 24.7649 17.1986 24.7649 16.9156C24.7649 16.6327 24.7505 16.3528 24.7222 16.0769C24.6942 15.8033 24.6523 15.5312 24.5968 15.2618C24.5417 14.9935 24.4736 14.7319 24.3931 14.4744L24.1151 13.719L23.7673 13L23.3534 12.3213L22.8782 11.6874L22.3457 11.1022L21.7599 10.5702L21.1252 10.0955L20.4458 9.68216L19.7261 9.33458L18.9701 9.05697L18.1819 8.85345L17.366 8.72827C17.0871 8.69979 16.8069 8.68553 16.5266 8.68555V8.68565ZM16.5266 11.5264C16.7139 11.5264 16.8987 11.5357 17.0808 11.554L17.6174 11.6352L18.1358 11.7673L18.6322 11.9476L19.1041 12.1736L19.5479 12.4425L19.9628 12.7518L20.3452 13.0987L20.6925 13.4808L21.0021 13.8952L21.2713 14.3396L21.4973 14.8113C21.5652 14.9727 21.6254 15.1381 21.6779 15.3072C21.7303 15.4764 21.7744 15.6492 21.81 15.8253C21.8456 16.0014 21.8719 16.1805 21.8912 16.3625L21.9188 16.9162C21.9188 17.1034 21.9096 17.2881 21.8912 17.4701C21.8728 17.6522 21.8458 17.8313 21.81 18.0073C21.7741 18.1832 21.73 18.3561 21.6779 18.5254L21.4973 19.0213L21.2713 19.493L21.0021 19.9373L20.6925 20.3518L20.3452 20.7339L19.9628 21.0808L19.5479 21.3901L19.1041 21.659L18.6322 21.885L18.1358 22.0653L17.6174 22.1974L17.0808 22.2785C16.8966 22.2969 16.7116 22.3062 16.5265 22.3061C16.3413 22.3062 16.1563 22.2969 15.9721 22.2785L15.4354 22.1974C15.2593 22.1616 15.0863 22.1175 14.917 22.0653L14.4206 21.885L13.9486 21.659L13.5049 21.3901L13.09 21.0808L12.7075 20.7339L12.3603 20.3518L12.0506 19.9373L11.7815 19.493L11.5555 19.0213L11.3749 18.5254L11.2428 18.0073L11.1616 17.4701C11.1431 17.2861 11.1339 17.1012 11.1339 16.9162C11.1339 16.7313 11.1431 16.5465 11.1616 16.3625C11.1798 16.1805 11.207 16.0013 11.2428 15.8253C11.2782 15.6506 11.3224 15.4777 11.375 15.3073L11.5556 14.8114L11.7816 14.3397L12.0508 13.8953L12.3604 13.4809L12.7076 13.0988L13.0901 12.7519L13.505 12.4426L13.9487 12.1737L14.4207 11.9477C14.5831 11.8795 14.7488 11.8193 14.9172 11.7674L15.4356 11.6353C15.6118 11.5996 15.7912 11.5724 15.9723 11.5541C16.1565 11.5357 16.3415 11.5264 16.5267 11.5265L16.5266 11.5264Z" fill="url(#paint0_radial_873_5517)"/>
<path d="M25.0989 6.34375C25.0335 6.34376 24.9681 6.34707 24.9031 6.35366C24.838 6.36023 24.7733 6.37009 24.7091 6.38317C24.645 6.39625 24.5816 6.41254 24.5192 6.43199C24.4567 6.45145 24.3952 6.47404 24.3349 6.49969C24.2747 6.52536 24.2158 6.55405 24.1584 6.58565C24.101 6.61719 24.0452 6.6516 23.9912 6.68875C23.9372 6.72594 23.8851 6.76583 23.835 6.80826C23.785 6.85065 23.7371 6.89553 23.6916 6.94273C23.646 6.98996 23.6028 7.03945 23.5622 7.09103C23.5215 7.14261 23.4835 7.1962 23.4481 7.25161C23.4128 7.30697 23.3803 7.36408 23.3506 7.42272C23.3209 7.4814 23.2941 7.54154 23.2704 7.60291C23.2467 7.66427 23.2261 7.72678 23.2086 7.79022C23.1911 7.85365 23.1768 7.91792 23.1657 7.98279C23.1546 8.04764 23.1467 8.11302 23.142 8.17867C23.1387 8.22517 23.1371 8.27178 23.1371 8.3184C23.1371 8.38426 23.1404 8.45008 23.1469 8.51562C23.1534 8.58112 23.1632 8.64625 23.1762 8.71077C23.1892 8.77529 23.2054 8.83911 23.2247 8.902C23.244 8.96491 23.2665 9.0268 23.292 9.08745C23.3175 9.14812 23.346 9.20747 23.3773 9.26527C23.4087 9.32306 23.4429 9.37924 23.4798 9.43359C23.5168 9.48791 23.5564 9.54033 23.5985 9.59066C23.6406 9.64104 23.6852 9.68926 23.7321 9.73514C23.7791 9.781 23.8283 9.82447 23.8795 9.86538C23.9308 9.90633 23.984 9.94466 24.0391 9.98025C24.0941 10.0158 24.1509 10.0486 24.2092 10.0785C24.2675 10.1084 24.3272 10.1353 24.3882 10.1592C24.4491 10.183 24.5112 10.2038 24.5743 10.2214C24.6373 10.239 24.7011 10.2534 24.7656 10.2646C24.83 10.2758 24.895 10.2837 24.9602 10.2884C25.0064 10.2917 25.0527 10.2934 25.099 10.2934C25.1645 10.2934 25.2298 10.2901 25.2949 10.2836C25.36 10.277 25.4247 10.2671 25.4888 10.254C25.5529 10.241 25.6163 10.2247 25.6788 10.2052C25.7413 10.1858 25.8028 10.1632 25.863 10.1375C25.9233 10.1119 25.9822 10.0832 26.0396 10.0517C26.097 10.0201 26.1528 9.98565 26.2068 9.94846C26.2608 9.9113 26.3129 9.87145 26.3629 9.82906C26.413 9.78663 26.4608 9.74172 26.5064 9.69448C26.552 9.64725 26.5952 9.59776 26.6358 9.54618C26.6765 9.4946 26.7145 9.44101 26.7498 9.3856C26.7852 9.3302 26.8177 9.27306 26.8474 9.21439C26.8771 9.15571 26.9038 9.09557 26.9276 9.0342C26.9513 8.97284 26.9719 8.91033 26.9894 8.84689C27.0069 8.78346 27.0212 8.71919 27.0323 8.65432C27.0434 8.58947 27.0513 8.52409 27.0559 8.45844C27.0592 8.41194 27.0609 8.36533 27.0609 8.31871C27.0609 8.25288 27.0576 8.18709 27.0511 8.1216C27.0446 8.05609 27.0348 7.99096 27.0218 7.92644C27.0088 7.86192 26.9926 7.7981 26.9733 7.73521C26.9539 7.6723 26.9315 7.61041 26.906 7.54976C26.8805 7.48909 26.852 7.42974 26.8206 7.37194C26.7893 7.31415 26.7551 7.25797 26.7182 7.20362C26.6812 7.14927 26.6416 7.09681 26.5994 7.04645C26.5573 6.99608 26.5127 6.94785 26.4658 6.90196C26.4189 6.85611 26.3697 6.81264 26.3185 6.77173C26.2672 6.73082 26.214 6.69252 26.1589 6.65697C26.1039 6.62138 26.0471 6.58859 25.9887 6.55872C25.9305 6.52883 25.8707 6.5019 25.8098 6.47801C25.7488 6.45416 25.6867 6.43339 25.6237 6.41578C25.5607 6.39817 25.4968 6.38374 25.4324 6.37254C25.3679 6.36137 25.303 6.35345 25.2377 6.34881C25.1915 6.34551 25.1452 6.34386 25.0989 6.34385V6.34375Z" fill="url(#paint1_radial_873_5517)"/>
<path d="M14.9645 0.814753C14.0685 0.813308 13.2689 0.817023 12.5506 0.827137L10.6249 0.878737C10.0544 0.903506 9.55037 0.935805 9.09794 0.977602C8.87172 0.998448 8.6583 1.02177 8.45603 1.04747C8.26354 1.07173 8.07158 1.09998 7.88027 1.1322C7.69812 1.16316 7.52525 1.19659 7.35951 1.23292C7.19377 1.26925 7.03546 1.30847 6.88272 1.35057C6.73341 1.39175 6.58526 1.43703 6.43844 1.48639C6.29458 1.53489 6.15423 1.58628 6.01563 1.64119C5.73843 1.75099 5.46804 1.87421 5.18961 2.0123C4.97536 2.11859 4.77742 2.22623 4.58939 2.34017C4.40136 2.4541 4.22323 2.57443 4.04882 2.7055C3.86921 2.84113 3.69609 2.98515 3.53003 3.13709C3.35645 3.29519 3.17915 3.46908 2.99493 3.66341C2.76345 3.90624 2.56231 4.13267 2.38377 4.35486C2.29451 4.4659 2.21091 4.57571 2.13217 4.68613C2.0543 4.79496 1.97985 4.90619 1.90895 5.01968C1.83877 5.13217 1.77231 5.24672 1.70874 5.36458C1.64417 5.48446 1.58316 5.60623 1.52576 5.7297C1.40832 5.98193 1.29872 6.25355 1.18933 6.55676C1.10817 6.78091 1.0355 7.00805 0.971468 7.23768C0.906142 7.47236 0.848039 7.71787 0.796232 7.98341C0.744425 8.24895 0.699223 8.5345 0.659491 8.8503C0.616675 9.19646 0.582471 9.54363 0.556909 9.89149C0.528013 10.274 0.50407 10.6948 0.484462 11.1632L0.438022 12.7208L0.413047 14.6193L0.405823 16.9142L0.426979 20.2514L0.493028 22.7799L0.543906 23.7675L0.607478 24.5859C0.627857 24.8065 0.653354 25.0266 0.68395 25.246C0.711814 25.4408 0.741742 25.6113 0.773941 25.7589C0.839275 26.0589 0.91653 26.3562 1.00552 26.6501C1.09073 26.9315 1.18818 27.209 1.29758 27.4819C1.40512 27.7492 1.52277 28.007 1.65074 28.2551C1.77871 28.5032 1.917 28.7416 2.06561 28.9706C2.21422 29.1996 2.37315 29.4192 2.54281 29.6294C2.71228 29.8397 2.89254 30.041 3.08286 30.2325C3.27347 30.4245 3.47451 30.6072 3.68638 30.7807C3.90076 30.9563 4.12359 31.1213 4.35409 31.2751C4.56803 31.4181 4.77969 31.5491 4.99291 31.6693C5.20612 31.7895 5.42119 31.8986 5.64225 31.9978C5.8633 32.097 6.08993 32.1862 6.32668 32.2665C6.56342 32.3468 6.81007 32.4182 7.07076 32.4816C7.33144 32.545 7.6074 32.6006 7.89946 32.6491C8.19152 32.6976 8.5037 32.7392 8.83725 32.775C9.1708 32.8108 9.52663 32.8404 9.90899 32.8652C10.2914 32.89 10.7 32.9098 11.1392 32.9257C11.8175 32.9502 12.8443 32.9646 14.0285 32.97L17.8619 32.9623L21.4919 32.9114L22.8721 32.8726L23.7713 32.8264C23.9643 32.8107 24.1531 32.7921 24.3354 32.7703C24.5176 32.7486 24.6974 32.7237 24.8724 32.6954C25.0475 32.6672 25.2186 32.6356 25.3867 32.6005C25.5529 32.5659 25.7182 32.5272 25.8825 32.4846C26.0451 32.4433 26.2055 32.3963 26.3642 32.3465C26.5229 32.2967 26.68 32.2428 26.8361 32.185C26.9932 32.1268 27.1488 32.0649 27.3028 31.9991C27.4579 31.9331 27.6128 31.8625 27.7683 31.7876C28.007 31.6726 28.1991 31.5767 28.3679 31.4831C28.5266 31.396 28.6794 31.2987 28.8254 31.1917C28.9695 31.0856 29.1128 30.9648 29.2779 30.8127C29.443 30.6606 29.6301 30.4773 29.8618 30.2455C30.0654 30.042 30.2371 29.8651 30.3852 29.7042C30.5333 29.5434 30.6581 29.3986 30.7675 29.259C30.8718 29.1266 30.9689 28.9888 31.0585 28.846C31.1459 28.7067 31.2264 28.562 31.3085 28.4015C31.4319 28.16 31.5417 27.9364 31.64 27.7206C31.7355 27.5127 31.8228 27.301 31.9016 27.0861C31.9792 26.873 32.0464 26.6562 32.1029 26.4365C32.1611 26.2105 32.2113 25.9719 32.2546 25.7102C32.298 25.4484 32.3346 25.1636 32.3664 24.8455C32.3982 24.5275 32.4252 24.176 32.4489 23.781L32.5119 22.4552L32.566 20.8064L32.6046 18.9694L32.6194 17.0486L32.585 13.2761L32.5388 11.5864L32.4759 10.1356L32.3974 9.00448C32.369 8.68972 32.3382 8.44183 32.3056 8.27423C32.2695 8.08905 32.2292 7.90471 32.1846 7.72138C32.1413 7.54299 32.0936 7.36567 32.0417 7.18959C31.9911 7.01803 31.9361 6.8478 31.8768 6.67905C31.8182 6.51238 31.756 6.34922 31.691 6.18957C31.626 6.02992 31.5556 5.87398 31.4824 5.72134C31.4091 5.56871 31.3323 5.41979 31.2517 5.27428C31.1711 5.12876 31.0871 4.98686 30.9993 4.84847C30.9115 4.71008 30.82 4.57519 30.7248 4.44392C30.6301 4.31307 30.5313 4.18521 30.4286 4.06053C30.3264 3.93653 30.2203 3.8158 30.1105 3.6985C30.0009 3.58135 29.8875 3.4677 29.7707 3.35773C29.6537 3.24772 29.5333 3.14121 29.409 3.03822C29.2843 2.93488 29.1564 2.83545 29.0256 2.74007C28.8933 2.64371 28.7581 2.55141 28.6202 2.46329C28.4804 2.37391 28.338 2.2887 28.1931 2.20776C28.0458 2.12547 27.8961 2.04742 27.7442 1.9737C27.4922 1.8512 27.2592 1.74253 27.0304 1.64614C26.8055 1.55048 26.5762 1.46552 26.3433 1.39154C26.109 1.31775 25.8651 1.25449 25.5968 1.1999C25.3285 1.14531 25.0359 1.09979 24.7047 1.06109C24.3736 1.02239 24.0038 0.991124 23.5809 0.965117C23.1579 0.939111 22.6823 0.918675 22.1391 0.902163L20.2933 0.860883L17.9571 0.833329L14.9655 0.814958L14.9645 0.814753ZM16.5182 3.65299L20.8323 3.67755L22.4598 3.70892C22.908 3.72151 23.25 3.73627 23.4505 3.7533C23.7116 3.77528 23.9603 3.80284 24.1982 3.83586C24.4265 3.86738 24.6537 3.90659 24.8793 3.95341C25.0961 3.99881 25.3028 4.05042 25.5006 4.10862C25.6985 4.16683 25.8874 4.23205 26.0687 4.30419C26.2501 4.37632 26.4234 4.45569 26.5903 4.54258C26.7558 4.62882 26.9167 4.72373 27.0723 4.8269C27.2271 4.92959 27.3763 5.04022 27.5212 5.15941C27.6661 5.27861 27.8065 5.40637 27.9437 5.54301C28.0885 5.68718 28.222 5.83404 28.3451 5.98554C28.4678 6.1361 28.5813 6.2939 28.685 6.4581C28.7899 6.62463 28.8844 6.79747 28.968 6.97565C29.0534 7.15728 29.1302 7.34924 29.1991 7.55327C29.2681 7.7573 29.3295 7.97412 29.3839 8.20581C29.4408 8.45144 29.4885 8.69912 29.5269 8.94834C29.5682 9.21253 29.6035 9.49427 29.6334 9.79593C29.6633 10.0976 29.6881 10.4193 29.7085 10.7634C29.7248 11.0395 29.7391 11.4038 29.7512 11.834L29.7814 13.3011L29.8045 16.8945L29.7782 20.4846L29.7466 21.9473L29.7032 23.0112C29.673 23.5094 29.6413 23.9282 29.6033 24.2927C29.5842 24.4749 29.5635 24.6436 29.5406 24.8018C29.5192 24.9512 29.4937 25.1001 29.4644 25.2482C29.4375 25.3834 29.4064 25.5176 29.371 25.6507C29.337 25.7778 29.2989 25.9036 29.2565 26.0281C29.2138 26.1532 29.1674 26.277 29.1173 26.3992C29.0643 26.5284 29.0084 26.6563 28.9496 26.7828C28.8973 26.8958 28.8423 27.0057 28.7841 27.1128C28.7265 27.2187 28.6654 27.3226 28.6008 27.4244C28.5368 27.5253 28.4697 27.6232 28.3995 27.718C28.3297 27.8126 28.2566 27.9045 28.1801 27.9938C28.1039 28.0827 28.0245 28.1687 27.942 28.2518C27.8595 28.3349 27.7738 28.4151 27.6851 28.4925C27.5963 28.5699 27.5043 28.6442 27.409 28.7158C27.3138 28.7874 27.2152 28.8561 27.1133 28.922C27.0115 28.9878 26.9064 29.051 26.798 29.1113C26.6895 29.1715 26.5776 29.2291 26.4626 29.2839C26.3455 29.3395 26.2268 29.3916 26.1066 29.4402C25.9824 29.4903 25.8568 29.5369 25.7299 29.58C25.4719 29.6679 25.1998 29.7451 24.9133 29.8117C24.6147 29.8806 24.3134 29.937 24.0101 29.9807C23.8935 29.9978 23.6255 30.0137 23.2415 30.0286L21.7786 30.0693L17.6309 30.1231L13.2897 30.1299L11.5848 30.1118L10.4777 30.0773L9.66141 30.0199C9.40795 29.9986 9.17224 29.9748 8.95139 29.9479C8.73054 29.921 8.52486 29.8909 8.33136 29.8571C8.14799 29.8254 7.96573 29.7875 7.78491 29.7436C7.62003 29.7035 7.45684 29.6567 7.29573 29.6034C7.14042 29.5518 6.99191 29.4951 6.84743 29.4326C6.70295 29.3702 6.56259 29.3018 6.42358 29.227C6.28457 29.1523 6.147 29.0712 6.00789 28.9828C5.90293 28.9161 5.80149 28.8486 5.70386 28.7771C5.60623 28.7056 5.5119 28.6343 5.42109 28.5595C5.33027 28.4848 5.24306 28.4078 5.15896 28.3286C5.07541 28.2497 4.99472 28.1678 4.91705 28.0832C4.83965 27.9987 4.76566 27.9118 4.69465 27.8219C4.62338 27.7315 4.55546 27.6386 4.49104 27.5432C4.42566 27.4464 4.36381 27.3473 4.30559 27.246C4.24676 27.1438 4.19083 27.0381 4.13768 26.9292C4.08364 26.8181 4.03322 26.7053 3.98649 26.591C3.93902 26.4746 3.89402 26.3544 3.85171 26.2304C3.76708 25.9822 3.69278 25.718 3.62817 25.4363C3.56357 25.1545 3.50846 24.8552 3.46181 24.5363C3.41517 24.2175 3.3776 23.8794 3.34767 23.52C3.32559 23.2553 3.30804 22.843 3.29463 22.3229L3.26656 20.473L3.27688 15.7572L3.3581 11.2511L3.42002 9.66342L3.45511 9.13864C3.46728 8.9985 3.47987 8.89467 3.49277 8.83234C3.53529 8.62728 3.57812 8.43646 3.6224 8.25782C3.66375 8.08929 3.70976 7.92194 3.76038 7.75595C3.80847 7.59929 3.85914 7.45254 3.91332 7.31353C3.96556 7.17887 4.02379 7.0466 4.08783 6.91713C4.15037 6.79123 4.21756 6.67069 4.29052 6.55335C4.36348 6.43601 4.44222 6.32218 4.52809 6.20897C4.61395 6.09576 4.70642 5.98399 4.80704 5.87068C4.90766 5.75736 5.01633 5.64291 5.13419 5.52495C5.27154 5.38682 5.41456 5.25443 5.56289 5.12814C5.70294 5.009 5.84898 4.89708 6.00046 4.79284C6.14938 4.68964 6.30211 4.59779 6.46115 4.51338C6.62018 4.42896 6.78551 4.35269 6.9594 4.28406C7.1333 4.21543 7.31596 4.15403 7.50946 4.0983C7.71275 4.04128 7.91829 3.99263 8.12558 3.95248C8.34354 3.90975 8.57502 3.8725 8.82218 3.83999C9.06935 3.80748 9.33231 3.77941 9.61343 3.75505C9.80951 3.73813 10.1474 3.72306 10.5923 3.71037L12.2115 3.67838L16.5189 3.65206L16.5182 3.65299Z" fill="url(#paint2_radial_873_5517)"/>
</g>
<defs>
<radialGradient id="paint0_radial_873_5517" cx="0" cy="0" r="1" gradientUnits="userSpaceOnUse" gradientTransform="translate(5.53783 35.3142) rotate(-9.53101) scale(68.0829 41.326)">
<stop stop-color="#FED576"/>
<stop offset="0.263" stop-color="#F47133"/>
<stop offset="0.609" stop-color="#BC3081"/>
<stop offset="1" stop-color="#4C63D2"/>
</radialGradient>
<radialGradient id="paint1_radial_873_5517" cx="0" cy="0" r="1" gradientUnits="userSpaceOnUse" gradientTransform="translate(5.53789 35.3135) rotate(-9.53101) scale(68.0829 41.326)">
<stop stop-color="#FED576"/>
<stop offset="0.263" stop-color="#F47133"/>
<stop offset="0.609" stop-color="#BC3081"/>
<stop offset="1" stop-color="#4C63D2"/>
</radialGradient>
<radialGradient id="paint2_radial_873_5517" cx="0" cy="0" r="1" gradientUnits="userSpaceOnUse" gradientTransform="translate(5.53801 35.3141) rotate(-9.53101) scale(68.083 41.326)">
<stop stop-color="#FED576"/>
<stop offset="0.263" stop-color="#F47133"/>
<stop offset="0.609" stop-color="#BC3081"/>
<stop offset="1" stop-color="#4C63D2"/>
</radialGradient>
<clipPath id="clip0_873_5517">
<rect width="32.214" height="32.214" fill="white" transform="translate(0.405334 0.786133)"/>
</clipPath>
</defs>
</svg>
