<svg width="40" height="40" viewBox="0 0 40 40" fill="none" xmlns="http://www.w3.org/2000/svg">
<path d="M12.4668 30.5831L17.6335 34.5831C18.3001 35.2498 19.8001 35.5831 20.8001 35.5831H27.1335C29.1335 35.5831 31.3001 34.0831 31.8001 32.0831L35.8001 19.9165C36.6335 17.5831 35.1335 15.5831 32.6335 15.5831H25.9668C24.9668 15.5831 24.1335 14.7498 24.3001 13.5831L25.1335 8.24978C25.4668 6.74978 24.4668 5.08312 22.9668 4.58312C21.6335 4.08312 19.9668 4.74978 19.3001 5.74978L12.4668 15.9165" stroke="#C4C4C4" stroke-width="2" stroke-miterlimit="10"/>
<path d="M3.9668 30.583V14.2497C3.9668 11.9163 4.9668 11.083 7.30013 11.083H8.9668C11.3001 11.083 12.3001 11.9163 12.3001 14.2497V30.583C12.3001 32.9163 11.3001 33.7497 8.9668 33.7497H7.30013C4.9668 33.7497 3.9668 32.9163 3.9668 30.583Z" stroke="#C4C4C4" stroke-width="2" stroke-linecap="round" stroke-linejoin="round"/>
</svg>
