<svg width="33" height="33" viewBox="0 0 33 33" fill="none" xmlns="http://www.w3.org/2000/svg">
<g clip-path="url(#clip0_873_5522)">
<path d="M30.5472 0.787109H3.09685C1.78614 0.787109 0.719055 1.82702 0.719055 3.10752V30.6747C0.719055 31.9582 1.78614 33.0001 3.09685 33.0001H30.5492C31.863 33.0001 32.9331 31.9582 32.9331 30.6747V3.10752C32.9331 1.82702 31.863 0.787109 30.5472 0.787109Z" fill="#0177B5"/>
<path d="M5.49555 12.8627H10.2823V28.2349H5.49555V12.8627ZM7.88542 5.21192C9.41257 5.21192 10.6538 6.45316 10.6538 7.98031C10.6538 9.50745 9.41257 10.7517 7.88643 10.7517C7.1518 10.7501 6.44771 10.4577 5.92815 9.93829C5.4086 9.41892 5.11588 8.71493 5.11401 7.98031C5.11401 7.6165 5.18572 7.25627 5.32503 6.92019C5.46435 6.58412 5.66854 6.2788 5.92592 6.02169C6.18331 5.76458 6.48885 5.56073 6.82508 5.42178C7.16131 5.28283 7.52162 5.21152 7.88542 5.21192ZM13.2712 12.8627H17.8536V14.9637H17.9171C18.5553 13.7557 20.1137 12.4812 22.4472 12.4812C27.2853 12.4812 28.1782 15.6654 28.1782 19.8039V28.2359H23.4035V20.7582C23.4035 18.9764 23.3713 16.6811 20.921 16.6811C18.4345 16.6811 18.052 18.624 18.052 20.6273V28.2318H13.2783V12.8597L13.2712 12.8627Z" fill="white"/>
</g>
<defs>
<clipPath id="clip0_873_5522">
<rect width="32.214" height="32.214" fill="white" transform="translate(0.718994 0.786133)"/>
</clipPath>
</defs>
</svg>
