<svg width="40" height="40" viewBox="0 0 40 40" fill="none" xmlns="http://www.w3.org/2000/svg">
<path d="M14.1668 31.6663H13.3335C6.66683 31.6663 3.3335 29.9997 3.3335 21.6663V13.333C3.3335 6.66634 6.66683 3.33301 13.3335 3.33301H26.6668C33.3335 3.33301 36.6668 6.66634 36.6668 13.333V21.6663C36.6668 28.333 33.3335 31.6663 26.6668 31.6663H25.8335C25.3168 31.6663 24.8168 31.9163 24.5002 32.333L22.0002 35.6663C20.9002 37.133 19.1002 37.133 18.0002 35.6663L15.5002 32.333C15.2335 31.9663 14.6168 31.6663 14.1668 31.6663Z" stroke="#CDCDCF" stroke-width="2" stroke-miterlimit="10" stroke-linecap="round" stroke-linejoin="round"/>
<path d="M11.6665 13.333H28.3332" stroke="#CDCDCF" stroke-width="2" stroke-linecap="round" stroke-linejoin="round"/>
<path d="M11.6665 21.667H21.6665" stroke="#CDCDCF" stroke-width="2" stroke-linecap="round" stroke-linejoin="round"/>
</svg>
