<svg width="24" height="24" viewBox="0 0 24 24" fill="none" xmlns="http://www.w3.org/2000/svg">
<path d="M15.3346 12.407V16.2236C15.3346 16.5612 15.297 16.88 15.2126 17.1707C14.8657 18.5492 13.7217 19.4119 12.1463 19.4119H9.59565L6.76371 21.2967C6.34173 21.5874 5.7791 21.2779 5.7791 20.7716V19.4119C4.82261 19.4119 4.02555 19.093 3.47229 18.5398C2.90965 17.9771 2.59082 17.1801 2.59082 16.2236V12.407C2.59082 10.6253 3.69734 9.39692 5.40401 9.23751C5.52591 9.22813 5.64782 9.21875 5.7791 9.21875H12.1463C14.0592 9.21875 15.3346 10.4941 15.3346 12.407Z" fill="#777480"/>
<path d="M17.3603 15.4074C18.5513 15.4074 19.5546 15.0136 20.2485 14.3103C20.9518 13.6163 21.3457 12.613 21.3457 11.4221V6.63964C21.3457 4.43598 19.564 2.6543 17.3603 2.6543H9.38964C7.18598 2.6543 5.4043 4.43598 5.4043 6.63964V7.34294C5.4043 7.6055 5.6106 7.8118 5.87316 7.8118H12.1466C14.6878 7.8118 16.7414 9.86543 16.7414 12.4067V14.9385C16.7414 15.2011 16.9477 15.4074 17.2103 15.4074H17.3603V15.4074Z" fill="#777480"/>
</svg>
