<svg width="26" height="29" viewBox="0 0 26 29" fill="none" xmlns="http://www.w3.org/2000/svg">
<path d="M25.2333 21.1497L23.5667 18.383C23.2167 17.7663 22.9 16.5997 22.9 15.9163V11.6997C22.9 7.78301 20.6 4.39967 17.2833 2.81634C16.4167 1.28301 14.8167 0.333008 12.9833 0.333008C11.1667 0.333008 9.53332 1.31634 8.66665 2.86634C5.41665 4.48301 3.16665 7.83301 3.16665 11.6997V15.9163C3.16665 16.5997 2.84999 17.7663 2.49999 18.3663L0.816653 21.1497C0.149986 22.2663 -1.40816e-05 23.4997 0.416653 24.633C0.816653 25.7497 1.76665 26.6163 2.99999 27.033C6.23332 28.133 9.63332 28.6663 13.0333 28.6663C16.4333 28.6663 19.8333 28.133 23.0667 27.0497C24.2333 26.6663 25.1333 25.783 25.5667 24.633C26 23.483 25.8833 22.2163 25.2333 21.1497Z" fill="#77AED0"/>
</svg>
