<svg width="17" height="17" viewBox="0 0 17 17" fill="none" xmlns="http://www.w3.org/2000/svg">
<path d="M13.2414 11.7592L16.515 15.0321L15.4335 16.1136L12.1606 12.84C10.9428 13.8162 9.42808 14.3472 7.86731 14.345C4.07009 14.345 0.988281 11.2632 0.988281 7.46594C0.988281 3.66872 4.07009 0.586914 7.86731 0.586914C11.6645 0.586914 14.7463 3.66872 14.7463 7.46594C14.7486 9.02672 14.2176 10.5414 13.2414 11.7592ZM11.7081 11.1921C12.6781 10.1945 13.2199 8.85736 13.2177 7.46594C13.2177 4.50949 10.823 2.11559 7.86731 2.11559C4.91085 2.11559 2.51695 4.50949 2.51695 7.46594C2.51695 10.4216 4.91085 12.8163 7.86731 12.8163C9.25873 12.8185 10.5959 12.2768 11.5934 11.3067L11.7081 11.1921Z" fill="#BCBCBC"/>
</svg>
