<svg width="17" height="17" viewBox="0 0 17 17" fill="none" xmlns="http://www.w3.org/2000/svg">
<path d="M13.2414 11.7583L16.515 15.0312L15.4335 16.1128L12.1606 12.8391C10.9428 13.8153 9.42808 14.3463 7.86731 14.3441C4.07009 14.3441 0.988281 11.2623 0.988281 7.46505C0.988281 3.66783 4.07009 0.586029 7.86731 0.586029C11.6645 0.586029 14.7463 3.66783 14.7463 7.46505C14.7486 9.02583 14.2176 10.5405 13.2414 11.7583ZM11.7081 11.1912C12.6781 10.1936 13.2199 8.85647 13.2177 7.46505C13.2177 4.5086 10.823 2.1147 7.86731 2.1147C4.91085 2.1147 2.51695 4.5086 2.51695 7.46505C2.51695 10.4207 4.91085 12.8154 7.86731 12.8154C9.25873 12.8176 10.5959 12.2759 11.5934 11.3058L11.7081 11.1912Z" fill="#BCBCBC"/>
</svg>
