<svg width="17" height="17" viewBox="0 0 17 17" fill="none" xmlns="http://www.w3.org/2000/svg">
<path d="M13.2404 11.7553L16.5141 15.0282L15.4326 16.1097L12.1597 12.8361C10.9419 13.8123 9.42717 14.3433 7.86639 14.3411C4.06917 14.3411 0.987366 11.2593 0.987366 7.46203C0.987366 3.66481 4.06917 0.583008 7.86639 0.583008C11.6636 0.583008 14.7454 3.66481 14.7454 7.46203C14.7476 9.02281 14.2167 10.5375 13.2404 11.7553ZM11.7072 11.1882C12.6772 10.1906 13.2189 8.85345 13.2167 7.46203C13.2167 4.50558 10.8221 2.11168 7.86639 2.11168C4.90994 2.11168 2.51604 4.50558 2.51604 7.46203C2.51604 10.4177 4.90994 12.8124 7.86639 12.8124C9.25781 12.8146 10.595 12.2729 11.5925 11.3028L11.7072 11.1882Z" fill="#BCBCBC"/>
</svg>
