<svg width="40" height="40" viewBox="0 0 40 40" fill="none" xmlns="http://www.w3.org/2000/svg">
<path d="M20 26.25C16.55 26.25 13.75 23.45 13.75 20C13.75 16.55 16.55 13.75 20 13.75C23.45 13.75 26.25 16.55 26.25 20C26.25 23.45 23.45 26.25 20 26.25ZM20 16.25C17.9333 16.25 16.25 17.9333 16.25 20C16.25 22.0667 17.9333 23.75 20 23.75C22.0667 23.75 23.75 22.0667 23.75 20C23.75 17.9333 22.0667 16.25 20 16.25Z" fill="#CDCDCF"/>
<path d="M25.3502 36.9835C25.0002 36.9835 24.6502 36.9335 24.3002 36.8502C23.2668 36.5668 22.4002 35.9168 21.8502 35.0002L21.6502 34.6668C20.6668 32.9668 19.3168 32.9668 18.3335 34.6668L18.1502 34.9835C17.6002 35.9168 16.7335 36.5835 15.7002 36.8502C14.6502 37.1335 13.5668 36.9835 12.6502 36.4335L9.7835 34.7835C8.76683 34.2002 8.0335 33.2502 7.71683 32.1002C7.41683 30.9502 7.56683 29.7668 8.15016 28.7502C8.6335 27.9002 8.76683 27.1335 8.4835 26.6502C8.20016 26.1668 7.4835 25.8835 6.50016 25.8835C4.06683 25.8835 2.0835 23.9002 2.0835 21.4668V18.5335C2.0835 16.1002 4.06683 14.1168 6.50016 14.1168C7.4835 14.1168 8.20016 13.8335 8.4835 13.3502C8.76683 12.8668 8.65016 12.1002 8.15016 11.2502C7.56683 10.2335 7.41683 9.03348 7.71683 7.90015C8.01683 6.75015 8.75016 5.80015 9.7835 5.21682L12.6668 3.56682C14.5502 2.45015 17.0335 3.10015 18.1668 5.01682L18.3668 5.35015C19.3502 7.05015 20.7002 7.05015 21.6835 5.35015L21.8668 5.03349C23.0002 3.10015 25.4835 2.45015 27.3835 3.58349L30.2502 5.23349C31.2668 5.81682 32.0002 6.76682 32.3168 7.91682C32.6168 9.06682 32.4668 10.2502 31.8835 11.2668C31.4002 12.1168 31.2668 12.8835 31.5502 13.3668C31.8335 13.8502 32.5502 14.1335 33.5335 14.1335C35.9668 14.1335 37.9502 16.1168 37.9502 18.5502V21.4835C37.9502 23.9168 35.9668 25.9002 33.5335 25.9002C32.5502 25.9002 31.8335 26.1835 31.5502 26.6668C31.2668 27.1502 31.3835 27.9168 31.8835 28.7668C32.4668 29.7835 32.6335 30.9835 32.3168 32.1168C32.0168 33.2668 31.2835 34.2168 30.2502 34.8002L27.3668 36.4502C26.7335 36.8002 26.0502 36.9835 25.3502 36.9835ZM20.0002 30.8168C21.4835 30.8168 22.8668 31.7502 23.8168 33.4002L24.0002 33.7168C24.2002 34.0668 24.5335 34.3168 24.9335 34.4168C25.3335 34.5168 25.7335 34.4668 26.0668 34.2668L28.9502 32.6002C29.3835 32.3502 29.7168 31.9335 29.8502 31.4335C29.9835 30.9335 29.9168 30.4168 29.6668 29.9835C28.7168 28.3502 28.6002 26.6668 29.3335 25.3835C30.0668 24.1002 31.5835 23.3668 33.4835 23.3668C34.5502 23.3668 35.4002 22.5168 35.4002 21.4502V18.5168C35.4002 17.4668 34.5502 16.6002 33.4835 16.6002C31.5835 16.6002 30.0668 15.8668 29.3335 14.5835C28.6002 13.3002 28.7168 11.6168 29.6668 9.98349C29.9168 9.55015 29.9835 9.03348 29.8502 8.53348C29.7168 8.03348 29.4002 7.63349 28.9668 7.36682L26.0835 5.71682C25.3668 5.28349 24.4168 5.53349 23.9835 6.26682L23.8002 6.58349C22.8502 8.23349 21.4668 9.16682 19.9835 9.16682C18.5002 9.16682 17.1168 8.23349 16.1668 6.58349L15.9835 6.25015C15.5668 5.55015 14.6335 5.30015 13.9168 5.71682L11.0335 7.38348C10.6002 7.63348 10.2668 8.05015 10.1335 8.55015C10.0002 9.05015 10.0668 9.56682 10.3168 10.0002C11.2668 11.6335 11.3835 13.3168 10.6502 14.6002C9.91683 15.8835 8.40016 16.6168 6.50016 16.6168C5.4335 16.6168 4.5835 17.4668 4.5835 18.5335V21.4668C4.5835 22.5168 5.4335 23.3835 6.50016 23.3835C8.40016 23.3835 9.91683 24.1168 10.6502 25.4002C11.3835 26.6835 11.2668 28.3668 10.3168 30.0002C10.0668 30.4335 10.0002 30.9502 10.1335 31.4502C10.2668 31.9502 10.5835 32.3502 11.0168 32.6168L13.9002 34.2668C14.2502 34.4835 14.6668 34.5335 15.0502 34.4335C15.4502 34.3335 15.7835 34.0668 16.0002 33.7168L16.1835 33.4002C17.1335 31.7668 18.5168 30.8168 20.0002 30.8168Z" fill="#CDCDCF"/>
</svg>
