<svg width="36" height="34" viewBox="0 0 36 34" fill="none" xmlns="http://www.w3.org/2000/svg">
<path d="M23.35 33.9835C23 33.9835 22.65 33.9335 22.3 33.8502C21.2667 33.5668 20.4 32.9168 19.85 32.0002L19.65 31.6668C18.6667 29.9668 17.3167 29.9668 16.3334 31.6668L16.15 31.9835C15.6 32.9168 14.7334 33.5835 13.7 33.8502C12.65 34.1335 11.5667 33.9835 10.65 33.4335L7.78337 31.7835C6.76671 31.2002 6.03337 30.2502 5.71671 29.1002C5.41671 27.9502 5.56671 26.7668 6.15004 25.7502C6.63337 24.9002 6.76671 24.1335 6.48337 23.6502C6.20004 23.1668 5.48337 22.8835 4.50004 22.8835C2.06671 22.8835 0.083374 20.9002 0.083374 18.4668V15.5335C0.083374 13.1002 2.06671 11.1168 4.50004 11.1168C5.48337 11.1168 6.20004 10.8335 6.48337 10.3502C6.76671 9.86682 6.65004 9.10015 6.15004 8.25015C5.56671 7.23349 5.41671 6.03348 5.71671 4.90015C6.01671 3.75015 6.75004 2.80015 7.78337 2.21682L10.6667 0.566819C12.55 -0.549848 15.0334 0.100152 16.1667 2.01682L16.3667 2.35015C17.35 4.05015 18.7 4.05015 19.6834 2.35015L19.8667 2.03349C21 0.100152 23.4834 -0.549848 25.3834 0.583485L28.25 2.23349C29.2667 2.81682 30 3.76682 30.3167 4.91682C30.6167 6.06682 30.4667 7.25015 29.8834 8.26682C29.4 9.11682 29.2667 9.88349 29.55 10.3668C29.8334 10.8502 30.55 11.1335 31.5334 11.1335C33.9667 11.1335 35.95 13.1168 35.95 15.5502V18.4835C35.95 20.9168 33.9667 22.9002 31.5334 22.9002C30.55 22.9002 29.8334 23.1835 29.55 23.6668C29.2667 24.1502 29.3834 24.9168 29.8834 25.7668C30.4667 26.7835 30.6334 27.9835 30.3167 29.1168C30.0167 30.2668 29.2834 31.2168 28.25 31.8002L25.3667 33.4502C24.7334 33.8002 24.05 33.9835 23.35 33.9835ZM18 27.8168C19.4834 27.8168 20.8667 28.7502 21.8167 30.4002L22 30.7168C22.2 31.0668 22.5334 31.3168 22.9334 31.4168C23.3334 31.5168 23.7334 31.4668 24.0667 31.2668L26.95 29.6002C27.3834 29.3502 27.7167 28.9335 27.85 28.4335C27.9834 27.9335 27.9167 27.4168 27.6667 26.9835C26.7167 25.3502 26.6 23.6668 27.3334 22.3835C28.0667 21.1002 29.5834 20.3668 31.4834 20.3668C32.55 20.3668 33.4 19.5168 33.4 18.4502V15.5168C33.4 14.4668 32.55 13.6002 31.4834 13.6002C29.5834 13.6002 28.0667 12.8668 27.3334 11.5835C26.6 10.3002 26.7167 8.61682 27.6667 6.98349C27.9167 6.55015 27.9834 6.03348 27.85 5.53348C27.7167 5.03348 27.4 4.63349 26.9667 4.36682L24.0834 2.71682C23.3667 2.28349 22.4167 2.53349 21.9834 3.26682L21.8 3.58349C20.85 5.23349 19.4667 6.16682 17.9834 6.16682C16.5 6.16682 15.1167 5.23349 14.1667 3.58349L13.9834 3.25015C13.5667 2.55015 12.6334 2.30015 11.9167 2.71682L9.03337 4.38348C8.60004 4.63348 8.26671 5.05015 8.13337 5.55015C8.00004 6.05015 8.06671 6.56682 8.31671 7.00015C9.26671 8.63349 9.38337 10.3168 8.65004 11.6002C7.91671 12.8835 6.40004 13.6168 4.50004 13.6168C3.43337 13.6168 2.58337 14.4668 2.58337 15.5335V18.4668C2.58337 19.5168 3.43337 20.3835 4.50004 20.3835C6.40004 20.3835 7.91671 21.1168 8.65004 22.4002C9.38337 23.6835 9.26671 25.3668 8.31671 27.0002C8.06671 27.4335 8.00004 27.9502 8.13337 28.4502C8.26671 28.9502 8.58337 29.3502 9.01671 29.6168L11.9 31.2668C12.25 31.4835 12.6667 31.5335 13.05 31.4335C13.45 31.3335 13.7834 31.0668 14 30.7168L14.1834 30.4002C15.1334 28.7668 16.5167 27.8168 18 27.8168Z" fill="#CDCDCF"/>
</svg>
