<svg width="1034" height="273" viewBox="0 0 1034 273" fill="none" xmlns="http://www.w3.org/2000/svg">
<rect x="1" y="46" width="1032" height="226" rx="13.4111" fill="#56CC42" stroke="#FFFEFE" stroke-width="2"/>
<mask id="mask0_1615_12300" style="mask-type:alpha" maskUnits="userSpaceOnUse" x="0" y="45" width="1034" height="228">
<rect y="45" width="1034" height="228" rx="14.4111" fill="#BCBCBC"/>
</mask>
<g mask="url(#mask0_1615_12300)">
<path d="M839.515 100.327C847.895 86.1459 864.814 80.5615 877.22 87.4901C889.627 94.4187 893.188 111.441 884.809 125.623C876.43 139.804 859.51 145.388 847.104 138.46C834.698 131.531 831.136 114.508 839.515 100.327Z" fill="#7F5EAA" stroke="#FFFEFE" stroke-width="2"/>
<path d="M47.3622 125.956C52.9888 133.113 52.4237 142.86 46.4703 147.78C40.5169 152.7 31.106 151.197 25.4794 144.04C19.8529 136.884 20.4179 127.136 26.3713 122.217C32.3247 117.297 41.7357 118.8 47.3622 125.956Z" fill="#7F5EAA" stroke="#FFFEFE" stroke-width="2"/>
<path d="M833.325 57.8626C835.384 54.3775 839.395 53.142 842.191 54.7033C844.987 56.2646 845.909 60.2555 843.85 63.7406C841.791 67.2257 837.78 68.4613 834.984 66.9C832.189 65.3386 831.266 61.3477 833.325 57.8626Z" fill="#56308A" stroke="#FFFEFE" stroke-width="2"/>
<path d="M70.9507 131.382C72.2497 133.034 72.0299 135.106 70.866 136.068C69.702 137.03 67.6806 136.81 66.3817 135.158C65.0827 133.506 65.3025 131.434 66.4664 130.472C67.6304 129.51 69.6517 129.73 70.9507 131.382Z" fill="#56308A" stroke="#FFFEFE" stroke-width="2"/>
<mask id="path-8-inside-1_1615_12300" fill="white">
<path fill-rule="evenodd" clip-rule="evenodd" d="M879.492 84.028C897.738 94.3166 904.01 117.021 893.494 134.82C883.01 152.563 859.791 158.75 841.485 148.746C839.227 151.345 837.176 154.178 835.371 157.233C819.15 184.686 828.891 219.726 857.13 235.497C879.671 248.086 907.185 244.59 925.62 228.703C926.472 229.237 927.344 229.753 928.233 230.25C956.471 246.021 992.513 236.55 1008.73 209.096C1024.96 181.643 1015.21 146.602 986.976 130.832L986.935 130.809C1001.54 103.678 991.596 69.9438 964.042 54.5557C935.804 38.7852 899.762 48.2562 883.541 75.7098C881.941 78.4173 880.594 81.1986 879.492 84.028Z"/>
</mask>
<path fill-rule="evenodd" clip-rule="evenodd" d="M879.492 84.028C897.738 94.3166 904.01 117.021 893.494 134.82C883.01 152.563 859.791 158.75 841.485 148.746C839.227 151.345 837.176 154.178 835.371 157.233C819.15 184.686 828.891 219.726 857.13 235.497C879.671 248.086 907.185 244.59 925.62 228.703C926.472 229.237 927.344 229.753 928.233 230.25C956.471 246.021 992.513 236.55 1008.73 209.096C1024.96 181.643 1015.21 146.602 986.976 130.832L986.935 130.809C1001.54 103.678 991.596 69.9438 964.042 54.5557C935.804 38.7852 899.762 48.2562 883.541 75.7098C881.941 78.4173 880.594 81.1986 879.492 84.028Z" fill="#7F5EAA"/>
<path d="M879.492 84.028L877.605 83.3428L876.993 84.9143L878.467 85.7459L879.492 84.028ZM841.485 148.746L842.486 147.015L841.038 146.224L839.952 147.474L841.485 148.746ZM925.62 228.703L926.724 227.033L925.447 226.233L924.295 227.225L925.62 228.703ZM986.976 130.832L987.993 129.11L987.993 129.11L986.976 130.832ZM986.935 130.809L985.15 129.904L984.24 131.595L985.919 132.532L986.935 130.809ZM878.467 85.7459C895.778 95.5069 901.69 117.018 891.747 133.845L895.24 135.795C906.33 117.025 899.698 93.1263 880.516 82.3101L878.467 85.7459ZM891.747 133.845C881.836 150.619 859.854 156.506 842.486 147.015L840.483 150.476C859.729 160.994 884.184 154.506 895.24 135.795L891.747 133.845ZM839.952 147.474C837.614 150.166 835.492 153.097 833.625 156.258L837.117 158.208C838.86 155.258 840.839 152.525 843.017 150.017L839.952 147.474ZM833.625 156.258C816.828 184.685 826.933 220.923 856.112 237.219L858.147 233.775C830.85 218.53 821.471 184.688 837.117 158.208L833.625 156.258ZM856.112 237.219C879.41 250.23 907.864 246.625 926.945 230.182L924.295 227.225C906.505 242.556 879.932 245.941 858.147 233.775L856.112 237.219ZM924.516 230.374C925.397 230.926 926.297 231.459 927.216 231.972L929.251 228.528C928.39 228.048 927.548 227.549 926.724 227.033L924.516 230.374ZM927.216 231.972C956.395 248.268 993.684 238.499 1010.48 210.071L1006.99 208.121C991.342 234.601 956.548 243.773 929.251 228.528L927.216 231.972ZM1010.48 210.071C1027.28 181.644 1017.17 145.406 987.993 129.11L985.958 132.554C1013.26 147.799 1022.63 181.641 1006.99 208.121L1010.48 210.071ZM987.993 129.11L987.952 129.087L985.919 132.532L985.959 132.554L987.993 129.11ZM988.721 131.715C1003.84 103.621 993.532 68.7351 965.06 52.8338L963.025 56.2776C989.659 71.1524 999.235 103.735 985.15 129.904L988.721 131.715ZM965.06 52.8338C935.88 36.5378 898.591 46.3071 881.795 74.7346L885.287 76.6849C900.933 50.2053 935.727 41.0326 963.025 56.2776L965.06 52.8338ZM881.795 74.7346C880.14 77.5354 878.745 80.4137 877.605 83.3428L881.379 84.7132C882.442 81.9836 883.742 79.2992 885.287 76.6849L881.795 74.7346Z" fill="#FFFEFE" mask="url(#path-8-inside-1_1615_12300)"/>
<mask id="path-10-inside-2_1615_12300" fill="white">
<path fill-rule="evenodd" clip-rule="evenodd" d="M51.217 150.223C42.0792 157.712 28.8619 156.368 21.6551 147.202C14.4708 138.064 15.9645 124.593 24.9668 117.014C24.0618 115.296 22.9922 113.64 21.7554 112.067C10.6393 97.9283 -9.77155 95.8873 -23.8335 107.508C-35.058 116.784 -38.8445 131.961 -34.2621 144.898C-34.7177 145.238 -35.1674 145.591 -35.6108 145.957C-49.6728 157.578 -52.0609 178.46 -40.9448 192.598C-29.8287 206.737 -9.41789 208.778 4.64406 197.157L4.6636 197.141C15.9411 210.363 35.7065 212.031 49.4273 200.692C63.4892 189.072 65.8773 168.19 54.7612 154.051C53.6652 152.657 52.4788 151.381 51.217 150.223Z"/>
</mask>
<path fill-rule="evenodd" clip-rule="evenodd" d="M51.217 150.223C42.0792 157.712 28.8619 156.368 21.6551 147.202C14.4708 138.064 15.9645 124.593 24.9668 117.014C24.0618 115.296 22.9922 113.64 21.7554 112.067C10.6393 97.9283 -9.77155 95.8873 -23.8335 107.508C-35.058 116.784 -38.8445 131.961 -34.2621 144.898C-34.7177 145.238 -35.1674 145.591 -35.6108 145.957C-49.6728 157.578 -52.0609 178.46 -40.9448 192.598C-29.8287 206.737 -9.41789 208.778 4.64406 197.157L4.6636 197.141C15.9411 210.363 35.7065 212.031 49.4273 200.692C63.4892 189.072 65.8773 168.19 54.7612 154.051C53.6652 152.657 52.4788 151.381 51.217 150.223Z" fill="#7F5EAA"/>
<path d="M51.217 150.223L52.5397 148.713L51.2967 147.573L49.9873 148.646L51.217 150.223ZM24.9668 117.014L26.2169 118.575L27.4792 117.512L26.707 116.047L24.9668 117.014ZM-34.2621 144.898L-33.1052 146.533L-31.8965 145.633L-32.404 144.2L-34.2621 144.898ZM4.64406 197.157L5.8802 198.73L5.88066 198.729L4.64406 197.157ZM4.6636 197.141L6.15478 195.805L4.90848 194.344L3.427 195.569L4.6636 197.141ZM49.9873 148.646C41.6802 155.453 29.7062 154.207 23.1968 145.928L20.1134 148.476C28.0176 158.529 42.4782 159.97 52.4468 151.801L49.9873 148.646ZM23.1968 145.928C16.7077 137.674 18.0334 125.464 26.2169 118.575L23.7166 115.454C13.8957 123.721 12.2339 138.454 20.1134 148.476L23.1968 145.928ZM26.707 116.047C25.7454 114.221 24.6094 112.462 23.2971 110.793L20.2137 113.341C21.3749 114.818 22.3782 116.372 23.2265 117.982L26.707 116.047ZM23.2971 110.793C11.4818 95.765 -10.1769 93.6285 -25.0696 105.936L-22.5974 109.08C-9.36616 98.1461 9.79678 100.092 20.2137 113.341L23.2971 110.793ZM-25.0696 105.936C-36.9622 115.764 -40.9868 131.857 -36.1201 145.597L-32.404 144.2C-36.7022 132.065 -33.1538 117.804 -22.5974 109.08L-25.0696 105.936ZM-35.419 143.264C-35.9015 143.623 -36.3776 143.997 -36.847 144.385L-34.3747 147.529C-33.9572 147.184 -33.5338 146.852 -33.1052 146.533L-35.419 143.264ZM-36.847 144.385C-51.7397 156.692 -54.3018 178.845 -42.4865 193.873L-39.4031 191.324C-49.82 178.075 -47.6059 158.464 -34.3747 147.529L-36.847 144.385ZM-42.4865 193.873C-30.6712 208.9 -9.0125 211.037 5.8802 198.73L3.40792 195.585C-9.82329 206.519 -28.9862 204.574 -39.4031 191.324L-42.4865 193.873ZM5.88066 198.729L5.90021 198.713L3.427 195.569L3.40746 195.585L5.88066 198.729ZM3.17243 198.477C15.1594 212.531 36.1312 214.274 50.6634 202.265L48.1911 199.12C35.2817 209.788 16.7227 208.195 6.15478 195.805L3.17243 198.477ZM50.6634 202.265C65.5561 189.957 68.1182 167.805 56.3029 152.777L53.2195 155.325C63.6364 168.574 61.4223 188.186 48.1911 199.12L50.6634 202.265ZM56.3029 152.777C55.14 151.298 53.8802 149.942 52.5397 148.713L49.8944 151.734C51.0774 152.819 52.1904 154.016 53.2195 155.325L56.3029 152.777Z" fill="#FFFEFE" mask="url(#path-10-inside-2_1615_12300)"/>
</g>
<circle cx="68.4528" cy="45.0348" r="44.0348" fill="#56CC42" stroke="#FFFEFE" stroke-width="2"/>
<path d="M68.0024 12.666C50.376 12.666 36.084 26.9581 36.084 44.5845C36.084 62.2109 50.376 76.5029 68.0024 76.5029C85.6288 76.5029 99.9209 62.2109 99.9209 44.5845C99.9209 26.9581 85.6288 12.666 68.0024 12.666ZM81.7886 34.1611L66.7841 54.9651C66.5744 55.2578 66.2979 55.4963 65.9776 55.6608C65.6574 55.8254 65.3025 55.9112 64.9424 55.9112C64.5823 55.9112 64.2274 55.8254 63.9071 55.6608C63.5868 55.4963 63.3104 55.2578 63.1007 54.9651L54.2162 42.6537C53.9455 42.2761 54.2162 41.7488 54.6793 41.7488H58.0208C58.7475 41.7488 59.4386 42.098 59.8661 42.6964L64.9388 49.7356L76.1388 34.2038C76.5663 33.6125 77.2502 33.2563 77.9841 33.2563H81.3255C81.7886 33.2563 82.0594 33.7835 81.7886 34.1611V34.1611Z" fill="#7F5EAA"/>
</svg>
