<svg width="40" height="40" viewBox="0 0 40 40" fill="none" xmlns="http://www.w3.org/2000/svg">
<path d="M35.1148 8.71665C32.4315 8.44998 29.7481 8.24998 27.0481 8.09998V8.08331L26.6815 5.91665C26.4315 4.38331 26.0648 2.08331 22.1648 2.08331H17.7981C13.9148 2.08331 13.5481 4.28331 13.2815 5.89998L12.9315 8.03331C11.3815 8.13331 9.83148 8.23331 8.28148 8.38331L4.88148 8.71665C4.18148 8.78331 3.68148 9.39998 3.74815 10.0833C3.81481 10.7666 4.41481 11.2666 5.11481 11.2L8.51481 10.8666C17.2481 9.99998 26.0481 10.3333 34.8815 11.2166C34.9315 11.2166 34.9648 11.2166 35.0148 11.2166C35.6481 11.2166 36.1981 10.7333 36.2648 10.0833C36.3148 9.39998 35.8148 8.78331 35.1148 8.71665Z" fill="#777480"/>
<path d="M32.0489 13.5667C31.6489 13.15 31.0989 12.9167 30.5323 12.9167H9.4656C8.89893 12.9167 8.33226 13.15 7.94893 13.5667C7.5656 13.9834 7.34893 14.55 7.38226 15.1334L8.4156 32.2334C8.59893 34.7667 8.83226 37.9334 14.6489 37.9334H25.3489C31.1656 37.9334 31.3989 34.7834 31.5823 32.2334L32.6156 15.15C32.6489 14.55 32.4323 13.9834 32.0489 13.5667ZM22.7656 29.5834H17.2156C16.5323 29.5834 15.9656 29.0167 15.9656 28.3334C15.9656 27.65 16.5323 27.0834 17.2156 27.0834H22.7656C23.4489 27.0834 24.0156 27.65 24.0156 28.3334C24.0156 29.0167 23.4489 29.5834 22.7656 29.5834ZM24.1656 22.9167H15.8323C15.1489 22.9167 14.5823 22.35 14.5823 21.6667C14.5823 20.9834 15.1489 20.4167 15.8323 20.4167H24.1656C24.8489 20.4167 25.4156 20.9834 25.4156 21.6667C25.4156 22.35 24.8489 22.9167 24.1656 22.9167Z" fill="#777480"/>
</svg>
