<svg width="38" height="31" viewBox="0 0 38 31" fill="none" xmlns="http://www.w3.org/2000/svg">
<g clip-path="url(#clip0_873_5515)">
<path d="M11.9468 30.8507C25.9062 30.8507 33.5413 19.2855 33.5413 9.25627C33.5413 8.92768 33.5413 8.60067 33.5192 8.27367C35.0044 7.19976 36.2866 5.87004 37.3057 4.34672C35.9205 4.96051 34.4511 5.36304 32.9465 5.54087C34.5309 4.5924 35.7167 3.10061 36.2832 1.34313C34.7934 2.22714 33.1635 2.85013 31.4638 3.18522C30.3195 1.96849 28.8061 1.16281 27.1578 0.892852C25.5094 0.622899 23.8181 0.903723 22.3454 1.69187C20.8728 2.48002 19.7009 3.73155 19.0112 5.25279C18.3215 6.77404 18.1524 8.48019 18.53 10.1072C15.5126 9.95595 12.5606 9.17179 9.8659 7.80566C7.17116 6.43953 4.79383 4.52198 2.88825 2.17748C1.91771 3.84826 1.62044 5.82613 2.05696 7.7084C2.49347 9.59066 3.63096 11.2358 5.23783 12.3088C4.03006 12.273 2.84862 11.9472 1.79322 11.3589V11.455C1.79368 13.2073 2.40026 14.9055 3.51007 16.2615C4.61988 17.6175 6.16459 18.548 7.88219 18.8949C6.76483 19.1996 5.59248 19.2442 4.45521 19.0251C4.94018 20.5331 5.88438 21.8519 7.15573 22.7969C8.42709 23.742 9.96202 24.266 11.5459 24.2958C8.85835 26.4079 5.5384 27.5545 2.12023 27.5511C1.51638 27.5499 0.91311 27.5133 0.313538 27.4415C3.78435 29.6689 7.82283 30.8503 11.9468 30.8448" fill="#1DA1F2"/>
</g>
<defs>
<clipPath id="clip0_873_5515">
<rect width="36.9922" height="30.2006" fill="white" transform="translate(0.313477 0.792969)"/>
</clipPath>
</defs>
</svg>
