<svg width="284" height="203" viewBox="0 0 284 203" fill="none" xmlns="http://www.w3.org/2000/svg">
<rect width="284" height="203" fill="#FFFEFE"/>
<g opacity="0.5">
<path d="M151.053 98.957V104.3C151.053 105.009 150.771 105.688 150.27 106.19C149.769 106.691 149.09 106.972 148.381 106.972H129.679C128.971 106.972 128.291 106.691 127.79 106.19C127.289 105.688 127.008 105.009 127.008 104.3V98.957" stroke="black" stroke-width="2" stroke-linecap="round" stroke-linejoin="round"/>
<path d="M145.71 89.6069L139.031 82.9277L132.352 89.6069" stroke="black" stroke-width="2" stroke-linecap="round" stroke-linejoin="round"/>
<path d="M139.031 82.9277V98.9577" stroke="black" stroke-width="2" stroke-linecap="round" stroke-linejoin="round"/>
</g>
<path d="M90.1887 139.831V130.855H93.3433C93.9759 130.855 94.4974 130.957 94.9078 131.162C95.3267 131.359 95.6387 131.633 95.8439 131.983C96.0491 132.325 96.1517 132.71 96.1517 133.137C96.1517 133.718 95.9935 134.176 95.6772 134.509C95.3694 134.843 94.9975 135.074 94.5615 135.202C94.895 135.262 95.1984 135.394 95.472 135.599C95.7456 135.804 95.9593 136.061 96.1132 136.369C96.2756 136.676 96.3568 137.014 96.3568 137.382C96.3568 137.835 96.2457 138.249 96.0234 138.626C95.8012 138.993 95.472 139.288 95.036 139.51C94.6 139.724 94.07 139.831 93.4459 139.831H90.1887ZM91.2659 134.779H93.2664C93.8391 134.779 94.2794 134.646 94.5872 134.381C94.895 134.107 95.0488 133.731 95.0488 133.253C95.0488 132.799 94.895 132.436 94.5872 132.163C94.288 131.889 93.8349 131.752 93.2279 131.752H91.2659V134.779ZM91.2659 138.933H93.3305C93.946 138.933 94.4205 138.792 94.7539 138.51C95.0873 138.22 95.254 137.818 95.254 137.305C95.254 136.8 95.0788 136.399 94.7282 136.099C94.3777 135.792 93.9033 135.638 93.3048 135.638H91.2659V138.933ZM97.9991 139.831V133.471H98.9736L99.0634 134.689C99.26 134.27 99.5593 133.936 99.9611 133.689C100.363 133.441 100.859 133.317 101.449 133.317V134.445H101.154C100.777 134.445 100.431 134.514 100.115 134.65C99.7986 134.779 99.5464 135.001 99.3584 135.317C99.1703 135.633 99.0762 136.069 99.0762 136.625V139.831H97.9991ZM105.478 139.985C104.88 139.985 104.341 139.848 103.862 139.575C103.384 139.301 103.003 138.916 102.721 138.42C102.447 137.916 102.311 137.326 102.311 136.651C102.311 135.975 102.452 135.39 102.734 134.894C103.016 134.39 103.396 134.001 103.875 133.727C104.362 133.453 104.905 133.317 105.504 133.317C106.102 133.317 106.641 133.453 107.12 133.727C107.598 134.001 107.974 134.39 108.248 134.894C108.53 135.39 108.671 135.975 108.671 136.651C108.671 137.326 108.53 137.916 108.248 138.42C107.966 138.916 107.581 139.301 107.094 139.575C106.615 139.848 106.077 139.985 105.478 139.985ZM105.478 139.062C105.846 139.062 106.188 138.972 106.504 138.792C106.82 138.613 107.077 138.344 107.273 137.984C107.47 137.625 107.568 137.181 107.568 136.651C107.568 136.121 107.47 135.676 107.273 135.317C107.085 134.958 106.833 134.689 106.517 134.509C106.2 134.33 105.863 134.24 105.504 134.24C105.136 134.24 104.794 134.33 104.478 134.509C104.162 134.689 103.905 134.958 103.708 135.317C103.512 135.676 103.414 136.121 103.414 136.651C103.414 137.181 103.512 137.625 103.708 137.984C103.905 138.344 104.157 138.613 104.465 138.792C104.781 138.972 105.119 139.062 105.478 139.062ZM111.374 139.831L109.514 133.471H110.591L111.938 138.459L113.425 133.471H114.644L116.144 138.459L117.478 133.471H118.568L116.708 139.831H115.605L114.041 134.586L112.476 139.831H111.374ZM122.356 139.985C121.595 139.985 120.962 139.793 120.458 139.408C119.954 139.023 119.659 138.502 119.573 137.843H120.676C120.744 138.177 120.92 138.467 121.202 138.715C121.492 138.955 121.881 139.074 122.369 139.074C122.822 139.074 123.155 138.98 123.369 138.792C123.583 138.596 123.689 138.365 123.689 138.1C123.689 137.715 123.548 137.459 123.266 137.33C122.993 137.202 122.604 137.087 122.099 136.984C121.757 136.916 121.415 136.818 121.073 136.689C120.731 136.561 120.445 136.382 120.214 136.151C119.983 135.911 119.868 135.599 119.868 135.215C119.868 134.659 120.073 134.206 120.484 133.855C120.902 133.496 121.467 133.317 122.176 133.317C122.852 133.317 123.403 133.488 123.831 133.83C124.267 134.163 124.519 134.642 124.587 135.266H123.523C123.48 134.941 123.339 134.689 123.1 134.509C122.869 134.321 122.557 134.227 122.163 134.227C121.779 134.227 121.48 134.308 121.266 134.471C121.061 134.633 120.958 134.847 120.958 135.112C120.958 135.368 121.091 135.569 121.356 135.715C121.629 135.86 121.997 135.984 122.458 136.087C122.852 136.172 123.224 136.279 123.574 136.407C123.933 136.527 124.224 136.711 124.446 136.959C124.677 137.198 124.792 137.548 124.792 138.01C124.801 138.583 124.583 139.057 124.138 139.434C123.702 139.801 123.108 139.985 122.356 139.985ZM129.351 139.985C128.744 139.985 128.205 139.848 127.735 139.575C127.265 139.292 126.893 138.903 126.62 138.408C126.355 137.912 126.222 137.326 126.222 136.651C126.222 135.984 126.355 135.403 126.62 134.907C126.885 134.402 127.252 134.013 127.722 133.74C128.201 133.458 128.753 133.317 129.377 133.317C129.992 133.317 130.522 133.458 130.967 133.74C131.42 134.013 131.766 134.377 132.006 134.83C132.245 135.283 132.365 135.77 132.365 136.292C132.365 136.386 132.36 136.48 132.352 136.574C132.352 136.668 132.352 136.775 132.352 136.894H127.286C127.312 137.382 127.423 137.788 127.62 138.113C127.825 138.429 128.077 138.668 128.376 138.831C128.684 138.993 129.009 139.074 129.351 139.074C129.796 139.074 130.167 138.972 130.467 138.767C130.766 138.562 130.984 138.284 131.121 137.933H132.185C132.014 138.523 131.685 139.015 131.198 139.408C130.719 139.793 130.103 139.985 129.351 139.985ZM129.351 134.227C128.838 134.227 128.381 134.385 127.979 134.702C127.586 135.009 127.359 135.462 127.299 136.061H131.3C131.275 135.488 131.078 135.039 130.71 134.714C130.343 134.39 129.89 134.227 129.351 134.227ZM140.02 139.831C139.439 139.831 138.981 139.69 138.648 139.408C138.315 139.126 138.148 138.617 138.148 137.882V134.381H137.045V133.471H138.148L138.289 131.945H139.225V133.471H141.097V134.381H139.225V137.882C139.225 138.284 139.306 138.557 139.469 138.703C139.631 138.839 139.917 138.908 140.328 138.908H140.995V139.831H140.02ZM145.349 139.985C144.75 139.985 144.212 139.848 143.733 139.575C143.254 139.301 142.874 138.916 142.592 138.42C142.318 137.916 142.181 137.326 142.181 136.651C142.181 135.975 142.322 135.39 142.605 134.894C142.887 134.39 143.267 134.001 143.746 133.727C144.233 133.453 144.776 133.317 145.374 133.317C145.973 133.317 146.512 133.453 146.99 133.727C147.469 134.001 147.845 134.39 148.119 134.894C148.401 135.39 148.542 135.975 148.542 136.651C148.542 137.326 148.401 137.916 148.119 138.42C147.837 138.916 147.452 139.301 146.965 139.575C146.486 139.848 145.947 139.985 145.349 139.985ZM145.349 139.062C145.716 139.062 146.058 138.972 146.375 138.792C146.691 138.613 146.948 138.344 147.144 137.984C147.341 137.625 147.439 137.181 147.439 136.651C147.439 136.121 147.341 135.676 147.144 135.317C146.956 134.958 146.704 134.689 146.388 134.509C146.071 134.33 145.734 134.24 145.374 134.24C145.007 134.24 144.665 134.33 144.349 134.509C144.032 134.689 143.776 134.958 143.579 135.317C143.383 135.676 143.284 136.121 143.284 136.651C143.284 137.181 143.383 137.625 143.579 137.984C143.776 138.344 144.028 138.613 144.336 138.792C144.652 138.972 144.99 139.062 145.349 139.062ZM156.075 139.985C155.323 139.985 154.724 139.758 154.28 139.305C153.835 138.844 153.613 138.138 153.613 137.189V133.471H154.69V137.074C154.69 138.399 155.233 139.062 156.319 139.062C156.874 139.062 157.332 138.865 157.691 138.472C158.058 138.07 158.242 137.501 158.242 136.766V133.471H159.319V139.831H158.345L158.268 138.69C158.071 139.092 157.776 139.408 157.383 139.639C156.998 139.87 156.562 139.985 156.075 139.985ZM161.253 142.652V133.471H162.227L162.33 134.522C162.535 134.214 162.826 133.936 163.202 133.689C163.587 133.441 164.074 133.317 164.664 133.317C165.296 133.317 165.848 133.462 166.318 133.753C166.788 134.043 167.152 134.441 167.408 134.945C167.673 135.45 167.806 136.022 167.806 136.664C167.806 137.305 167.673 137.878 167.408 138.382C167.152 138.878 166.784 139.271 166.305 139.562C165.835 139.844 165.284 139.985 164.651 139.985C164.129 139.985 163.664 139.878 163.253 139.664C162.851 139.451 162.544 139.151 162.33 138.767V142.652H161.253ZM164.536 139.049C164.963 139.049 165.339 138.951 165.664 138.754C165.989 138.549 166.245 138.267 166.433 137.908C166.622 137.548 166.716 137.13 166.716 136.651C166.716 136.172 166.622 135.753 166.433 135.394C166.245 135.035 165.989 134.757 165.664 134.561C165.339 134.355 164.963 134.253 164.536 134.253C164.108 134.253 163.732 134.355 163.407 134.561C163.082 134.757 162.826 135.035 162.638 135.394C162.45 135.753 162.356 136.172 162.356 136.651C162.356 137.13 162.45 137.548 162.638 137.908C162.826 138.267 163.082 138.549 163.407 138.754C163.732 138.951 164.108 139.049 164.536 139.049ZM169.465 139.831V130.598H170.543V139.831H169.465ZM175.366 139.985C174.768 139.985 174.229 139.848 173.751 139.575C173.272 139.301 172.892 138.916 172.609 138.42C172.336 137.916 172.199 137.326 172.199 136.651C172.199 135.975 172.34 135.39 172.622 134.894C172.904 134.39 173.285 134.001 173.764 133.727C174.251 133.453 174.794 133.317 175.392 133.317C175.991 133.317 176.529 133.453 177.008 133.727C177.487 134.001 177.863 134.39 178.136 134.894C178.418 135.39 178.56 135.975 178.56 136.651C178.56 137.326 178.418 137.916 178.136 138.42C177.854 138.916 177.47 139.301 176.982 139.575C176.503 139.848 175.965 139.985 175.366 139.985ZM175.366 139.062C175.734 139.062 176.076 138.972 176.392 138.792C176.709 138.613 176.965 138.344 177.162 137.984C177.358 137.625 177.457 137.181 177.457 136.651C177.457 136.121 177.358 135.676 177.162 135.317C176.974 134.958 176.721 134.689 176.405 134.509C176.089 134.33 175.751 134.24 175.392 134.24C175.025 134.24 174.683 134.33 174.366 134.509C174.05 134.689 173.793 134.958 173.597 135.317C173.4 135.676 173.302 136.121 173.302 136.651C173.302 137.181 173.4 137.625 173.597 137.984C173.793 138.344 174.046 138.613 174.353 138.792C174.67 138.972 175.007 139.062 175.366 139.062ZM182.333 139.985C181.803 139.985 181.363 139.895 181.013 139.716C180.662 139.536 180.401 139.297 180.23 138.998C180.059 138.698 179.974 138.373 179.974 138.023C179.974 137.373 180.222 136.873 180.718 136.523C181.214 136.172 181.889 135.997 182.744 135.997H184.462V135.92C184.462 135.364 184.317 134.945 184.026 134.663C183.736 134.372 183.347 134.227 182.859 134.227C182.44 134.227 182.077 134.334 181.769 134.548C181.47 134.753 181.282 135.056 181.205 135.458H180.102C180.145 134.997 180.299 134.608 180.564 134.291C180.837 133.975 181.175 133.736 181.577 133.573C181.979 133.402 182.406 133.317 182.859 133.317C183.748 133.317 184.415 133.556 184.86 134.035C185.313 134.505 185.539 135.133 185.539 135.92V139.831H184.578L184.513 138.69C184.334 139.049 184.069 139.357 183.718 139.613C183.376 139.861 182.915 139.985 182.333 139.985ZM182.5 139.074C182.911 139.074 183.261 138.968 183.552 138.754C183.851 138.54 184.077 138.262 184.231 137.92C184.385 137.578 184.462 137.219 184.462 136.843V136.83H182.834C182.201 136.83 181.752 136.941 181.487 137.164C181.231 137.377 181.102 137.647 181.102 137.972C181.102 138.305 181.222 138.574 181.461 138.78C181.709 138.976 182.056 139.074 182.5 139.074ZM190.201 139.985C189.568 139.985 189.013 139.84 188.534 139.549C188.064 139.258 187.696 138.861 187.431 138.356C187.175 137.852 187.046 137.279 187.046 136.638C187.046 135.997 187.179 135.428 187.444 134.932C187.709 134.428 188.076 134.035 188.547 133.753C189.017 133.462 189.573 133.317 190.214 133.317C190.735 133.317 191.197 133.424 191.599 133.637C192 133.851 192.313 134.15 192.535 134.535V130.598H193.612V139.831H192.637L192.535 138.78C192.33 139.087 192.035 139.365 191.65 139.613C191.265 139.861 190.782 139.985 190.201 139.985ZM190.316 139.049C190.744 139.049 191.12 138.951 191.445 138.754C191.778 138.549 192.035 138.267 192.214 137.908C192.402 137.548 192.496 137.13 192.496 136.651C192.496 136.172 192.402 135.753 192.214 135.394C192.035 135.035 191.778 134.757 191.445 134.561C191.12 134.355 190.744 134.253 190.316 134.253C189.897 134.253 189.521 134.355 189.188 134.561C188.863 134.757 188.607 135.035 188.418 135.394C188.239 135.753 188.149 136.172 188.149 136.651C188.149 137.13 188.239 137.548 188.418 137.908C188.607 138.267 188.863 138.549 189.188 138.754C189.521 138.951 189.897 139.049 190.316 139.049Z" fill="#001A1E"/>
<rect x="16.4313" y="11.6217" width="251.662" height="173.919" rx="4.4081" stroke="#001A1E" stroke-width="0.801472" stroke-dasharray="4.81 4.81"/>
</svg>
