<svg width="26" height="35" viewBox="0 0 26 35" fill="none" xmlns="http://www.w3.org/2000/svg">
<path d="M23.032 18.0635L20.9987 15.9793C20.5154 15.5522 20.232 14.9201 20.2154 14.2197C20.182 13.451 20.482 12.6822 21.032 12.1185L23.032 10.0685C24.7654 8.2918 25.4154 6.58347 24.8654 5.23388C24.332 3.90138 22.682 3.1668 20.2487 3.1668H2.83203V1.69763C2.83203 0.997215 2.26536 0.416382 1.58203 0.416382C0.898698 0.416382 0.332031 0.997215 0.332031 1.69763V33.3018C0.332031 34.0022 0.898698 34.583 1.58203 34.583C2.26536 34.583 2.83203 34.0022 2.83203 33.3018V24.9651H20.2487C22.6487 24.9651 24.2654 24.2135 24.8154 22.8639C25.3654 21.5143 24.732 19.823 23.032 18.0635Z" fill="#B0131D"/>
</svg>
