<svg width="52" height="24" viewBox="0 0 52 24" fill="none" xmlns="http://www.w3.org/2000/svg">
<g filter="url(#filter0_dd_882_13256)">
<rect x="4.81384" y="3.61914" width="42.3723" height="15.3805" rx="3.64868" fill="#B0131D"/>
<path d="M13.4658 10.0805V10.1717C13.3624 10.1747 13.2833 10.1869 13.2286 10.2082C13.1769 10.2264 13.142 10.2629 13.1237 10.3177C13.1055 10.3693 13.0963 10.4514 13.0963 10.5639V12.8261C13.0963 12.9356 13.1055 13.0177 13.1237 13.0724C13.142 13.1271 13.1769 13.1636 13.2286 13.1819C13.2833 13.1971 13.3624 13.2047 13.4658 13.2047H13.7987C13.9416 13.2047 14.0572 13.1895 14.1453 13.1591C14.2366 13.1287 14.308 13.0815 14.3597 13.0177C14.4144 12.9508 14.4555 12.8626 14.4828 12.7531C14.5102 12.6437 14.5315 12.5099 14.5467 12.3518H14.6516C14.6425 12.446 14.6379 12.5707 14.6379 12.7258C14.6379 12.7836 14.6394 12.8672 14.6425 12.9766C14.6486 13.083 14.6577 13.194 14.6698 13.3096C14.5148 13.3035 14.3399 13.3004 14.1453 13.3004C13.9507 13.2974 13.7774 13.2959 13.6254 13.2959C13.5585 13.2959 13.4719 13.2959 13.3654 13.2959C13.2621 13.2959 13.1496 13.2974 13.0279 13.3004C12.9063 13.3004 12.7832 13.302 12.6585 13.305C12.5338 13.305 12.4153 13.3065 12.3028 13.3096V13.2184C12.4061 13.2123 12.4837 13.2001 12.5354 13.1819C12.5901 13.1636 12.6266 13.1271 12.6448 13.0724C12.6631 13.0177 12.6722 12.9356 12.6722 12.8261V10.5639C12.6722 10.4514 12.6631 10.3693 12.6448 10.3177C12.6266 10.2629 12.5901 10.2264 12.5354 10.2082C12.4837 10.1869 12.4061 10.1747 12.3028 10.1717V10.0805C12.3666 10.0835 12.4502 10.0866 12.5536 10.0896C12.657 10.0927 12.768 10.0942 12.8866 10.0942C12.993 10.0942 13.0979 10.0927 13.2012 10.0896C13.3077 10.0866 13.3958 10.0835 13.4658 10.0805ZM16.0422 10.8969C16.2368 10.8969 16.4116 10.9394 16.5667 11.0246C16.7217 11.1097 16.8449 11.2435 16.9361 11.4259C17.0303 11.6084 17.0775 11.8455 17.0775 12.1374C17.0775 12.4293 17.0303 12.6665 16.9361 12.8489C16.8449 13.0283 16.7217 13.1606 16.5667 13.2457C16.4116 13.3309 16.2368 13.3734 16.0422 13.3734C15.8506 13.3734 15.6758 13.3309 15.5177 13.2457C15.3626 13.1606 15.2379 13.0283 15.1437 12.8489C15.0525 12.6665 15.0068 12.4293 15.0068 12.1374C15.0068 11.8455 15.0525 11.6084 15.1437 11.4259C15.2379 11.2435 15.3626 11.1097 15.5177 11.0246C15.6758 10.9394 15.8506 10.8969 16.0422 10.8969ZM16.0422 10.9881C15.8688 10.9881 15.7259 11.0778 15.6134 11.2572C15.504 11.4366 15.4492 11.73 15.4492 12.1374C15.4492 12.5449 15.504 12.8383 15.6134 13.0177C15.7259 13.194 15.8688 13.2822 16.0422 13.2822C16.2155 13.2822 16.3569 13.194 16.4663 13.0177C16.5788 12.8383 16.6351 12.5449 16.6351 12.1374C16.6351 11.73 16.5788 11.4366 16.4663 11.2572C16.3569 11.0778 16.2155 10.9881 16.0422 10.9881ZM18.2626 14.167C18.1015 14.167 17.9494 14.1503 17.8065 14.1168C17.6636 14.0834 17.5481 14.0302 17.4599 13.9572C17.3748 13.8873 17.3322 13.7976 17.3322 13.6881C17.3322 13.5817 17.3748 13.4905 17.4599 13.4145C17.545 13.3385 17.6606 13.2807 17.8065 13.2412L17.8339 13.3141C17.767 13.3354 17.7138 13.378 17.6743 13.4418C17.6347 13.5057 17.615 13.5771 17.615 13.6562C17.615 13.7961 17.6788 13.9025 17.8065 13.9755C17.9373 14.0515 18.106 14.0895 18.3128 14.0895C18.4496 14.0895 18.5834 14.0712 18.7141 14.0347C18.8449 14.0013 18.9528 13.9435 19.038 13.8614C19.1231 13.7793 19.1657 13.6714 19.1657 13.5376C19.1657 13.4373 19.1292 13.3552 19.0562 13.2913C18.9863 13.2244 18.8464 13.191 18.6366 13.191H18.2991C18.2018 13.191 18.1075 13.1834 18.0163 13.1682C17.9251 13.153 17.8506 13.1211 17.7928 13.0724C17.7351 13.0238 17.7062 12.9493 17.7062 12.8489C17.7062 12.7455 17.7488 12.6467 17.8339 12.5525C17.919 12.4552 18.0756 12.3564 18.3037 12.256L18.3584 12.2971C18.255 12.3518 18.1653 12.408 18.0893 12.4658C18.0133 12.5205 17.9753 12.5859 17.9753 12.6619C17.9753 12.7592 18.0483 12.8079 18.1942 12.8079H18.7643C18.892 12.8079 19.0091 12.8261 19.1155 12.8626C19.225 12.8991 19.3131 12.9569 19.38 13.0359C19.4469 13.115 19.4804 13.2184 19.4804 13.3461C19.4804 13.489 19.4348 13.6227 19.3435 13.7474C19.2523 13.8721 19.1155 13.9724 18.9331 14.0484C18.7537 14.1275 18.5302 14.167 18.2626 14.167ZM18.2854 12.3381C18.1364 12.3381 18.0011 12.3138 17.8795 12.2651C17.7579 12.2134 17.6621 12.1344 17.5922 12.028C17.5222 11.9216 17.4873 11.7847 17.4873 11.6175C17.4873 11.4503 17.5222 11.3134 17.5922 11.207C17.6621 11.1006 17.7579 11.0231 17.8795 10.9744C18.0011 10.9227 18.1364 10.8969 18.2854 10.8969C18.4374 10.8969 18.5728 10.9227 18.6913 10.9744C18.813 11.0231 18.9087 11.1006 18.9787 11.207C19.0486 11.3134 19.0836 11.4503 19.0836 11.6175C19.0836 11.7847 19.0486 11.9216 18.9787 12.028C18.9087 12.1344 18.813 12.2134 18.6913 12.2651C18.5728 12.3138 18.4374 12.3381 18.2854 12.3381ZM18.2854 12.256C18.401 12.256 18.4907 12.2104 18.5545 12.1192C18.6214 12.028 18.6548 11.8607 18.6548 11.6175C18.6548 11.3743 18.6214 11.207 18.5545 11.1158C18.4907 11.0246 18.401 10.979 18.2854 10.979C18.1729 10.979 18.0832 11.0246 18.0163 11.1158C17.9494 11.207 17.916 11.3743 17.916 11.6175C17.916 11.8607 17.9494 12.028 18.0163 12.1192C18.0832 12.2104 18.1729 12.256 18.2854 12.256ZM18.9422 11.2754L18.8601 11.2435C18.9027 11.1401 18.9756 11.0489 19.079 10.9699C19.1824 10.8908 19.2903 10.8513 19.4028 10.8513C19.4819 10.8513 19.5457 10.8741 19.5944 10.9197C19.643 10.9623 19.6674 11.0276 19.6674 11.1158C19.6674 11.2101 19.6415 11.277 19.5898 11.3165C19.5412 11.353 19.491 11.3712 19.4393 11.3712C19.3937 11.3712 19.3511 11.356 19.3116 11.3256C19.2721 11.2922 19.2493 11.2405 19.2432 11.1705C19.2371 11.1006 19.2584 11.0109 19.307 10.9014L19.3663 10.9151C19.2386 10.9638 19.1474 11.0155 19.0927 11.0702C19.038 11.1219 18.9878 11.1903 18.9422 11.2754ZM22.5286 10.0166C22.8174 10.0166 23.0698 10.082 23.2857 10.2128C23.5046 10.3435 23.6734 10.532 23.7919 10.7783C23.9136 11.0215 23.9744 11.318 23.9744 11.6677C23.9744 12.0082 23.912 12.3062 23.7874 12.5616C23.6657 12.817 23.4955 13.0162 23.2766 13.1591C23.0576 13.302 22.8068 13.3734 22.524 13.3734C22.2352 13.3734 21.9813 13.3081 21.7624 13.1773C21.5465 13.0466 21.3777 12.858 21.2561 12.6118C21.1375 12.3655 21.0782 12.069 21.0782 11.7224C21.0782 11.3819 21.1406 11.0839 21.2652 10.8285C21.3899 10.5731 21.5602 10.3739 21.776 10.231C21.995 10.0881 22.2458 10.0166 22.5286 10.0166ZM22.5103 10.0987C22.3127 10.0987 22.1409 10.1671 21.995 10.304C21.849 10.4408 21.735 10.6293 21.6529 10.8695C21.5738 11.1097 21.5343 11.3879 21.5343 11.7042C21.5343 12.0265 21.5784 12.3077 21.6666 12.5479C21.7578 12.7851 21.8794 12.969 22.0314 13.0998C22.1865 13.2275 22.3568 13.2913 22.5423 13.2913C22.7399 13.2913 22.9117 13.2229 23.0576 13.0861C23.2036 12.9493 23.3161 12.7607 23.3951 12.5205C23.4772 12.2773 23.5183 11.9991 23.5183 11.6859C23.5183 11.3606 23.4727 11.0793 23.3815 10.8422C23.2933 10.605 23.1732 10.4226 23.0211 10.2948C22.8691 10.1641 22.6988 10.0987 22.5103 10.0987ZM26.4199 10.9106V12.817C26.4199 12.9538 26.4443 13.0557 26.4929 13.1226C26.5446 13.1864 26.6358 13.2184 26.7666 13.2184V13.3141C26.6723 13.305 26.5781 13.3004 26.4838 13.3004C26.3956 13.3004 26.3105 13.305 26.2284 13.3141C26.1493 13.3233 26.0764 13.34 26.0095 13.3643V12.8261C25.9335 13.0238 25.8255 13.1651 25.6856 13.2503C25.5488 13.3324 25.4074 13.3734 25.2615 13.3734C25.1551 13.3734 25.0623 13.3582 24.9833 13.3278C24.9042 13.2974 24.8388 13.2548 24.7872 13.2001C24.7294 13.1393 24.6899 13.0602 24.6686 12.9629C24.6473 12.8656 24.6367 12.7455 24.6367 12.6026V11.4579C24.6367 11.321 24.6123 11.2207 24.5637 11.1568C24.515 11.09 24.4238 11.0565 24.29 11.0565V10.9607C24.3873 10.9699 24.4816 10.9744 24.5728 10.9744C24.661 10.9744 24.7446 10.9699 24.8236 10.9607C24.9057 10.9486 24.9802 10.9318 25.0471 10.9106V12.703C25.0471 12.7972 25.0532 12.8839 25.0654 12.9629C25.0775 13.042 25.1079 13.1059 25.1566 13.1545C25.2052 13.2032 25.2843 13.2275 25.3938 13.2275C25.5123 13.2275 25.6172 13.191 25.7085 13.118C25.8027 13.045 25.8757 12.9462 25.9274 12.8216C25.9821 12.6969 26.0095 12.557 26.0095 12.402V11.4579C26.0095 11.321 25.9851 11.2207 25.9365 11.1568C25.8878 11.09 25.7966 11.0565 25.6628 11.0565V10.9607C25.7601 10.9699 25.8544 10.9744 25.9456 10.9744C26.0338 10.9744 26.1174 10.9699 26.1965 10.9607C26.2786 10.9486 26.3531 10.9318 26.4199 10.9106ZM27.7337 10.2036V10.9653H28.4087V11.0565H27.7337V12.8216C27.7337 12.9645 27.7596 13.0648 27.8113 13.1226C27.8629 13.1803 27.9344 13.2092 28.0256 13.2092C28.1168 13.2092 28.1959 13.1727 28.2628 13.0998C28.3297 13.0238 28.3874 12.8976 28.4361 12.7212L28.5273 12.744C28.4969 12.9204 28.4361 13.0694 28.3449 13.191C28.2567 13.3126 28.1199 13.3734 27.9344 13.3734C27.831 13.3734 27.7459 13.3597 27.679 13.3324C27.6121 13.3081 27.5528 13.2716 27.5011 13.2229C27.4342 13.153 27.3871 13.0694 27.3597 12.9721C27.3354 12.8748 27.3232 12.7455 27.3232 12.5844V11.0565H26.8854V10.9653H27.3232V10.2675C27.3993 10.2644 27.4722 10.2584 27.5422 10.2492C27.6121 10.2401 27.6759 10.2249 27.7337 10.2036Z" fill="#EBF5FF"/>
<path d="M36.8905 12.8051C36.7861 14.0176 36.163 14.5127 34.799 14.5127H34.7552C33.2497 14.5127 32.6468 13.9098 32.6468 12.4043V10.2084C32.6468 8.70292 33.2497 8.10005 34.7552 8.10005H34.799C36.1529 8.10005 36.776 8.58841 36.8871 9.78067" stroke="#EBF5FF" stroke-width="0.505198" stroke-linecap="round" stroke-linejoin="round"/>
<path d="M34.8363 11.3096H38.6691" stroke="#EBF5FF" stroke-width="0.505198" stroke-linecap="round" stroke-linejoin="round"/>
<path d="M37.9174 12.4375L39.0457 11.3092L37.9174 10.1809" stroke="#EBF5FF" stroke-width="0.505198" stroke-linecap="round" stroke-linejoin="round"/>
</g>
<defs>
<filter id="filter0_dd_882_13256" x="0.813843" y="0.619141" width="50.3723" height="23.3809" filterUnits="userSpaceOnUse" color-interpolation-filters="sRGB">
<feFlood flood-opacity="0" result="BackgroundImageFix"/>
<feColorMatrix in="SourceAlpha" type="matrix" values="0 0 0 0 0 0 0 0 0 0 0 0 0 0 0 0 0 0 127 0" result="hardAlpha"/>
<feMorphology radius="1" operator="dilate" in="SourceAlpha" result="effect1_dropShadow_882_13256"/>
<feOffset dy="1"/>
<feGaussianBlur stdDeviation="1.5"/>
<feColorMatrix type="matrix" values="0 0 0 0 0 0 0 0 0 0 0 0 0 0 0 0 0 0 0.15 0"/>
<feBlend mode="normal" in2="BackgroundImageFix" result="effect1_dropShadow_882_13256"/>
<feColorMatrix in="SourceAlpha" type="matrix" values="0 0 0 0 0 0 0 0 0 0 0 0 0 0 0 0 0 0 127 0" result="hardAlpha"/>
<feOffset dy="1"/>
<feGaussianBlur stdDeviation="1"/>
<feColorMatrix type="matrix" values="0 0 0 0 0 0 0 0 0 0 0 0 0 0 0 0 0 0 0.3 0"/>
<feBlend mode="normal" in2="effect1_dropShadow_882_13256" result="effect2_dropShadow_882_13256"/>
<feBlend mode="normal" in="SourceGraphic" in2="effect2_dropShadow_882_13256" result="shape"/>
</filter>
</defs>
</svg>
